<?xml version="1.0" standalone="no"?>
<!DOCTYPE svg PUBLIC "-//W3C//DTD SVG 1.1//EN" "http://www.w3.org/Graphics/SVG/1.1/DTD/svg11.dtd" >
<svg xmlns="http://www.w3.org/2000/svg" xmlns:xlink="http://www.w3.org/1999/xlink" version="1.1">
<metadata>
Created by FontForge 20170924 at Wed Jan 21 09:12:49 2015
 By www-data
Copyright \(c\) 2015 by FONTYOU. All rights reserved. www.fontyou.com
</metadata>
<defs>
<font id="SayaSerifFY-Md" horiz-adv-x="383" >
  <font-face 
    font-family="Saya Serif FY Md "
    font-weight="400"
    font-style="italic"
    font-stretch="normal"
    units-per-em="1000"
    panose-1="2 1 6 3 6 5 1 2 1 4"
    ascent="771"
    descent="-229"
    x-height="509"
    cap-height="680"
    bbox="-139 -235 1098 958"
    underline-thickness="0"
    underline-position="0"
    slope="-11"
    stemh="45"
    stemv="84"
    unicode-range="U+000D-FB04"
  />
<missing-glyph horiz-adv-x="602" 
d="M199 500c40 0 77 -25 98 -65h8c21 40 58 65 98 65c57 0 99 -44 99 -105c0 -44 -19 -91 -56 -140c-38 -50 -86 -90 -145 -120c-59 30 -107 70 -144 120c-38 49 -57 96 -57 140c0 61 42 105 99 105z" />
    <glyph glyph-name="fi" unicode="fi" horiz-adv-x="598" 
d="M200 466v-420l65 -6v-40h-230v40l29 3c28 4 36 13 36 44v379h-70v43h70c0 147 87 231 234 231c64 0 122 -15 163 -42l-20 -110l-70 7v85c-16 9 -38 14 -63 14c-93 0 -144 -56 -144 -160v-25h300v-463l65 -5v-41h-220v40l26 3c21 3 29 12 29 44v379h-200z" />
    <glyph glyph-name="fl" unicode="fl" horiz-adv-x="596" 
d="M302 466h-102v-420l65 -6v-40h-230v40l29 3c28 4 36 13 36 44v379h-70v43h70c0 147 82 231 223 231c23 0 45 -3 73 -10l104 10v-694l64 -6v-40h-219v40l26 3c21 3 29 12 29 44v588c-16 15 -34 21 -62 21c-89 0 -138 -60 -138 -173v-14h102v-43z" />
    <glyph glyph-name="f_f" unicode="ff" horiz-adv-x="636" 
d="M323 680c-83 0 -123 -49 -123 -152v-19h198v23c0 44 8 84 23 116c-28 21 -59 32 -98 32zM398 466h-198v-420l65 -6v-40h-230v40l29 3c28 4 36 13 36 44v379h-70v43h70v9c0 133 77 209 213 209c53 0 97 -11 138 -36c31 32 74 49 130 49c36 0 67 -7 83 -18l-20 -113l-46 4
v75c-7 3 -16 5 -25 5c-51 0 -76 -48 -76 -140v-44h112v-43h-112v-420l76 -5v-41h-231v40l26 3c23 3 30 12 30 44v379z" />
    <glyph glyph-name="f_f_i" unicode="ffi" horiz-adv-x="909" 
d="M321 680c-83 0 -121 -48 -121 -149v-22h197v18c0 44 9 82 28 114c-27 25 -63 39 -104 39zM397 466h-197v-420l65 -6v-40h-230v40l29 3c28 4 36 13 36 44v379h-70v43h70v11c0 131 79 207 214 207c57 0 107 -13 150 -40c41 35 100 53 169 53c64 0 121 -15 161 -42l-20 -110
l-70 7v85c-16 9 -37 14 -61 14c-95 0 -146 -55 -146 -159v-26h300v-463l65 -5v-41h-221v40l27 3c21 3 29 12 29 44v379h-200v-420l65 -6v-40h-225v40l31 3c23 3 29 11 29 44v379z" />
    <glyph glyph-name="f_f_l" unicode="ffl" horiz-adv-x="897" 
d="M322 680c-83 0 -122 -49 -122 -150v-21h198v17c0 45 9 84 26 116c-28 25 -61 38 -102 38zM398 466h-198v-420l65 -6v-40h-230v40l29 3c28 4 36 13 36 44v379h-70v43h70v11c0 129 80 207 212 207c57 0 101 -12 145 -41c39 36 95 54 164 54c21 0 44 -3 72 -10l104 10v-694
l64 -6v-40h-219v40l26 3c23 3 30 12 30 44v588c-16 15 -35 21 -63 21c-92 0 -138 -56 -138 -171v-16h102v-43h-102v-420l66 -6v-40h-231v40l30 3c27 4 36 15 36 44v379z" />
    <glyph glyph-name=".notdef" horiz-adv-x="602" 
d="M199 500c40 0 77 -25 98 -65h8c21 40 58 65 98 65c57 0 99 -44 99 -105c0 -44 -19 -91 -56 -140c-38 -50 -86 -90 -145 -120c-59 30 -107 70 -144 120c-38 49 -57 96 -57 140c0 61 42 105 99 105z" />
    <glyph glyph-name="null" horiz-adv-x="0" 
 />
    <glyph glyph-name="null" horiz-adv-x="0" 
 />
    <glyph glyph-name="CR" unicode="&#xd;" horiz-adv-x="0" 
 />
    <glyph glyph-name="space" unicode=" " horiz-adv-x="250" 
 />
    <glyph glyph-name="uni00A0" unicode="&#xa0;" horiz-adv-x="250" 
 />
    <glyph glyph-name="A" unicode="A" horiz-adv-x="651" 
d="M405 244l-105 326l-107 -326h212zM455 88l-36 111h-240l-49 -151l66 -6v-42h-176v42l28 3c24 3 32 11 41 42l197 593h80l212 -632l51 -6v-42h-232v42l25 3c36 5 41 15 33 43z" />
    <glyph glyph-name="B" unicode="B" horiz-adv-x="607" 
d="M555 194c0 -117 -99 -194 -255 -194h-248v42l30 3c29 4 37 15 37 44v542l-67 6v43h238c151 0 235 -60 235 -164c0 -76 -45 -128 -133 -156c111 -20 163 -74 163 -166zM221 377h58c87 0 137 51 137 132s-47 126 -134 126h-61v-258zM221 44h69c101 0 156 52 156 147
c0 92 -53 143 -153 143h-72v-290z" />
    <glyph glyph-name="C" unicode="C" horiz-adv-x="579" 
d="M506 127l33 -23c-48 -75 -117 -114 -202 -114c-179 0 -278 129 -278 357c0 106 27 190 80 251s124 92 213 92c68 0 136 -19 173 -50l-23 -131l-47 4v109c-24 13 -57 20 -94 20c-123 0 -192 -111 -192 -298c0 -89 17 -161 51 -216s79 -83 136 -83c61 0 115 30 150 82z" />
    <glyph glyph-name="D" unicode="D" horiz-adv-x="672" 
d="M615 348c0 -228 -127 -348 -367 -348h-196v42l30 3c29 4 37 15 37 44v542l-67 6v43h217c224 0 346 -117 346 -332zM221 44h35c157 0 247 110 247 299c0 184 -87 292 -239 292h-43v-591z" />
    <glyph glyph-name="E" unicode="E" horiz-adv-x="558" 
d="M458 147h47v-147h-453v42l30 3c29 4 37 15 37 44v542l-67 6v43h443v-140h-48l-11 95h-215v-261h150l6 72h48v-188h-48l-6 72h-150v-286h225z" />
    <glyph glyph-name="F" unicode="F" horiz-adv-x="532" 
d="M119 89v542l-67 6v43h433v-145h-48l-11 100h-205v-291h150l6 72h48v-188h-48l-6 72h-150v-252l91 -6v-42h-260v42l30 3c29 4 37 15 37 44z" />
    <glyph glyph-name="G" unicode="G" horiz-adv-x="643" 
d="M496 506v114c-25 15 -61 22 -105 22c-148 0 -222 -99 -222 -298c0 -191 70 -299 193 -299c47 0 84 11 116 32v191l-106 4v42h203v-269c-61 -36 -133 -55 -216 -55c-195 0 -300 126 -300 357c0 216 121 343 322 343c76 0 149 -20 185 -52l-24 -136z" />
    <glyph glyph-name="H" unicode="H" horiz-adv-x="740" 
d="M221 336v-288l66 -6v-42h-235v42l30 3c29 4 37 15 37 44v542l-67 6v43h235v-43l-29 -3c-28 -4 -37 -14 -37 -43v-211h298v251l-67 6v43h235v-43l-29 -3c-28 -4 -37 -14 -37 -43v-543l66 -6v-42h-235v42l30 3c29 4 37 15 37 44v247h-298z" />
    <glyph glyph-name="I" unicode="I" horiz-adv-x="340" 
d="M221 591v-543l66 -6v-42h-235v42l30 3c29 4 37 15 37 44v542l-67 6v43h235v-43l-29 -3c-28 -4 -37 -14 -37 -43z" />
    <glyph glyph-name="J" unicode="J" horiz-adv-x="415" 
d="M325 680v-498c0 -123 -63 -192 -170 -192c-53 0 -93 19 -126 60l30 35c27 -27 55 -40 86 -40c52 0 78 43 78 124v462l-115 6v43h217z" />
    <glyph glyph-name="K" unicode="K" horiz-adv-x="662" 
d="M336 398l166 -233c35 -50 61 -83 79 -99c17 -17 35 -27 54 -31l-17 -45c-87 0 -138 29 -190 106l-159 221l-48 -56v-213l66 -6v-42h-235v42l30 3c28 4 37 15 37 44v542l-67 6v43h235v-43l-29 -3c-28 -4 -37 -14 -37 -43v-261l253 301l-62 6v43h192v-43l-22 -2
c-31 -3 -57 -18 -85 -50z" />
    <glyph glyph-name="L" unicode="L" horiz-adv-x="540" 
d="M445 152h47v-152h-440v42l30 3c28 4 37 15 37 44v542l-67 6v43h235v-43l-29 -3c-28 -4 -37 -14 -37 -43v-547h213z" />
    <glyph glyph-name="M" unicode="M" horiz-adv-x="851" 
d="M381 100l-209 409v-461l67 -6v-42h-187v42l30 3c28 4 37 15 37 44v542l-67 6v43h144l233 -470l230 470h139v-43l-29 -3c-28 -3 -37 -14 -37 -43v-543l66 -6v-42h-227v42l29 3c28 3 37 13 37 44v427l-206 -416h-50z" />
    <glyph glyph-name="N" unicode="N" horiz-adv-x="695" 
d="M513 0l-341 508v-460l67 -6v-42h-187v42l30 3c28 4 37 15 37 44v542l-67 6v43h129l342 -515v466l-67 6v43h187v-43l-30 -3c-28 -4 -37 -14 -37 -42v-592h-63z" />
    <glyph glyph-name="O" unicode="O" horiz-adv-x="679" 
d="M616 333c0 -107 -25 -191 -75 -252s-118 -91 -204 -91c-177 0 -274 128 -274 357c0 107 25 191 75 252s118 91 203 91c176 0 275 -129 275 -357zM173 344c0 -199 60 -308 165 -308c109 0 168 104 168 300c0 197 -61 307 -166 307c-111 0 -167 -100 -167 -299z" />
    <glyph glyph-name="P" unicode="P" horiz-adv-x="598" 
d="M221 236v-188l66 -6v-42h-235v42l30 3c28 4 37 15 37 44v542l-67 6v43h214c187 0 281 -72 281 -213c0 -149 -105 -231 -298 -231h-28zM221 280h37c116 0 181 66 181 181c0 113 -62 174 -181 174h-37v-355z" />
    <glyph glyph-name="Q" unicode="Q" horiz-adv-x="684" 
d="M375 -74l-45 65c-173 4 -267 131 -267 356c0 107 25 191 75 252s118 91 205 91c179 0 277 -129 277 -357c0 -189 -82 -313 -223 -337l42 -42c41 -43 76 -62 133 -71l-47 -66c-53 0 -95 30 -150 109zM175 344c0 -197 60 -308 165 -308c109 0 168 104 168 300
c0 197 -61 307 -166 307c-111 0 -167 -100 -167 -299z" />
    <glyph glyph-name="R" unicode="R" horiz-adv-x="629" 
d="M377 302l90 -136c56 -87 92 -123 132 -131l-20 -45c-80 0 -139 36 -183 109l-113 184c-4 -1 -7 -1 -15 -1h-47v-234l66 -6v-42h-235v42l30 3c28 4 37 15 37 44v542l-67 6v43h204c179 0 273 -68 273 -193c0 -87 -56 -154 -152 -185zM221 324h31c108 0 169 58 169 159
c0 92 -69 152 -176 152h-24v-311z" />
    <glyph glyph-name="S" unicode="S" horiz-adv-x="514" 
d="M249 411l70 -33c111 -51 152 -106 152 -191c0 -125 -91 -197 -244 -197c-71 0 -143 15 -175 38l2 140h46l14 -106c32 -16 74 -26 113 -26c93 0 145 44 145 123c0 61 -34 101 -121 140l-69 32c-89 40 -132 98 -132 179c0 109 81 180 220 180c59 0 124 -13 153 -32l-2 -141
h-46l-15 106c-25 12 -61 20 -88 20c-80 0 -126 -40 -126 -107c0 -53 31 -92 103 -125z" />
    <glyph glyph-name="T" unicode="T" horiz-adv-x="562" 
d="M98 635l-11 -110h-47v155h482v-155h-48l-11 110h-131v-587l69 -6v-42h-241v42l30 3c29 4 40 16 40 44v546h-132z" />
    <glyph glyph-name="U" unicode="U" horiz-adv-x="685" 
d="M635 637l-29 -3c-28 -4 -37 -14 -37 -43v-347c0 -163 -80 -254 -220 -254c-155 0 -233 85 -233 254v387l-66 6v43h235v-43l-30 -3c-28 -4 -37 -15 -37 -43v-350c0 -132 52 -204 145 -204c99 0 152 71 152 206v388l-67 6v43h187v-43z" />
    <glyph glyph-name="V" unicode="V" horiz-adv-x="650" 
d="M635 637l-28 -3c-23 -3 -29 -10 -37 -33l-207 -601h-77l-220 631l-51 6v43h230v-43l-25 -3c-35 -4 -42 -15 -34 -39l163 -483l175 518l-67 7v43h178v-43z" />
    <glyph glyph-name="W" unicode="W" horiz-adv-x="967" 
d="M879 594l-162 -594h-81l-148 470l-155 -470h-85l-167 631l-56 6v43h237v-43l-25 -3c-33 -5 -41 -17 -34 -45l119 -478l165 509h53l157 -511l136 522l-66 6v43h179v-43l-28 -3c-23 -4 -31 -9 -39 -40z" />
    <glyph glyph-name="X" unicode="X" horiz-adv-x="625" 
d="M413 82l-128 208l-148 -242l60 -6v-42h-180v42l30 3c21 3 35 11 46 28l165 263l-180 295l-56 6v43h250v-43l-22 -3c-36 -5 -47 -17 -32 -40l117 -192l145 229l-61 6v43h175v-43l-25 -3c-24 -3 -36 -11 -51 -34l-157 -241l190 -311l56 -6v-42h-250v42l22 3
c35 4 46 16 34 37z" />
    <glyph glyph-name="Y" unicode="Y" horiz-adv-x="619" 
d="M356 262v-214l66 -6v-42h-235v42l30 3c28 4 37 15 37 44v175l-185 367l-55 6v43h241v-43l-22 -3c-36 -5 -44 -18 -32 -42l134 -271l154 310l-62 6v43h177v-43l-25 -3c-25 -4 -40 -14 -52 -37z" />
    <glyph glyph-name="Z" unicode="Z" horiz-adv-x="527" 
d="M418 44l12 122h47v-166h-427v52l321 583h-245l-12 -129h-47v174h407v-53l-321 -583h265z" />
    <glyph glyph-name="AE" unicode="&#xc6;" horiz-adv-x="849" 
d="M420 242v341l-188 -341h188zM84 75l337 605h375v-140h-47l-11 95h-216v-261h151l6 72h47v-188h-47l-6 72h-151v-286h216l12 103h47v-147h-430v42l16 3c31 7 37 14 37 38v115h-212l-82 -150l66 -6v-42h-175v42l28 3c19 3 28 9 39 30z" />
    <glyph glyph-name="OE" unicode="&#x152;" horiz-adv-x="907" 
d="M320 643c-104 0 -155 -100 -155 -299s54 -308 153 -308c108 0 155 85 156 284v22c-1 195 -55 301 -154 301zM474 600l2 80h374v-140h-48l-11 95h-215v-261h150l6 72h48v-188h-48l-6 72h-150v-286h221l11 103h47v-147h-381l2 82c-32 -60 -90 -92 -166 -92
c-163 0 -254 130 -254 357c0 106 23 190 69 251s108 92 185 92c69 0 127 -31 164 -90z" />
    <glyph glyph-name="Lslash" unicode="&#x141;" horiz-adv-x="546" 
d="M449 44l12 108h47v-152h-440v42l29 3c28 4 37 15 37 44v204l-82 -38v49l82 39v288l-66 6v43h235v-43l-30 -3c-28 -4 -37 -15 -37 -43v-200l122 57v-50l-122 -57v-297h213z" />
    <glyph glyph-name="Oslash" unicode="&#xd8;" horiz-adv-x="679" 
d="M590 680l-51 -77c51 -61 76 -151 76 -270c0 -107 -25 -191 -75 -252s-118 -91 -204 -91c-68 0 -123 19 -166 55l-30 -45h-52l51 76c-49 61 -76 155 -76 271c0 107 25 191 75 252c49 61 117 91 202 91c68 0 125 -19 168 -55l30 45h52zM339 643c-111 0 -167 -100 -167 -299
c0 -76 9 -141 25 -181l264 402c-28 52 -70 78 -122 78zM505 336c0 80 -8 141 -23 181l-265 -403c29 -52 69 -78 120 -78c109 0 168 104 168 300z" />
    <glyph glyph-name="Eth" unicode="&#xd0;" horiz-adv-x="668" 
d="M52 680h217c224 0 346 -117 346 -332c0 -228 -127 -348 -367 -348h-196v42l30 3c29 4 37 15 37 44v233h-67v44h67v265l-67 6v43zM340 366v-44h-119v-278h35c157 0 247 110 247 299c0 184 -87 292 -239 292h-43v-269h119z" />
    <glyph glyph-name="Thorn" unicode="&#xde;" horiz-adv-x="588" 
d="M282 637l-29 -3c-27 -4 -37 -13 -37 -33v-44h48c184 0 277 -71 277 -208c0 -145 -106 -227 -295 -227h-30v-74l66 -6v-42h-235v42l30 3c28 4 37 15 37 44v542l-67 6v43h235v-43zM250 512h-34v-345h34c116 0 184 65 184 176c0 109 -64 169 -184 169z" />
    <glyph glyph-name="a" unicode="a" horiz-adv-x="527" 
d="M148 455v-91l-49 -6l-22 111c37 31 104 50 169 50c121 0 187 -63 187 -183v-207c0 -63 13 -89 54 -101l-19 -38c-93 0 -122 30 -130 110c-43 -71 -100 -110 -164 -110c-77 0 -127 48 -127 125c0 80 46 125 185 164l101 30v18c0 99 -32 147 -97 147c-35 0 -61 -6 -88 -19z
M152 127c0 -49 25 -82 64 -82c47 0 88 39 117 108v119l-54 -16c-89 -27 -127 -65 -127 -129z" />
    <glyph glyph-name="b" unicode="b" horiz-adv-x="563" 
d="M50 680l-21 1v45l166 14v-267c33 31 70 46 117 46c125 0 200 -97 200 -261c0 -171 -85 -268 -234 -268c-73 0 -136 18 -183 50v612c0 20 -8 27 -45 28zM195 426v-356c19 -20 53 -33 86 -33c85 0 126 69 126 220c0 136 -41 210 -118 210c-36 0 -69 -14 -94 -41z" />
    <glyph glyph-name="c" unicode="c" horiz-adv-x="464" 
d="M396 121l32 -18c-33 -76 -89 -113 -172 -113c-132 0 -207 94 -207 258c0 173 85 271 229 271c60 0 108 -15 149 -47l-23 -115l-48 4v93c-20 12 -42 18 -70 18c-87 0 -131 -73 -131 -217s41 -213 125 -213c51 0 91 27 116 79z" />
    <glyph glyph-name="d" unicode="d" horiz-adv-x="561" 
d="M521 27l-19 -37c-71 0 -112 22 -124 63c-36 -43 -79 -63 -131 -63c-124 0 -196 96 -196 265c0 167 82 264 222 264c32 0 64 -7 95 -19v146c0 25 -8 33 -45 34l-21 1l5 45l160 14v-607c0 -65 13 -93 54 -106zM280 473c-83 0 -125 -74 -125 -219c0 -135 45 -212 117 -212
c39 0 70 16 97 49c-1 8 -1 17 -1 38v314c-28 20 -57 30 -88 30z" />
    <glyph glyph-name="e" unicode="e" horiz-adv-x="514" 
d="M419 119l30 -19c-33 -71 -96 -110 -172 -110c-149 0 -228 94 -228 269c0 80 20 143 61 190s93 70 158 70c123 0 196 -87 196 -227c0 -8 -1 -14 -2 -39h-310v-10c3 -136 50 -203 141 -203c49 0 97 28 126 79zM266 474c-68 0 -108 -64 -113 -183h212
c-3 117 -38 183 -99 183z" />
    <glyph glyph-name="f" unicode="f" horiz-adv-x="338" 
d="M284 740c36 0 67 -7 82 -18l-20 -113l-46 4v75c-7 3 -15 5 -24 5c-49 0 -76 -50 -76 -147v-37h112v-43h-112v-420l85 -5v-41h-250v40l29 3c27 4 36 13 36 44v379h-70v43h70v15c0 137 67 216 184 216z" />
    <glyph glyph-name="g" unicode="g" horiz-adv-x="498" 
d="M236 474c-52 0 -85 -47 -85 -123c0 -80 31 -126 84 -126s84 43 84 120c0 83 -31 129 -83 129zM237 519c29 0 54 -5 77 -13c45 1 87 8 138 21l9 -52c-24 -7 -52 -9 -95 -6c32 -29 49 -70 49 -121c0 -104 -72 -168 -181 -168c-21 0 -41 3 -58 7c-21 -13 -32 -31 -32 -50
c0 -29 22 -44 65 -44h94c117 0 175 -41 175 -128c0 -56 -24 -101 -72 -135c-49 -33 -112 -50 -190 -50c-113 0 -181 46 -181 125c0 49 35 95 94 120c-32 13 -51 42 -51 77c0 36 22 68 66 95c-57 25 -89 78 -89 150c0 105 74 172 182 172zM167 11c-43 -24 -62 -53 -62 -88
c0 -61 45 -97 124 -97c51 0 94 11 129 33c34 22 51 50 51 84c0 47 -32 67 -101 67h-112c-16 0 -22 0 -29 1z" />
    <glyph glyph-name="h" unicode="h" horiz-adv-x="605" 
d="M55 681l-20 2v43l165 14v-286c32 40 86 65 142 65c105 0 165 -62 165 -173v-300l66 -6v-40h-226v40l30 3c23 3 31 13 31 44v262c0 76 -33 116 -97 116c-43 0 -83 -21 -111 -60v-359l60 -6v-40h-225v40l29 3c28 4 36 13 36 44v556c0 28 -8 35 -45 38z" />
    <glyph glyph-name="i" unicode="i" horiz-adv-x="300" 
d="M207 657c0 -32 -26 -58 -58 -58s-58 26 -58 58s26 57 58 57s58 -25 58 -57zM202 509v-463l66 -5v-41h-231v40l30 3c27 4 36 15 36 44v346c0 23 -9 32 -36 33l-30 3v40h165z" />
    <glyph glyph-name="j" unicode="j" horiz-adv-x="282" 
d="M142 714c32 0 58 -26 58 -57c0 -32 -26 -58 -58 -58c-31 0 -57 26 -57 58c0 31 26 57 57 57zM32 469v40h165v-510c0 -104 -44 -178 -131 -219l-43 28c53 35 75 86 75 185v440c0 23 -9 32 -36 33z" />
    <glyph glyph-name="k" unicode="k" horiz-adv-x="543" 
d="M55 680l-20 1v45l165 14v-438h61l117 161l-62 5v41h186v-40l-28 -3c-20 -3 -27 -8 -46 -33l-104 -138l89 -147c30 -50 51 -81 64 -92s28 -19 46 -24l-22 -42c-81 3 -123 31 -170 112l-86 148h-45v-204l65 -5v-41h-230v40l29 3c28 4 36 13 36 44v556c0 28 -8 36 -45 37z
" />
    <glyph glyph-name="l" unicode="l" horiz-adv-x="296" 
d="M200 740v-694l64 -6v-40h-229v40l29 3c28 4 36 13 36 44v559c0 25 -8 33 -45 34l-20 1v45z" />
    <glyph glyph-name="m" unicode="m" horiz-adv-x="896" 
d="M173 509l23 -63c33 45 86 73 145 73c68 0 115 -27 139 -79c37 49 96 79 157 79c104 0 161 -61 161 -173v-300l66 -6v-40h-225v40l30 3c21 3 29 12 29 44v262c0 76 -30 116 -86 116c-48 0 -94 -28 -117 -69c3 -16 5 -34 5 -50v-300l59 -6v-40h-218v40l30 3
c21 3 29 12 29 44v262c0 75 -32 116 -88 116c-44 0 -81 -21 -110 -61v-358l59 -6v-40h-224v40l30 3c27 4 36 15 36 44v328c0 28 -6 35 -45 38l-21 1v44z" />
    <glyph glyph-name="n" unicode="n" horiz-adv-x="608" 
d="M202 405v-359l60 -6v-40h-225v40l30 3c27 4 36 15 36 44v328c0 28 -6 35 -45 38l-21 1v44l136 11l23 -63c32 44 90 73 147 73c107 0 167 -62 167 -173v-300l65 -6v-40h-225v40l30 3c23 3 30 12 30 44v262c0 76 -33 116 -96 116c-44 0 -84 -21 -112 -60z" />
    <glyph glyph-name="o" unicode="o" horiz-adv-x="534" 
d="M483 249c0 -79 -20 -142 -60 -189c-41 -47 -93 -70 -158 -70c-136 0 -214 98 -214 269c0 80 20 143 60 190c39 47 92 70 157 70c137 0 215 -99 215 -270zM155 256c0 -139 42 -221 111 -221c75 0 112 73 112 217s-39 222 -111 222c-75 0 -112 -74 -112 -218z" />
    <glyph glyph-name="p" unicode="p" horiz-adv-x="568" 
d="M200 426v-361c28 -19 58 -28 89 -28c83 0 123 70 123 218c0 136 -42 212 -118 212c-36 0 -69 -14 -94 -41zM320 519c123 0 197 -97 197 -262c0 -169 -86 -267 -234 -267c-25 0 -55 5 -83 13v-166l69 -6v-41h-234v41l29 3c28 4 36 13 36 44v537c0 28 -6 35 -45 38l-20 1
v44l136 11l17 -52c39 43 80 62 132 62z" />
    <glyph glyph-name="q" unicode="q" horiz-adv-x="557" 
d="M289 519c71 0 130 -16 179 -49v-633l64 -6v-41h-234v41l29 3c31 4 41 15 41 44v162c-33 -33 -72 -50 -119 -50c-124 0 -198 96 -198 264s86 265 238 265zM283 473c-83 0 -128 -76 -128 -219c0 -133 44 -212 116 -212c37 0 70 19 97 52v348c-29 21 -56 31 -85 31z" />
    <glyph glyph-name="r" unicode="r" horiz-adv-x="415" 
d="M202 409v-363l71 -6v-40h-236v40l30 3c27 4 36 15 36 44v329c0 27 -6 34 -45 37l-21 1v44l136 11l23 -65c35 45 88 74 141 75c17 1 34 -3 47 -10l-22 -130l-48 5v72c-45 -1 -81 -16 -112 -47z" />
    <glyph glyph-name="s" unicode="s" horiz-adv-x="427" 
d="M387 143c0 -92 -71 -153 -188 -153c-57 0 -122 14 -153 34l3 119h47l14 -88c24 -12 53 -19 81 -19c68 0 103 29 103 82c0 21 -7 39 -20 54s-44 33 -93 56c-54 25 -89 49 -106 71c-17 21 -26 47 -26 78c0 85 73 142 185 142c51 0 103 -11 132 -28l-13 -117h-47l-3 85
c-23 9 -45 14 -69 14c-61 0 -95 -26 -95 -74c0 -28 11 -46 42 -65c9 -5 34 -17 75 -36c93 -44 131 -90 131 -155z" />
    <glyph glyph-name="t" unicode="t" horiz-adv-x="355" 
d="M28 466v43h70v105l99 34v-139h120v-43h-120v-268c0 -104 34 -148 130 -168l-35 -40c-129 3 -194 66 -194 191v285h-70z" />
    <glyph glyph-name="u" unicode="u" horiz-adv-x="579" 
d="M347 466l-30 3v40h165v-387c0 -56 14 -82 54 -94l-19 -38c-76 0 -114 20 -127 69c-33 -47 -80 -69 -143 -69c-96 0 -154 65 -154 173v264c0 25 -9 35 -36 39l-30 3v40h165v-349c0 -76 34 -116 94 -116c37 0 68 19 97 59v324c0 25 -9 35 -36 39z" />
    <glyph glyph-name="v" unicode="v" horiz-adv-x="503" 
d="M273 85l112 377l-62 6v41h167v-41l-26 -3c-19 -3 -27 -8 -32 -29l-140 -436h-78l-156 464l-51 4v41h144z" />
    <glyph glyph-name="w" unicode="w" horiz-adv-x="779" 
d="M706 426l-122 -426h-79l-105 404c-27 -103 -64 -229 -123 -404h-78l-138 464l-54 4v41h148l105 -427c41 138 69 236 84 295c15 58 23 102 25 132h90l106 -425l95 377v1l-62 6v41h169v-41l-24 -2c-23 -3 -29 -8 -37 -40z" />
    <glyph glyph-name="x" unicode="x" horiz-adv-x="513" 
d="M310 79l-88 143l-105 -175l50 -6v-41h-150v41l26 3c15 1 24 9 39 32l115 186l-123 201l-49 5v41h235v-40l-29 -3c-25 -4 -37 -18 -26 -37l83 -134l96 167l-50 6v41h150v-41l-26 -3c-17 -1 -25 -7 -32 -20l-115 -188l130 -211l55 -5v-41h-244v40l29 3c27 4 40 19 29 36z
" />
    <glyph glyph-name="y" unicode="y" horiz-adv-x="505" 
d="M432 429l-154 -450c-39 -115 -80 -176 -133 -199l-31 34c55 33 86 77 119 169l-170 481l-56 4v41h148l122 -403l111 356l-62 6v41h166v-41l-24 -3c-20 -3 -27 -9 -36 -36z" />
    <glyph glyph-name="z" unicode="z" horiz-adv-x="433" 
d="M387 475l-238 -432h181l14 97h48v-140h-351v34l238 432h-163l-14 -97h-48v140h333v-34z" />
    <glyph glyph-name="ae" unicode="&#xe6;" horiz-adv-x="794" 
d="M700 119l29 -19c-32 -71 -95 -110 -172 -110c-101 0 -171 45 -203 129c-47 -81 -112 -129 -180 -129c-77 0 -127 48 -127 125c0 80 46 125 185 164l101 30v15c0 100 -33 150 -97 150c-35 0 -61 -6 -88 -19v-91l-49 -6l-22 111c37 31 104 50 169 50c73 0 124 -25 152 -73
c31 47 86 73 150 73c123 0 197 -87 197 -227c0 -12 0 -24 -3 -39h-309v-10c4 -136 49 -201 140 -201c51 0 98 28 127 77zM546 472c-68 0 -107 -64 -112 -181h211c-1 115 -36 181 -99 181zM333 273l-54 -17c-91 -28 -127 -65 -127 -129c0 -49 25 -82 64 -82
c43 0 86 35 127 104c-7 28 -10 59 -10 88v36z" />
    <glyph glyph-name="oe" unicode="&#x153;" horiz-adv-x="844" 
d="M749 119l29 -19c-32 -71 -95 -110 -172 -110c-83 0 -141 31 -177 92c-35 -59 -95 -92 -164 -92c-136 0 -214 98 -214 269c0 80 20 143 60 190c39 47 92 70 157 70c73 0 129 -31 164 -91c32 57 93 91 165 91c123 0 197 -87 197 -227c0 -12 0 -24 -3 -39h-309v-10
c3 -136 49 -203 140 -203c49 0 96 28 127 79zM595 474c-67 0 -108 -64 -113 -183h212c-1 116 -36 183 -99 183zM155 256c0 -139 42 -221 111 -221c73 0 112 74 112 217c0 144 -39 222 -111 222c-75 0 -112 -73 -112 -218z" />
    <glyph glyph-name="lslash" unicode="&#x142;" horiz-adv-x="298" 
d="M202 367v-321l64 -6v-40h-230v40l30 3c28 4 36 13 36 44v233l-63 -30v50l63 30v276c0 25 -8 33 -45 34l-21 1v45l166 14v-323l64 30v-50z" />
    <glyph glyph-name="oslash" unicode="&#xf8;" horiz-adv-x="534" 
d="M469 509l-43 -61c37 -48 57 -116 57 -199c0 -79 -20 -142 -60 -189c-41 -47 -93 -70 -158 -70c-55 0 -99 15 -132 44l-23 -34h-43l42 59c-39 47 -58 116 -58 200c0 80 20 143 60 190c39 47 92 70 157 70c53 0 97 -15 132 -46l26 36h43zM267 474c-75 0 -112 -73 -112 -218
c0 -49 4 -88 12 -113l186 263c-19 45 -47 68 -86 68zM367 363l-186 -261c20 -44 49 -67 85 -67c75 0 112 73 112 217c0 48 -4 87 -11 111z" />
    <glyph glyph-name="eth" unicode="&#xf0;" horiz-adv-x="533" 
d="M227 587l51 50c-24 25 -53 45 -84 58l16 29c39 -11 67 -25 103 -50l40 41l22 -22l-37 -37c89 -80 144 -213 144 -352c0 -199 -83 -314 -218 -314c-136 0 -215 98 -215 269c0 79 20 143 60 190c39 47 91 70 154 70c48 0 87 -17 118 -53c-19 60 -46 109 -83 150l-50 -50z
M154 256c0 -139 42 -221 111 -221c75 0 112 75 112 223c0 139 -40 216 -111 216c-75 0 -112 -71 -112 -218z" />
    <glyph glyph-name="thorn" unicode="&#xfe;" horiz-adv-x="561" 
d="M405 255c0 136 -42 212 -118 212c-36 0 -69 -14 -94 -41v-361c28 -19 58 -28 89 -28c83 0 123 70 123 218zM193 3v-166l64 -6v-41h-230v41l30 3c28 4 36 13 36 44v768c0 25 -8 33 -45 34l-21 1v45l166 14v-271c33 33 73 50 120 50c124 0 197 -97 197 -262
c0 -169 -86 -267 -234 -267c-25 0 -55 5 -83 13z" />
    <glyph glyph-name="germandbls" unicode="&#xdf;" horiz-adv-x="592" 
d="M245 22l3 119h48l13 -87c17 -11 41 -17 68 -17c52 0 84 34 84 87c0 44 -21 73 -76 105l-34 21c-57 35 -87 72 -87 111c0 14 4 28 11 41s24 34 53 64c39 40 50 65 50 124c0 63 -34 102 -87 102c-68 0 -107 -67 -107 -184v-508h-165v40l30 3c27 4 36 15 36 44v411
c0 148 80 242 215 242c105 0 173 -55 173 -128c0 -21 -4 -41 -13 -59c-9 -19 -30 -43 -61 -72c-24 -22 -39 -38 -45 -47c-7 -10 -10 -21 -10 -33c0 -29 18 -52 89 -96l31 -20c75 -48 98 -84 98 -144c0 -92 -66 -151 -175 -151c-51 0 -114 13 -142 32z" />
    <glyph glyph-name="dotlessi" unicode="&#x131;" horiz-adv-x="291" 
d="M193 509v-463l65 -5v-41h-231v40l30 3c28 4 36 13 36 44v346c0 24 -9 32 -36 33l-30 3v40h166z" />
    <glyph glyph-name="dotlessj" unicode="&#x237;" horiz-adv-x="286" 
d="M64 466l-29 3v40h165v-510c0 -104 -44 -178 -132 -219l-42 28c53 35 74 85 74 185v440c0 24 -9 32 -36 33z" />
    <glyph glyph-name="Aacute" unicode="&#xc1;" horiz-adv-x="651" 
d="M405 244l-105 326l-107 -326h212zM455 88l-36 111h-240l-49 -151l66 -6v-42h-176v42l28 3c24 3 32 11 41 42l197 593h80l212 -632l51 -6v-42h-232v42l25 3c36 5 41 15 33 43zM397 918l59 -57c-48 -40 -104 -75 -165 -106l-22 24c51 48 96 96 128 139z" />
    <glyph glyph-name="Acircumflex" unicode="&#xc2;" horiz-adv-x="651" 
d="M405 244l-105 326l-107 -326h212zM455 88l-36 111h-240l-49 -151l66 -6v-42h-176v42l28 3c24 3 32 11 41 42l197 593h80l212 -632l51 -6v-42h-232v42l25 3c36 5 41 15 33 43zM193 755l-22 24c57 56 92 95 124 138h44c29 -40 61 -77 124 -138l-22 -24
c-36 21 -71 42 -124 81c-37 -27 -76 -52 -124 -81z" />
    <glyph glyph-name="Adieresis" unicode="&#xc4;" horiz-adv-x="651" 
d="M405 244l-105 326l-107 -326h212zM455 88l-36 111h-240l-49 -151l66 -6v-42h-176v42l28 3c24 3 32 11 41 42l197 593h80l212 -632l51 -6v-42h-232v42l25 3c36 5 41 15 33 43zM285 837c0 -32 -26 -58 -57 -58c-32 0 -58 26 -58 58c0 31 26 57 58 57c31 0 57 -26 57 -57z
M465 837c0 -32 -26 -58 -58 -58c-31 0 -57 26 -57 58c0 31 26 57 57 57c32 0 58 -26 58 -57z" />
    <glyph glyph-name="Agrave" unicode="&#xc0;" horiz-adv-x="651" 
d="M405 244l-105 326l-107 -326h212zM455 88l-36 111h-240l-49 -151l66 -6v-42h-176v42l28 3c24 3 32 11 41 42l197 593h80l212 -632l51 -6v-42h-232v42l25 3c36 5 41 15 33 43zM378 779l-22 -24c-61 31 -117 66 -165 106l59 57c32 -43 77 -91 128 -139z" />
    <glyph glyph-name="Aring" unicode="&#xc5;" horiz-adv-x="651" 
d="M405 244l-105 326l-107 -326h212zM455 88l-36 111h-240l-49 -151l66 -6v-42h-176v42l28 3c24 3 32 11 41 42l197 593h80l212 -632l51 -6v-42h-232v42l25 3c36 5 41 15 33 43zM433 846c0 -61 -50 -112 -113 -112c-61 0 -112 51 -112 112s51 112 112 112
c31 0 57 -11 80 -33c22 -22 33 -48 33 -79zM272 846c0 -44 19 -72 48 -72s48 28 48 72c0 43 -19 71 -48 71c-28 0 -48 -28 -48 -71z" />
    <glyph glyph-name="Atilde" unicode="&#xc3;" horiz-adv-x="651" 
d="M405 244l-105 326l-107 -326h212zM455 88l-36 111h-240l-49 -151l66 -6v-42h-176v42l28 3c24 3 32 11 41 42l197 593h80l212 -632l51 -6v-42h-232v42l25 3c36 5 41 15 33 43zM265 807c-24 0 -46 -10 -63 -29l-28 18c25 56 56 81 97 81c19 0 33 -3 64 -18s43 -18 62 -18
c23 0 41 12 53 33l29 -16c-21 -61 -50 -89 -89 -89c-20 0 -36 4 -67 20c-28 15 -41 18 -58 18z" />
    <glyph glyph-name="Abreve" unicode="&#x102;" horiz-adv-x="651" 
d="M405 244l-105 326l-107 -326h212zM455 88l-36 111h-240l-49 -151l66 -6v-42h-176v42l28 3c24 3 32 11 41 42l197 593h80l212 -632l51 -6v-42h-232v42l25 3c36 5 41 15 33 43zM196 885h74c0 -61 18 -92 54 -92c35 0 53 31 53 92h74c0 -81 -47 -132 -127 -132
s-128 51 -128 132z" />
    <glyph glyph-name="Amacron" unicode="&#x100;" horiz-adv-x="651" 
d="M405 244l-105 326l-107 -326h212zM455 88l-36 111h-240l-49 -151l66 -6v-42h-176v42l28 3c24 3 32 11 41 42l197 593h80l212 -632l51 -6v-42h-232v42l25 3c36 5 41 15 33 43zM445 852v-56h-265v56h265z" />
    <glyph glyph-name="Aogonek" unicode="&#x104;" horiz-adv-x="651" 
d="M558 -146l29 -17c-24 -49 -59 -72 -108 -72c-63 0 -103 37 -103 96c0 53 34 98 107 139h-86v42l25 3c36 5 41 15 33 43l-36 111h-240l-49 -151l66 -6v-42h-176v42l28 3c24 3 32 11 41 42l197 593h80l212 -632l51 -6v-42h-49c-33 0 -62 -14 -87 -41s-38 -56 -38 -89
c0 -37 19 -61 48 -61c25 0 42 13 55 45zM300 570l-107 -326h212z" />
    <glyph glyph-name="Ccedilla" unicode="&#xc7;" horiz-adv-x="579" 
d="M351 -52c53 0 87 -30 87 -78c0 -65 -47 -105 -120 -105c-43 0 -79 15 -107 44l24 25c20 -20 43 -30 67 -30c36 0 57 21 57 60c0 35 -19 52 -58 52c-9 0 -20 0 -32 -3l16 81c-145 23 -226 149 -226 353c0 106 26 190 79 251s124 92 214 92c68 0 136 -19 173 -50l-23 -131
l-47 4v109c-24 13 -57 20 -94 20c-123 0 -192 -111 -192 -298c0 -89 17 -161 51 -216s79 -83 136 -83c61 0 115 30 150 82l33 -23c-49 -75 -117 -113 -205 -114l-7 -44c9 1 16 2 24 2z" />
    <glyph glyph-name="Cacute" unicode="&#x106;" horiz-adv-x="579" 
d="M506 127l33 -23c-48 -75 -117 -114 -202 -114c-179 0 -278 129 -278 357c0 106 27 190 80 251s124 92 213 92c68 0 136 -19 173 -50l-23 -131l-47 4v109c-24 13 -57 20 -94 20c-123 0 -192 -111 -192 -298c0 -89 17 -161 51 -216s79 -83 136 -83c61 0 115 30 150 82z
M386 918l59 -57c-48 -40 -104 -75 -165 -106l-22 24c51 48 96 96 128 139z" />
    <glyph glyph-name="Ccaron" unicode="&#x10c;" horiz-adv-x="579" 
d="M506 127l33 -23c-48 -75 -117 -114 -202 -114c-179 0 -278 129 -278 357c0 106 27 190 80 251s124 92 213 92c68 0 136 -19 173 -50l-23 -131l-47 4v109c-24 13 -57 20 -94 20c-123 0 -192 -111 -192 -298c0 -89 17 -161 51 -216s79 -83 136 -83c61 0 115 30 150 82z
M184 892l22 25c45 -28 83 -53 124 -82c41 29 79 54 124 82l22 -25c-55 -52 -91 -93 -124 -137h-44c-31 43 -65 81 -124 137z" />
    <glyph glyph-name="Ccircumflex" unicode="&#x108;" horiz-adv-x="579" 
d="M506 127l33 -23c-48 -75 -117 -114 -202 -114c-179 0 -278 129 -278 357c0 106 27 190 80 251s124 92 213 92c68 0 136 -19 173 -50l-23 -131l-47 4v109c-24 13 -57 20 -94 20c-123 0 -192 -111 -192 -298c0 -89 17 -161 51 -216s79 -83 136 -83c61 0 115 30 150 82z
M204 755l-22 24c57 56 92 95 124 138h44c29 -40 61 -77 124 -138l-22 -24c-36 21 -71 42 -124 81c-37 -27 -76 -52 -124 -81z" />
    <glyph glyph-name="Cdotaccent" unicode="&#x10a;" horiz-adv-x="579" 
d="M506 127l33 -23c-48 -75 -117 -114 -202 -114c-179 0 -278 129 -278 357c0 106 27 190 80 251s124 92 213 92c68 0 136 -19 173 -50l-23 -131l-47 4v109c-24 13 -57 20 -94 20c-123 0 -192 -111 -192 -298c0 -89 17 -161 51 -216s79 -83 136 -83c61 0 115 30 150 82z
M397 837c0 -33 -26 -59 -58 -59c-33 0 -59 26 -59 59c0 32 26 58 59 58c32 0 58 -26 58 -58z" />
    <glyph glyph-name="Dcaron" unicode="&#x10e;" horiz-adv-x="672" 
d="M615 348c0 -228 -127 -348 -367 -348h-196v42l30 3c29 4 37 15 37 44v542l-67 6v43h217c224 0 346 -117 346 -332zM221 44h35c157 0 247 110 247 299c0 184 -87 292 -239 292h-43v-591zM155 892l22 25c45 -28 83 -53 124 -82c41 29 79 54 124 82l22 -25
c-55 -52 -91 -93 -124 -137h-44c-31 43 -65 81 -124 137z" />
    <glyph glyph-name="Dcroat" unicode="&#x110;" horiz-adv-x="672" 
d="M52 680h217c224 0 346 -117 346 -332c0 -228 -127 -348 -367 -348h-196v42l30 3c29 4 37 15 37 44v233h-67v44h67v265l-67 6v43zM340 366v-44h-119v-278h35c157 0 247 110 247 299c0 184 -87 292 -239 292h-43v-269h119z" />
    <glyph glyph-name="Eacute" unicode="&#xc9;" horiz-adv-x="558" 
d="M458 147h47v-147h-453v42l30 3c29 4 37 15 37 44v542l-67 6v43h443v-140h-48l-11 95h-215v-261h150l6 72h48v-188h-48l-6 72h-150v-286h225zM339 918l59 -57c-48 -40 -104 -75 -165 -106l-22 24c51 48 96 96 128 139z" />
    <glyph glyph-name="Ecircumflex" unicode="&#xca;" horiz-adv-x="558" 
d="M458 147h47v-147h-453v42l30 3c29 4 37 15 37 44v542l-67 6v43h443v-140h-48l-11 95h-215v-261h150l6 72h48v-188h-48l-6 72h-150v-286h225zM163 755l-22 24c57 56 92 95 124 138h44c29 -40 61 -77 124 -138l-22 -24c-36 21 -71 42 -124 81c-37 -27 -76 -52 -124 -81z
" />
    <glyph glyph-name="Edieresis" unicode="&#xcb;" horiz-adv-x="558" 
d="M458 147h47v-147h-453v42l30 3c29 4 37 15 37 44v542l-67 6v43h443v-140h-48l-11 95h-215v-261h150l6 72h48v-188h-48l-6 72h-150v-286h225zM255 837c0 -32 -26 -58 -57 -58c-32 0 -58 26 -58 58c0 31 26 57 58 57c31 0 57 -26 57 -57zM435 837c0 -32 -26 -58 -58 -58
c-31 0 -57 26 -57 58c0 31 26 57 57 57c32 0 58 -26 58 -57z" />
    <glyph glyph-name="Egrave" unicode="&#xc8;" horiz-adv-x="558" 
d="M458 147h47v-147h-453v42l30 3c29 4 37 15 37 44v542l-67 6v43h443v-140h-48l-11 95h-215v-261h150l6 72h48v-188h-48l-6 72h-150v-286h225zM369 779l-22 -24c-61 31 -117 66 -165 106l59 57c32 -43 77 -91 128 -139z" />
    <glyph glyph-name="Ebreve" unicode="&#x114;" horiz-adv-x="558" 
d="M458 147h47v-147h-453v42l30 3c29 4 37 15 37 44v542l-67 6v43h443v-140h-48l-11 95h-215v-261h150l6 72h48v-188h-48l-6 72h-150v-286h225zM160 885h74c0 -61 18 -92 54 -92c35 0 53 31 53 92h74c0 -81 -47 -132 -127 -132s-128 51 -128 132z" />
    <glyph glyph-name="Ecaron" unicode="&#x11a;" horiz-adv-x="558" 
d="M458 147h47v-147h-453v42l30 3c29 4 37 15 37 44v542l-67 6v43h443v-140h-48l-11 95h-215v-261h150l6 72h48v-188h-48l-6 72h-150v-286h225zM144 892l22 25c45 -28 83 -53 124 -82c41 29 79 54 124 82l22 -25c-55 -52 -91 -93 -124 -137h-44c-31 43 -65 81 -124 137z" />
    <glyph glyph-name="Edotaccent" unicode="&#x116;" horiz-adv-x="558" 
d="M458 147h47v-147h-453v42l30 3c29 4 37 15 37 44v542l-67 6v43h443v-140h-48l-11 95h-215v-261h150l6 72h48v-188h-48l-6 72h-150v-286h225zM346 837c0 -33 -26 -59 -58 -59c-33 0 -59 26 -59 59c0 32 26 58 59 58c32 0 58 -26 58 -58z" />
    <glyph glyph-name="Emacron" unicode="&#x112;" horiz-adv-x="558" 
d="M458 147h47v-147h-453v42l30 3c29 4 37 15 37 44v542l-67 6v43h443v-140h-48l-11 95h-215v-261h150l6 72h48v-188h-48l-6 72h-150v-286h225zM416 852v-56h-265v56h265z" />
    <glyph glyph-name="Eogonek" unicode="&#x118;" horiz-adv-x="558" 
d="M403 -191c25 0 42 13 55 45l29 -17c-24 -49 -59 -72 -108 -72c-63 0 -103 38 -103 95c0 56 44 107 120 140h-344v42l30 3c29 4 37 15 37 44v542l-67 6v43h443v-140h-48l-11 95h-215v-261h150l6 72h48v-188h-48l-6 72h-150v-286h225l12 103h47v-147h-19
c-33 0 -63 -14 -90 -41s-41 -57 -41 -89c0 -37 19 -61 48 -61z" />
    <glyph glyph-name="Gbreve" unicode="&#x11e;" horiz-adv-x="643" 
d="M496 506v114c-25 15 -61 22 -105 22c-148 0 -222 -99 -222 -298c0 -191 70 -299 193 -299c47 0 84 11 116 32v191l-106 4v42h203v-269c-61 -36 -133 -55 -216 -55c-195 0 -300 126 -300 357c0 216 121 343 322 343c76 0 149 -20 185 -52l-24 -136zM228 885h74
c0 -61 18 -92 54 -92c35 0 53 31 53 92h74c0 -81 -47 -132 -127 -132s-128 51 -128 132z" />
    <glyph glyph-name="Gcircumflex" unicode="&#x11c;" horiz-adv-x="643" 
d="M496 506v114c-25 15 -61 22 -105 22c-148 0 -222 -99 -222 -298c0 -191 70 -299 193 -299c47 0 84 11 116 32v191l-106 4v42h203v-269c-61 -36 -133 -55 -216 -55c-195 0 -300 126 -300 357c0 216 121 343 322 343c76 0 149 -20 185 -52l-24 -136zM230 755l-22 24
c57 56 92 95 124 138h44c29 -40 61 -77 124 -138l-22 -24c-36 21 -71 42 -124 81c-37 -27 -76 -52 -124 -81z" />
    <glyph glyph-name="Gcommaaccent" unicode="&#x122;" horiz-adv-x="643" 
d="M496 506v114c-25 15 -61 22 -105 22c-148 0 -222 -99 -222 -298c0 -191 70 -299 193 -299c47 0 84 11 116 32v191l-106 4v42h203v-269c-61 -36 -133 -55 -216 -55c-195 0 -300 126 -300 357c0 216 121 343 322 343c76 0 149 -20 185 -52l-24 -136zM382 -136
c-5 -1 -11 -3 -15 -3c-27 0 -41 16 -41 44c0 29 22 51 53 51c33 0 51 -24 51 -67c0 -41 -20 -83 -56 -118h-33c25 32 38 61 41 93z" />
    <glyph glyph-name="Gdotaccent" unicode="&#x120;" horiz-adv-x="643" 
d="M496 506v114c-25 15 -61 22 -105 22c-148 0 -222 -99 -222 -298c0 -191 70 -299 193 -299c47 0 84 11 116 32v191l-106 4v42h203v-269c-61 -36 -133 -55 -216 -55c-195 0 -300 126 -300 357c0 216 121 343 322 343c76 0 149 -20 185 -52l-24 -136zM411 837
c0 -33 -26 -59 -58 -59c-33 0 -59 26 -59 59c0 32 26 58 59 58c32 0 58 -26 58 -58z" />
    <glyph glyph-name="Hbar" unicode="&#x126;" horiz-adv-x="740" 
d="M519 380v107h-298v-107h298zM519 336h-298v-288l67 -6v-42h-236v42l30 3c29 4 37 13 37 44v398h-67v45h67v99l-67 6v43h236v-43l-30 -3c-28 -4 -37 -15 -37 -43v-59h298v99l-66 6v43h235v-43l-30 -3c-28 -4 -37 -15 -37 -43v-59h64v-45h-64v-439l67 -6v-42h-235v42l29 3
c29 4 37 13 37 44v247z" />
    <glyph glyph-name="Hcircumflex" unicode="&#x124;" horiz-adv-x="740" 
d="M221 336v-288l66 -6v-42h-235v42l30 3c29 4 37 15 37 44v542l-67 6v43h235v-43l-29 -3c-28 -4 -37 -14 -37 -43v-211h298v251l-67 6v43h235v-43l-29 -3c-28 -4 -37 -14 -37 -43v-543l66 -6v-42h-235v42l30 3c29 4 37 15 37 44v247h-298zM240 755l-22 24
c57 56 92 95 124 138h44c29 -40 61 -77 124 -138l-22 -24c-36 21 -71 42 -124 81c-37 -27 -76 -52 -124 -81z" />
    <glyph glyph-name="Iacute" unicode="&#xcd;" horiz-adv-x="340" 
d="M221 591v-543l66 -6v-42h-235v42l30 3c29 4 37 15 37 44v542l-67 6v43h235v-43l-29 -3c-28 -4 -37 -14 -37 -43zM224 918l59 -57c-48 -40 -104 -75 -165 -106l-22 24c51 48 96 96 128 139z" />
    <glyph glyph-name="Icircumflex" unicode="&#xce;" horiz-adv-x="340" 
d="M221 591v-543l66 -6v-42h-235v42l30 3c29 4 37 15 37 44v542l-67 6v43h235v-43l-29 -3c-28 -4 -37 -14 -37 -43zM41 755l-22 24c57 56 92 95 124 138h44c29 -40 61 -77 124 -138l-22 -24c-36 21 -71 42 -124 81c-37 -27 -76 -52 -124 -81z" />
    <glyph glyph-name="Idieresis" unicode="&#xcf;" horiz-adv-x="340" 
d="M221 591v-543l66 -6v-42h-235v42l30 3c29 4 37 15 37 44v542l-67 6v43h235v-43l-29 -3c-28 -4 -37 -14 -37 -43zM137 837c0 -32 -26 -58 -57 -58c-32 0 -58 26 -58 58c0 31 26 57 58 57c31 0 57 -26 57 -57zM317 837c0 -32 -26 -58 -58 -58c-31 0 -57 26 -57 58
c0 31 26 57 57 57c32 0 58 -26 58 -57z" />
    <glyph glyph-name="Igrave" unicode="&#xcc;" horiz-adv-x="340" 
d="M221 591v-543l66 -6v-42h-235v42l30 3c29 4 37 15 37 44v542l-67 6v43h235v-43l-29 -3c-28 -4 -37 -14 -37 -43zM251 779l-22 -24c-61 31 -117 66 -165 106l59 57c32 -43 77 -91 128 -139z" />
    <glyph glyph-name="Ibreve" unicode="&#x12c;" horiz-adv-x="340" 
d="M221 591v-543l66 -6v-42h-235v42l30 3c29 4 37 15 37 44v542l-67 6v43h235v-43l-29 -3c-28 -4 -37 -14 -37 -43zM42 885h74c0 -61 18 -92 54 -92c35 0 53 31 53 92h74c0 -81 -47 -132 -127 -132s-128 51 -128 132z" />
    <glyph glyph-name="Idot" unicode="&#x130;" horiz-adv-x="340" 
d="M221 591v-543l66 -6v-42h-235v42l30 3c29 4 37 15 37 44v542l-67 6v43h235v-43l-29 -3c-28 -4 -37 -14 -37 -43zM229 837c0 -33 -26 -59 -58 -59c-33 0 -59 26 -59 59c0 32 26 58 59 58c32 0 58 -26 58 -58z" />
    <glyph glyph-name="Imacron" unicode="&#x12a;" horiz-adv-x="340" 
d="M221 591v-543l66 -6v-42h-235v42l30 3c29 4 37 15 37 44v542l-67 6v43h235v-43l-29 -3c-28 -4 -37 -14 -37 -43zM304 852v-56h-265v56h265z" />
    <glyph glyph-name="Iogonek" unicode="&#x12e;" horiz-adv-x="340" 
d="M241 -146l28 -17c-24 -49 -58 -72 -107 -72c-63 0 -103 37 -103 96s44 110 116 139h-123v42l30 3c29 4 37 15 37 44v542l-67 6v43h235v-43l-29 -3c-28 -4 -37 -14 -37 -43v-543l66 -6v-42h-18c-35 0 -65 -13 -91 -39c-27 -25 -40 -56 -40 -91c0 -37 19 -61 48 -61
c24 0 42 14 55 45z" />
    <glyph glyph-name="Itilde" unicode="&#x128;" horiz-adv-x="340" 
d="M221 591v-543l66 -6v-42h-235v42l30 3c29 4 37 15 37 44v542l-67 6v43h235v-43l-29 -3c-28 -4 -37 -14 -37 -43zM111 807c-24 0 -46 -10 -63 -29l-28 18c25 56 56 81 97 81c19 0 33 -3 64 -18s43 -18 62 -18c23 0 41 12 53 33l29 -16c-21 -61 -50 -89 -89 -89
c-20 0 -36 4 -67 20c-28 15 -41 18 -58 18z" />
    <glyph glyph-name="Jcircumflex" unicode="&#x134;" horiz-adv-x="426" 
d="M325 680v-498c0 -123 -63 -192 -170 -192c-53 0 -93 19 -126 60l30 35c27 -27 55 -40 86 -40c52 0 78 43 78 124v462l-115 6v43h217zM108 755l-22 24c57 56 92 95 124 138h44c29 -40 61 -77 124 -138l-22 -24c-36 21 -71 42 -124 81c-37 -27 -76 -52 -124 -81z" />
    <glyph glyph-name="IJ" unicode="&#x132;" horiz-adv-x="726" 
d="M221 591v-543l66 -6v-42h-235v42l30 3c29 4 37 15 37 44v542l-67 6v43h235v-43l-29 -3c-28 -4 -37 -14 -37 -43zM636 680v-498c0 -123 -63 -192 -170 -192c-53 0 -93 19 -126 60l30 35c27 -27 55 -40 86 -40c52 0 78 43 78 124v462l-115 6v43h217z" />
    <glyph glyph-name="Kcommaaccent" unicode="&#x136;" horiz-adv-x="662" 
d="M336 398l166 -233c35 -50 61 -83 79 -99c17 -17 35 -27 54 -31l-17 -45c-87 0 -138 29 -190 106l-159 221l-48 -56v-213l66 -6v-42h-235v42l30 3c28 4 37 15 37 44v542l-67 6v43h235v-43l-29 -3c-28 -4 -37 -14 -37 -43v-261l253 301l-62 6v43h192v-43l-22 -2
c-31 -3 -57 -18 -85 -50zM345 -135c-5 -1 -11 -3 -15 -3c-27 0 -41 16 -41 44c0 29 22 51 53 51c33 0 51 -24 51 -67c0 -41 -20 -83 -56 -118h-33c25 32 38 61 41 93z" />
    <glyph glyph-name="Lacute" unicode="&#x139;" horiz-adv-x="540" 
d="M445 152h47v-152h-440v42l30 3c28 4 37 15 37 44v542l-67 6v43h235v-43l-29 -3c-28 -4 -37 -14 -37 -43v-547h213zM254 918l59 -57c-48 -40 -104 -75 -165 -106l-22 24c51 48 96 96 128 139z" />
    <glyph glyph-name="Lcaron" unicode="&#x13d;" horiz-adv-x="540" 
d="M445 152h47v-152h-440v42l30 3c28 4 37 15 37 44v542l-67 6v43h235v-43l-29 -3c-28 -4 -37 -14 -37 -43v-547h213zM398 616c-5 -1 -11 -3 -15 -3c-25 0 -40 16 -40 44c0 29 21 51 52 51c33 0 52 -26 52 -67c0 -40 -21 -83 -57 -118h-32c24 32 37 61 40 93z" />
    <glyph glyph-name="Lcommaaccent" unicode="&#x13b;" horiz-adv-x="540" 
d="M445 152h47v-152h-440v42l30 3c28 4 37 15 37 44v542l-67 6v43h235v-43l-29 -3c-28 -4 -37 -14 -37 -43v-547h213zM281 -135c-5 -1 -11 -3 -15 -3c-27 0 -41 16 -41 44c0 29 22 51 53 51c33 0 51 -24 51 -67c0 -41 -20 -83 -56 -118h-33c25 32 38 61 41 93z" />
    <glyph glyph-name="Ldot" unicode="&#x13f;" horiz-adv-x="540" 
d="M445 152h47v-152h-440v42l30 3c28 4 37 15 37 44v542l-67 6v43h235v-43l-29 -3c-28 -4 -37 -14 -37 -43v-547h213zM476 375c0 -32 -25 -57 -57 -57s-57 25 -57 57s25 57 57 57s57 -25 57 -57z" />
    <glyph glyph-name="Ntilde" unicode="&#xd1;" horiz-adv-x="695" 
d="M513 0l-341 508v-460l67 -6v-42h-187v42l30 3c28 4 37 15 37 44v542l-67 6v43h129l342 -515v466l-67 6v43h187v-43l-30 -3c-28 -4 -37 -14 -37 -42v-592h-63zM276 807c-24 0 -46 -10 -63 -29l-28 18c25 56 56 81 97 81c19 0 33 -3 64 -18s43 -18 62 -18c23 0 41 12 53 33
l29 -16c-21 -61 -50 -89 -89 -89c-20 0 -36 4 -67 20c-28 15 -41 18 -58 18z" />
    <glyph glyph-name="Nacute" unicode="&#x143;" horiz-adv-x="695" 
d="M513 0l-341 508v-460l67 -6v-42h-187v42l30 3c28 4 37 15 37 44v542l-67 6v43h129l342 -515v466l-67 6v43h187v-43l-30 -3c-28 -4 -37 -14 -37 -42v-592h-63zM415 918l59 -57c-48 -40 -104 -75 -165 -106l-22 24c51 48 96 96 128 139z" />
    <glyph glyph-name="Ncaron" unicode="&#x147;" horiz-adv-x="695" 
d="M513 0l-341 508v-460l67 -6v-42h-187v42l30 3c28 4 37 15 37 44v542l-67 6v43h129l342 -515v466l-67 6v43h187v-43l-30 -3c-28 -4 -37 -14 -37 -42v-592h-63zM197 892l22 25c45 -28 83 -53 124 -82c41 29 79 54 124 82l22 -25c-55 -52 -91 -93 -124 -137h-44
c-31 43 -65 81 -124 137z" />
    <glyph glyph-name="Ncommaaccent" unicode="&#x145;" horiz-adv-x="695" 
d="M513 0l-341 508v-460l67 -6v-42h-187v42l30 3c28 4 37 15 37 44v542l-67 6v43h129l342 -515v466l-67 6v43h187v-43l-30 -3c-28 -4 -37 -14 -37 -42v-592h-63zM362 -135c-5 -1 -11 -3 -15 -3c-27 0 -41 16 -41 44c0 29 22 51 53 51c33 0 51 -24 51 -67
c0 -41 -20 -83 -56 -118h-33c25 32 38 61 41 93z" />
    <glyph glyph-name="Oacute" unicode="&#xd3;" horiz-adv-x="679" 
d="M616 333c0 -107 -25 -191 -75 -252s-118 -91 -204 -91c-177 0 -274 128 -274 357c0 107 25 191 75 252s118 91 203 91c176 0 275 -129 275 -357zM173 344c0 -199 60 -308 165 -308c109 0 168 104 168 300c0 197 -61 307 -166 307c-111 0 -167 -100 -167 -299zM408 918
l59 -57c-48 -40 -104 -75 -165 -106l-22 24c51 48 96 96 128 139z" />
    <glyph glyph-name="Ocircumflex" unicode="&#xd4;" horiz-adv-x="679" 
d="M616 333c0 -107 -25 -191 -75 -252s-118 -91 -204 -91c-177 0 -274 128 -274 357c0 107 25 191 75 252s118 91 203 91c176 0 275 -129 275 -357zM173 344c0 -199 60 -308 165 -308c109 0 168 104 168 300c0 197 -61 307 -166 307c-111 0 -167 -100 -167 -299zM211 755
l-22 24c57 56 92 95 124 138h44c29 -40 61 -77 124 -138l-22 -24c-36 21 -71 42 -124 81c-37 -27 -76 -52 -124 -81z" />
    <glyph glyph-name="Odieresis" unicode="&#xd6;" horiz-adv-x="679" 
d="M616 333c0 -107 -25 -191 -75 -252s-118 -91 -204 -91c-177 0 -274 128 -274 357c0 107 25 191 75 252s118 91 203 91c176 0 275 -129 275 -357zM173 344c0 -199 60 -308 165 -308c109 0 168 104 168 300c0 197 -61 307 -166 307c-111 0 -167 -100 -167 -299zM302 837
c0 -32 -26 -58 -57 -58c-32 0 -58 26 -58 58c0 31 26 57 58 57c31 0 57 -26 57 -57zM482 837c0 -32 -26 -58 -58 -58c-31 0 -57 26 -57 58c0 31 26 57 57 57c32 0 58 -26 58 -57z" />
    <glyph glyph-name="Ograve" unicode="&#xd2;" horiz-adv-x="679" 
d="M616 333c0 -107 -25 -191 -75 -252s-118 -91 -204 -91c-177 0 -274 128 -274 357c0 107 25 191 75 252s118 91 203 91c176 0 275 -129 275 -357zM173 344c0 -199 60 -308 165 -308c109 0 168 104 168 300c0 197 -61 307 -166 307c-111 0 -167 -100 -167 -299zM419 779
l-22 -24c-61 31 -117 66 -165 106l59 57c32 -43 77 -91 128 -139z" />
    <glyph glyph-name="Otilde" unicode="&#xd5;" horiz-adv-x="679" 
d="M616 333c0 -107 -25 -191 -75 -252s-118 -91 -204 -91c-177 0 -274 128 -274 357c0 107 25 191 75 252s118 91 203 91c176 0 275 -129 275 -357zM173 344c0 -199 60 -308 165 -308c109 0 168 104 168 300c0 197 -61 307 -166 307c-111 0 -167 -100 -167 -299zM284 807
c-24 0 -46 -10 -63 -29l-28 18c25 56 56 81 97 81c19 0 33 -3 64 -18s43 -18 62 -18c23 0 41 12 53 33l29 -16c-21 -61 -50 -89 -89 -89c-20 0 -36 4 -67 20c-28 15 -41 18 -58 18z" />
    <glyph glyph-name="Obreve" unicode="&#x14e;" horiz-adv-x="679" 
d="M616 333c0 -107 -25 -191 -75 -252s-118 -91 -204 -91c-177 0 -274 128 -274 357c0 107 25 191 75 252s118 91 203 91c176 0 275 -129 275 -357zM173 344c0 -199 60 -308 165 -308c109 0 168 104 168 300c0 197 -61 307 -166 307c-111 0 -167 -100 -167 -299zM210 885h74
c0 -61 18 -92 54 -92c35 0 53 31 53 92h74c0 -81 -47 -132 -127 -132s-128 51 -128 132z" />
    <glyph glyph-name="Ohungarumlaut" unicode="&#x150;" horiz-adv-x="679" 
d="M616 333c0 -107 -25 -191 -75 -252s-118 -91 -204 -91c-177 0 -274 128 -274 357c0 107 25 191 75 252s118 91 203 91c176 0 275 -129 275 -357zM173 344c0 -199 60 -308 165 -308c109 0 168 104 168 300c0 197 -61 307 -166 307c-111 0 -167 -100 -167 -299zM325 918
l58 -57c-47 -39 -101 -75 -164 -106l-22 24c47 44 93 94 128 139zM491 918l59 -57c-45 -39 -101 -74 -165 -106l-21 24c48 45 94 95 127 139z" />
    <glyph glyph-name="Omacron" unicode="&#x14c;" horiz-adv-x="679" 
d="M616 333c0 -107 -25 -191 -75 -252s-118 -91 -204 -91c-177 0 -274 128 -274 357c0 107 25 191 75 252s118 91 203 91c176 0 275 -129 275 -357zM173 344c0 -199 60 -308 165 -308c109 0 168 104 168 300c0 197 -61 307 -166 307c-111 0 -167 -100 -167 -299zM471 852
v-56h-265v56h265z" />
    <glyph glyph-name="Racute" unicode="&#x154;" horiz-adv-x="629" 
d="M377 302l90 -136c56 -87 92 -123 132 -131l-20 -45c-80 0 -139 36 -183 109l-113 184c-4 -1 -7 -1 -15 -1h-47v-234l66 -6v-42h-235v42l30 3c28 4 37 15 37 44v542l-67 6v43h204c179 0 273 -68 273 -193c0 -87 -56 -154 -152 -185zM221 324h31c108 0 169 58 169 159
c0 92 -69 152 -176 152h-24v-311zM330 918l59 -57c-48 -40 -104 -75 -165 -106l-22 24c51 48 96 96 128 139z" />
    <glyph glyph-name="Rcaron" unicode="&#x158;" horiz-adv-x="629" 
d="M377 302l90 -136c56 -87 92 -123 132 -131l-20 -45c-80 0 -139 36 -183 109l-113 184c-4 -1 -7 -1 -15 -1h-47v-234l66 -6v-42h-235v42l30 3c28 4 37 15 37 44v542l-67 6v43h204c179 0 273 -68 273 -193c0 -87 -56 -154 -152 -185zM221 324h31c108 0 169 58 169 159
c0 92 -69 152 -176 152h-24v-311zM129 892l22 25c45 -28 83 -53 124 -82c41 29 79 54 124 82l22 -25c-55 -52 -91 -93 -124 -137h-44c-31 43 -65 81 -124 137z" />
    <glyph glyph-name="Rcommaaccent" unicode="&#x156;" horiz-adv-x="629" 
d="M377 302l90 -136c56 -87 92 -123 132 -131l-20 -45c-80 0 -139 36 -183 109l-113 184c-4 -1 -7 -1 -15 -1h-47v-234l66 -6v-42h-235v42l30 3c28 4 37 15 37 44v542l-67 6v43h204c179 0 273 -68 273 -193c0 -87 -56 -154 -152 -185zM221 324h31c108 0 169 58 169 159
c0 92 -69 152 -176 152h-24v-311zM331 -135c-5 -1 -11 -3 -15 -3c-27 0 -41 16 -41 44c0 29 22 51 53 51c33 0 51 -24 51 -67c0 -41 -20 -83 -56 -118h-33c25 32 38 61 41 93z" />
    <glyph glyph-name="Scaron" unicode="&#x160;" horiz-adv-x="514" 
d="M249 411l70 -33c111 -51 152 -106 152 -191c0 -125 -91 -197 -244 -197c-71 0 -143 15 -175 38l2 140h46l14 -106c32 -16 74 -26 113 -26c93 0 145 44 145 123c0 61 -34 101 -121 140l-69 32c-89 40 -132 98 -132 179c0 109 81 180 220 180c59 0 124 -13 153 -32l-2 -141
h-46l-15 106c-25 12 -61 20 -88 20c-80 0 -126 -40 -126 -107c0 -53 31 -92 103 -125zM101 892l22 25c45 -28 83 -53 124 -82c41 29 79 54 124 82l22 -25c-55 -52 -91 -93 -124 -137h-44c-31 43 -65 81 -124 137z" />
    <glyph glyph-name="Sacute" unicode="&#x15a;" horiz-adv-x="514" 
d="M249 411l70 -33c111 -51 152 -106 152 -191c0 -125 -91 -197 -244 -197c-71 0 -143 15 -175 38l2 140h46l14 -106c32 -16 74 -26 113 -26c93 0 145 44 145 123c0 61 -34 101 -121 140l-69 32c-89 40 -132 98 -132 179c0 109 81 180 220 180c59 0 124 -13 153 -32l-2 -141
h-46l-15 106c-25 12 -61 20 -88 20c-80 0 -126 -40 -126 -107c0 -53 31 -92 103 -125zM319 918l59 -57c-48 -40 -104 -75 -165 -106l-22 24c51 48 96 96 128 139z" />
    <glyph glyph-name="Scedilla" unicode="&#x15e;" horiz-adv-x="514" 
d="M277 -52c53 0 87 -30 87 -78c0 -65 -47 -105 -120 -105c-43 0 -80 15 -108 44l25 25c20 -20 42 -30 66 -30c37 0 58 21 58 60c0 35 -19 52 -58 52c-9 0 -20 0 -33 -3l15 78c-64 3 -128 17 -157 37l2 140h46l14 -106c32 -16 74 -26 113 -26c93 0 145 44 145 123
c0 61 -34 101 -121 140l-69 32c-89 40 -132 98 -132 179c0 109 81 180 220 180c59 0 124 -13 153 -32l-2 -141h-46l-15 106c-25 12 -61 20 -88 20c-80 0 -126 -40 -126 -107c0 -53 32 -93 103 -125l70 -33c111 -51 152 -106 152 -191c0 -116 -78 -187 -211 -195l-7 -46
c9 1 16 2 24 2z" />
    <glyph glyph-name="Scircumflex" unicode="&#x15c;" horiz-adv-x="514" 
d="M249 411l70 -33c111 -51 152 -106 152 -191c0 -125 -91 -197 -244 -197c-71 0 -143 15 -175 38l2 140h46l14 -106c32 -16 74 -26 113 -26c93 0 145 44 145 123c0 61 -34 101 -121 140l-69 32c-89 40 -132 98 -132 179c0 109 81 180 220 180c59 0 124 -13 153 -32l-2 -141
h-46l-15 106c-25 12 -61 20 -88 20c-80 0 -126 -40 -126 -107c0 -53 31 -92 103 -125zM126 755l-22 24c57 56 92 95 124 138h44c29 -40 61 -77 124 -138l-22 -24c-36 21 -71 42 -124 81c-37 -27 -76 -52 -124 -81z" />
    <glyph glyph-name="uni0218" unicode="&#x218;" horiz-adv-x="514" 
d="M249 411l70 -33c111 -51 152 -106 152 -191c0 -125 -91 -197 -244 -197c-71 0 -143 15 -175 38l2 140h46l14 -106c32 -16 74 -26 113 -26c93 0 145 44 145 123c0 61 -34 101 -121 140l-69 32c-89 40 -132 98 -132 179c0 109 81 180 220 180c59 0 124 -13 153 -32l-2 -141
h-46l-15 106c-25 12 -61 20 -88 20c-80 0 -126 -40 -126 -107c0 -53 31 -92 103 -125zM259 -135c-5 -1 -11 -3 -15 -3c-27 0 -41 16 -41 44c0 29 22 51 53 51c33 0 51 -24 51 -67c0 -41 -20 -83 -56 -118h-33c25 32 38 61 41 93z" />
    <glyph glyph-name="Tbar" unicode="&#x166;" horiz-adv-x="562" 
d="M438 331h-106v-283l69 -6v-42h-241v42l30 3c29 4 40 16 40 44v242h-100v44h100v260h-132l-11 -110h-47v155h482v-155h-48l-11 110h-131v-260h106v-44z" />
    <glyph glyph-name="Tcaron" unicode="&#x164;" horiz-adv-x="562" 
d="M98 635l-11 -110h-47v155h482v-155h-48l-11 110h-131v-587l69 -6v-42h-241v42l30 3c29 4 40 16 40 44v546h-132zM131 892l22 25c45 -28 83 -53 124 -82c41 29 79 54 124 82l22 -25c-55 -52 -91 -93 -124 -137h-44c-31 43 -65 81 -124 137z" />
    <glyph glyph-name="uni0162" unicode="&#x162;" horiz-adv-x="562" 
d="M98 635l-11 -110h-47v155h482v-155h-48l-11 110h-131v-587l69 -6v-42h-241v42l30 3c29 4 40 16 40 44v546h-132zM276 -135c-5 -1 -11 -3 -15 -3c-27 0 -41 16 -41 44c0 29 22 51 53 51c33 0 51 -24 51 -67c0 -41 -20 -83 -56 -118h-33c25 32 38 61 41 93z" />
    <glyph glyph-name="uni021A" unicode="&#x21a;" horiz-adv-x="562" 
d="M98 635l-11 -110h-47v155h482v-155h-48l-11 110h-131v-587l69 -6v-42h-241v42l30 3c29 4 40 16 40 44v546h-132zM276 -135c-5 -1 -11 -3 -15 -3c-27 0 -41 16 -41 44c0 29 22 51 53 51c33 0 51 -24 51 -67c0 -41 -20 -83 -56 -118h-33c25 32 38 61 41 93z" />
    <glyph glyph-name="Uacute" unicode="&#xda;" horiz-adv-x="685" 
d="M635 637l-29 -3c-28 -4 -37 -14 -37 -43v-347c0 -163 -80 -254 -220 -254c-155 0 -233 85 -233 254v387l-66 6v43h235v-43l-30 -3c-28 -4 -37 -15 -37 -43v-350c0 -132 52 -204 145 -204c99 0 152 71 152 206v388l-67 6v43h187v-43zM435 918l59 -57
c-48 -40 -104 -75 -165 -106l-22 24c51 48 96 96 128 139z" />
    <glyph glyph-name="Ucircumflex" unicode="&#xdb;" horiz-adv-x="685" 
d="M635 637l-29 -3c-28 -4 -37 -14 -37 -43v-347c0 -163 -80 -254 -220 -254c-155 0 -233 85 -233 254v387l-66 6v43h235v-43l-30 -3c-28 -4 -37 -15 -37 -43v-350c0 -132 52 -204 145 -204c99 0 152 71 152 206v388l-67 6v43h187v-43zM232 755l-22 24c57 56 92 95 124 138
h44c29 -40 61 -77 124 -138l-22 -24c-36 21 -71 42 -124 81c-37 -27 -76 -52 -124 -81z" />
    <glyph glyph-name="Udieresis" unicode="&#xdc;" horiz-adv-x="685" 
d="M635 637l-29 -3c-28 -4 -37 -14 -37 -43v-347c0 -163 -80 -254 -220 -254c-155 0 -233 85 -233 254v387l-66 6v43h235v-43l-30 -3c-28 -4 -37 -15 -37 -43v-350c0 -132 52 -204 145 -204c99 0 152 71 152 206v388l-67 6v43h187v-43zM322 837c0 -32 -26 -58 -57 -58
c-32 0 -58 26 -58 58c0 31 26 57 58 57c31 0 57 -26 57 -57zM502 837c0 -32 -26 -58 -58 -58c-31 0 -57 26 -57 58c0 31 26 57 57 57c32 0 58 -26 58 -57z" />
    <glyph glyph-name="Ugrave" unicode="&#xd9;" horiz-adv-x="685" 
d="M635 637l-29 -3c-28 -4 -37 -14 -37 -43v-347c0 -163 -80 -254 -220 -254c-155 0 -233 85 -233 254v387l-66 6v43h235v-43l-30 -3c-28 -4 -37 -15 -37 -43v-350c0 -132 52 -204 145 -204c99 0 152 71 152 206v388l-67 6v43h187v-43zM418 779l-22 -24
c-61 31 -117 66 -165 106l59 57c32 -43 77 -91 128 -139z" />
    <glyph glyph-name="Ubreve" unicode="&#x16c;" horiz-adv-x="685" 
d="M635 637l-29 -3c-28 -4 -37 -14 -37 -43v-347c0 -163 -80 -254 -220 -254c-155 0 -233 85 -233 254v387l-66 6v43h235v-43l-30 -3c-28 -4 -37 -15 -37 -43v-350c0 -132 52 -204 145 -204c99 0 152 71 152 206v388l-67 6v43h187v-43zM232 885h74c0 -61 18 -92 54 -92
c35 0 53 31 53 92h74c0 -81 -47 -132 -127 -132s-128 51 -128 132z" />
    <glyph glyph-name="Uhungarumlaut" unicode="&#x170;" horiz-adv-x="685" 
d="M635 637l-29 -3c-28 -4 -37 -14 -37 -43v-347c0 -163 -80 -254 -220 -254c-155 0 -233 85 -233 254v387l-66 6v43h235v-43l-30 -3c-28 -4 -37 -15 -37 -43v-350c0 -132 52 -204 145 -204c99 0 152 71 152 206v388l-67 6v43h187v-43zM350 918l58 -57
c-47 -39 -101 -75 -164 -106l-22 24c47 44 93 94 128 139zM516 918l59 -57c-45 -39 -101 -74 -165 -106l-21 24c48 45 94 95 127 139z" />
    <glyph glyph-name="Umacron" unicode="&#x16a;" horiz-adv-x="685" 
d="M635 637l-29 -3c-28 -4 -37 -14 -37 -43v-347c0 -163 -80 -254 -220 -254c-155 0 -233 85 -233 254v387l-66 6v43h235v-43l-30 -3c-28 -4 -37 -15 -37 -43v-350c0 -132 52 -204 145 -204c99 0 152 71 152 206v388l-67 6v43h187v-43zM486 852v-56h-265v56h265z" />
    <glyph glyph-name="Uogonek" unicode="&#x172;" horiz-adv-x="685" 
d="M449 -146l28 -17c-24 -49 -58 -72 -107 -72c-63 0 -104 37 -104 96c0 52 33 95 104 134c-12 -3 -19 -4 -35 -4c-141 0 -219 89 -219 253v387l-66 6v43h235v-43l-30 -3c-28 -4 -37 -15 -37 -43v-350c0 -132 52 -204 145 -204c99 0 152 71 152 206v388l-67 6v43h187v-43
l-29 -3c-28 -4 -37 -14 -37 -43v-347c0 -116 -36 -189 -124 -237c-57 -28 -100 -84 -100 -137c0 -37 19 -61 48 -61c25 0 41 13 56 45z" />
    <glyph glyph-name="Uring" unicode="&#x16e;" horiz-adv-x="685" 
d="M635 637l-29 -3c-28 -4 -37 -14 -37 -43v-347c0 -163 -80 -254 -220 -254c-155 0 -233 85 -233 254v387l-66 6v43h235v-43l-30 -3c-28 -4 -37 -15 -37 -43v-350c0 -132 52 -204 145 -204c99 0 152 71 152 206v388l-67 6v43h187v-43zM472 846c0 -61 -50 -112 -113 -112
c-61 0 -112 51 -112 112s51 112 112 112c31 0 57 -11 80 -33c22 -22 33 -48 33 -79zM311 846c0 -44 19 -72 48 -72s48 28 48 72c0 43 -19 71 -48 71c-28 0 -48 -28 -48 -71z" />
    <glyph glyph-name="Utilde" unicode="&#x168;" horiz-adv-x="685" 
d="M635 637l-29 -3c-28 -4 -37 -14 -37 -43v-347c0 -163 -80 -254 -220 -254c-155 0 -233 85 -233 254v387l-66 6v43h235v-43l-30 -3c-28 -4 -37 -15 -37 -43v-350c0 -132 52 -204 145 -204c99 0 152 71 152 206v388l-67 6v43h187v-43zM297 807c-24 0 -46 -10 -63 -29
l-28 18c25 56 56 81 97 81c19 0 33 -3 64 -18s43 -18 62 -18c23 0 41 12 53 33l29 -16c-21 -61 -50 -89 -89 -89c-20 0 -36 4 -67 20c-28 15 -41 18 -58 18z" />
    <glyph glyph-name="Wacute" unicode="&#x1e82;" horiz-adv-x="967" 
d="M879 594l-162 -594h-81l-148 470l-155 -470h-85l-167 631l-56 6v43h237v-43l-25 -3c-33 -5 -41 -17 -34 -45l119 -478l165 509h53l157 -511l136 522l-66 6v43h179v-43l-28 -3c-23 -4 -31 -9 -39 -40zM570 918l59 -57c-48 -40 -104 -75 -165 -106l-22 24
c51 48 96 96 128 139z" />
    <glyph glyph-name="Wcircumflex" unicode="&#x174;" horiz-adv-x="967" 
d="M879 594l-162 -594h-81l-148 470l-155 -470h-85l-167 631l-56 6v43h237v-43l-25 -3c-33 -5 -41 -17 -34 -45l119 -478l165 509h53l157 -511l136 522l-66 6v43h179v-43l-28 -3c-23 -4 -31 -9 -39 -40zM389 755l-22 24c57 56 92 95 124 138h44c29 -40 61 -77 124 -138
l-22 -24c-36 21 -71 42 -124 81c-37 -27 -76 -52 -124 -81z" />
    <glyph glyph-name="Wdieresis" unicode="&#x1e84;" horiz-adv-x="967" 
d="M879 594l-162 -594h-81l-148 470l-155 -470h-85l-167 631l-56 6v43h237v-43l-25 -3c-33 -5 -41 -17 -34 -45l119 -478l165 509h53l157 -511l136 522l-66 6v43h179v-43l-28 -3c-23 -4 -31 -9 -39 -40zM471 837c0 -32 -26 -58 -57 -58c-32 0 -58 26 -58 58
c0 31 26 57 58 57c31 0 57 -26 57 -57zM651 837c0 -32 -26 -58 -58 -58c-31 0 -57 26 -57 58c0 31 26 57 57 57c32 0 58 -26 58 -57z" />
    <glyph glyph-name="Wgrave" unicode="&#x1e80;" horiz-adv-x="967" 
d="M879 594l-162 -594h-81l-148 470l-155 -470h-85l-167 631l-56 6v43h237v-43l-25 -3c-33 -5 -41 -17 -34 -45l119 -478l165 509h53l157 -511l136 522l-66 6v43h179v-43l-28 -3c-23 -4 -31 -9 -39 -40zM574 779l-22 -24c-61 31 -117 66 -165 106l59 57
c32 -43 77 -91 128 -139z" />
    <glyph glyph-name="Yacute" unicode="&#xdd;" horiz-adv-x="619" 
d="M356 262v-214l66 -6v-42h-235v42l30 3c28 4 37 15 37 44v175l-185 367l-55 6v43h241v-43l-22 -3c-36 -5 -44 -18 -32 -42l134 -271l154 310l-62 6v43h177v-43l-25 -3c-25 -4 -40 -14 -52 -37zM412 918l59 -57c-48 -40 -104 -75 -165 -106l-22 24c51 48 96 96 128 139z
" />
    <glyph glyph-name="Ydieresis" unicode="&#x178;" horiz-adv-x="619" 
d="M356 262v-214l66 -6v-42h-235v42l30 3c28 4 37 15 37 44v175l-185 367l-55 6v43h241v-43l-22 -3c-36 -5 -44 -18 -32 -42l134 -271l154 310l-62 6v43h177v-43l-25 -3c-25 -4 -40 -14 -52 -37zM293 837c0 -32 -26 -58 -57 -58c-32 0 -58 26 -58 58c0 31 26 57 58 57
c31 0 57 -26 57 -57zM473 837c0 -32 -26 -58 -58 -58c-31 0 -57 26 -57 58c0 31 26 57 57 57c32 0 58 -26 58 -57z" />
    <glyph glyph-name="Ycircumflex" unicode="&#x176;" horiz-adv-x="619" 
d="M356 262v-214l66 -6v-42h-235v42l30 3c28 4 37 15 37 44v175l-185 367l-55 6v43h241v-43l-22 -3c-36 -5 -44 -18 -32 -42l134 -271l154 310l-62 6v43h177v-43l-25 -3c-25 -4 -40 -14 -52 -37zM196 755l-22 24c57 56 92 95 124 138h44c29 -40 61 -77 124 -138l-22 -24
c-36 21 -71 42 -124 81c-37 -27 -76 -52 -124 -81z" />
    <glyph glyph-name="Ygrave" unicode="&#x1ef2;" horiz-adv-x="619" 
d="M356 262v-214l66 -6v-42h-235v42l30 3c28 4 37 15 37 44v175l-185 367l-55 6v43h241v-43l-22 -3c-36 -5 -44 -18 -32 -42l134 -271l154 310l-62 6v43h177v-43l-25 -3c-25 -4 -40 -14 -52 -37zM396 779l-22 -24c-61 31 -117 66 -165 106l59 57c32 -43 77 -91 128 -139z
" />
    <glyph glyph-name="Zcaron" unicode="&#x17d;" horiz-adv-x="527" 
d="M418 44l12 122h47v-166h-427v52l321 583h-245l-12 -129h-47v174h407v-53l-321 -583h265zM115 892l22 25c45 -28 83 -53 124 -82c41 29 79 54 124 82l22 -25c-55 -52 -91 -93 -124 -137h-44c-31 43 -65 81 -124 137z" />
    <glyph glyph-name="Zacute" unicode="&#x179;" horiz-adv-x="527" 
d="M418 44l12 122h47v-166h-427v52l321 583h-245l-12 -129h-47v174h407v-53l-321 -583h265zM345 918l59 -57c-48 -40 -104 -75 -165 -106l-22 24c51 48 96 96 128 139z" />
    <glyph glyph-name="Zdotaccent" unicode="&#x17b;" horiz-adv-x="527" 
d="M418 44l12 122h47v-166h-427v52l321 583h-245l-12 -129h-47v174h407v-53l-321 -583h265zM328 837c0 -33 -26 -59 -58 -59c-33 0 -59 26 -59 59c0 32 26 58 59 58c32 0 58 -26 58 -58z" />
    <glyph glyph-name="aacute" unicode="&#xe1;" horiz-adv-x="527" 
d="M148 455v-91l-49 -6l-22 111c37 31 104 50 169 50c121 0 187 -63 187 -183v-207c0 -63 13 -89 54 -101l-19 -38c-93 0 -122 30 -130 110c-43 -71 -100 -110 -164 -110c-77 0 -127 48 -127 125c0 80 46 125 185 164l101 30v18c0 99 -32 147 -97 147c-35 0 -61 -6 -88 -19z
M152 127c0 -49 25 -82 64 -82c47 0 88 39 117 108v119l-54 -16c-89 -27 -127 -65 -127 -129zM294 738l59 -57c-48 -40 -104 -75 -165 -106l-22 24c51 48 96 96 128 139z" />
    <glyph glyph-name="acircumflex" unicode="&#xe2;" horiz-adv-x="527" 
d="M148 455v-91l-49 -6l-22 111c37 31 104 50 169 50c121 0 187 -63 187 -183v-207c0 -63 13 -89 54 -101l-19 -38c-93 0 -122 30 -130 110c-43 -71 -100 -110 -164 -110c-77 0 -127 48 -127 125c0 80 46 125 185 164l101 30v18c0 99 -32 147 -97 147c-35 0 -61 -6 -88 -19z
M152 127c0 -49 25 -82 64 -82c47 0 88 39 117 108v119l-54 -16c-89 -27 -127 -65 -127 -129zM127 575l-22 24c57 56 92 95 124 138h44c29 -40 61 -77 124 -138l-22 -24c-36 21 -71 42 -124 81c-37 -27 -76 -52 -124 -81z" />
    <glyph glyph-name="adieresis" unicode="&#xe4;" horiz-adv-x="527" 
d="M148 455v-91l-49 -6l-22 111c37 31 104 50 169 50c121 0 187 -63 187 -183v-207c0 -63 13 -89 54 -101l-19 -38c-93 0 -122 30 -130 110c-43 -71 -100 -110 -164 -110c-77 0 -127 48 -127 125c0 80 46 125 185 164l101 30v18c0 99 -32 147 -97 147c-35 0 -61 -6 -88 -19z
M152 127c0 -49 25 -82 64 -82c47 0 88 39 117 108v119l-54 -16c-89 -27 -127 -65 -127 -129zM221 657c0 -32 -26 -58 -57 -58c-32 0 -58 26 -58 58c0 31 26 57 58 57c31 0 57 -26 57 -57zM401 657c0 -32 -26 -58 -58 -58c-31 0 -57 26 -57 58c0 31 26 57 57 57
c32 0 58 -26 58 -57z" />
    <glyph glyph-name="agrave" unicode="&#xe0;" horiz-adv-x="527" 
d="M148 455v-91l-49 -6l-22 111c37 31 104 50 169 50c121 0 187 -63 187 -183v-207c0 -63 13 -89 54 -101l-19 -38c-93 0 -122 30 -130 110c-43 -71 -100 -110 -164 -110c-77 0 -127 48 -127 125c0 80 46 125 185 164l101 30v18c0 99 -32 147 -97 147c-35 0 -61 -6 -88 -19z
M152 127c0 -49 25 -82 64 -82c47 0 88 39 117 108v119l-54 -16c-89 -27 -127 -65 -127 -129zM337 599l-22 -24c-61 31 -117 66 -165 106l59 57c32 -43 77 -91 128 -139z" />
    <glyph glyph-name="aring" unicode="&#xe5;" horiz-adv-x="527" 
d="M148 455v-91l-49 -6l-22 111c37 31 104 50 169 50c121 0 187 -63 187 -183v-207c0 -63 13 -89 54 -101l-19 -38c-93 0 -122 30 -130 110c-43 -71 -100 -110 -164 -110c-77 0 -127 48 -127 125c0 80 46 125 185 164l101 30v18c0 99 -32 147 -97 147c-35 0 -61 -6 -88 -19z
M152 127c0 -49 25 -82 64 -82c47 0 88 39 117 108v119l-54 -16c-89 -27 -127 -65 -127 -129zM358 666c0 -61 -50 -112 -113 -112c-61 0 -112 51 -112 112s51 112 112 112c31 0 57 -11 80 -33c22 -22 33 -48 33 -79zM197 666c0 -44 19 -72 48 -72s48 28 48 72
c0 43 -19 71 -48 71c-28 0 -48 -28 -48 -71z" />
    <glyph glyph-name="atilde" unicode="&#xe3;" horiz-adv-x="527" 
d="M148 455v-91l-49 -6l-22 111c37 31 104 50 169 50c121 0 187 -63 187 -183v-207c0 -63 13 -89 54 -101l-19 -38c-93 0 -122 30 -130 110c-43 -71 -100 -110 -164 -110c-77 0 -127 48 -127 125c0 80 46 125 185 164l101 30v18c0 99 -32 147 -97 147c-35 0 -61 -6 -88 -19z
M152 127c0 -49 25 -82 64 -82c47 0 88 39 117 108v119l-54 -16c-89 -27 -127 -65 -127 -129zM189 627c-24 0 -46 -10 -63 -29l-28 18c25 56 56 81 97 81c19 0 33 -3 64 -18s43 -18 62 -18c23 0 41 12 53 33l29 -16c-21 -61 -50 -89 -89 -89c-20 0 -36 4 -67 20
c-28 15 -41 18 -58 18z" />
    <glyph glyph-name="abreve" unicode="&#x103;" horiz-adv-x="527" 
d="M148 455v-91l-49 -6l-22 111c37 31 104 50 169 50c121 0 187 -63 187 -183v-207c0 -63 13 -89 54 -101l-19 -38c-93 0 -122 30 -130 110c-43 -71 -100 -110 -164 -110c-77 0 -127 48 -127 125c0 80 46 125 185 164l101 30v18c0 99 -32 147 -97 147c-35 0 -61 -6 -88 -19z
M152 127c0 -49 25 -82 64 -82c47 0 88 39 117 108v119l-54 -16c-89 -27 -127 -65 -127 -129zM124 705h74c0 -61 18 -92 54 -92c35 0 53 31 53 92h74c0 -81 -47 -132 -127 -132s-128 51 -128 132z" />
    <glyph glyph-name="amacron" unicode="&#x101;" horiz-adv-x="527" 
d="M148 455v-91l-49 -6l-22 111c37 31 104 50 169 50c121 0 187 -63 187 -183v-207c0 -63 13 -89 54 -101l-19 -38c-93 0 -122 30 -130 110c-43 -71 -100 -110 -164 -110c-77 0 -127 48 -127 125c0 80 46 125 185 164l101 30v18c0 99 -32 147 -97 147c-35 0 -61 -6 -88 -19z
M152 127c0 -49 25 -82 64 -82c47 0 88 39 117 108v119l-54 -16c-89 -27 -127 -65 -127 -129zM387 672v-56h-265v56h265z" />
    <glyph glyph-name="aogonek" unicode="&#x105;" horiz-adv-x="527" 
d="M333 272l-54 -16c-89 -27 -127 -65 -127 -129c0 -49 25 -82 64 -82c47 0 88 39 117 108v119zM373 -191c25 0 41 13 56 45l28 -17c-24 -49 -58 -72 -107 -72c-63 0 -104 37 -104 96c0 64 46 115 130 147c-23 15 -35 44 -38 92c-43 -71 -100 -110 -164 -110
c-77 0 -127 48 -127 125c0 80 46 125 185 164l101 30v18c0 99 -32 147 -97 147c-35 0 -61 -6 -88 -19v-91l-49 -6l-22 111c37 31 104 50 169 50c121 0 187 -63 187 -183v-207c0 -63 13 -89 54 -101l-19 -38c-35 3 -51 0 -71 -8c-43 -19 -72 -63 -72 -112
c0 -37 19 -61 48 -61z" />
    <glyph glyph-name="ccedilla" unicode="&#xe7;" horiz-adv-x="464" 
d="M290 -52c53 0 87 -30 87 -78c0 -65 -47 -105 -120 -105c-43 0 -79 15 -107 44l24 25c20 -20 43 -30 67 -30c36 0 57 21 57 60c0 35 -19 52 -58 52c-9 0 -20 0 -32 -3l16 80c-113 12 -175 104 -175 255c0 173 85 271 229 271c60 0 108 -15 149 -47l-23 -115l-48 4v93
c-20 12 -42 18 -70 18c-87 0 -131 -73 -131 -217s41 -213 125 -213c51 0 91 27 116 79l32 -18c-32 -71 -82 -107 -155 -112l-7 -45c9 1 16 2 24 2z" />
    <glyph glyph-name="cacute" unicode="&#x107;" horiz-adv-x="464" 
d="M396 121l32 -18c-33 -76 -89 -113 -172 -113c-132 0 -207 94 -207 258c0 173 85 271 229 271c60 0 108 -15 149 -47l-23 -115l-48 4v93c-20 12 -42 18 -70 18c-87 0 -131 -73 -131 -217s41 -213 125 -213c51 0 91 27 116 79zM311 738l59 -57c-48 -40 -104 -75 -165 -106
l-22 24c51 48 96 96 128 139z" />
    <glyph glyph-name="ccaron" unicode="&#x10d;" horiz-adv-x="464" 
d="M396 121l32 -18c-33 -76 -89 -113 -172 -113c-132 0 -207 94 -207 258c0 173 85 271 229 271c60 0 108 -15 149 -47l-23 -115l-48 4v93c-20 12 -42 18 -70 18c-87 0 -131 -73 -131 -217s41 -213 125 -213c51 0 91 27 116 79zM121 712l22 25c45 -28 83 -53 124 -82
c41 29 79 54 124 82l22 -25c-55 -52 -91 -93 -124 -137h-44c-31 43 -65 81 -124 137z" />
    <glyph glyph-name="ccircumflex" unicode="&#x109;" horiz-adv-x="464" 
d="M396 121l32 -18c-33 -76 -89 -113 -172 -113c-132 0 -207 94 -207 258c0 173 85 271 229 271c60 0 108 -15 149 -47l-23 -115l-48 4v93c-20 12 -42 18 -70 18c-87 0 -131 -73 -131 -217s41 -213 125 -213c51 0 91 27 116 79zM141 575l-22 24c57 56 92 95 124 138h44
c29 -40 61 -77 124 -138l-22 -24c-36 21 -71 42 -124 81c-37 -27 -76 -52 -124 -81z" />
    <glyph glyph-name="cdotaccent" unicode="&#x10b;" horiz-adv-x="464" 
d="M396 121l32 -18c-33 -76 -89 -113 -172 -113c-132 0 -207 94 -207 258c0 173 85 271 229 271c60 0 108 -15 149 -47l-23 -115l-48 4v93c-20 12 -42 18 -70 18c-87 0 -131 -73 -131 -217s41 -213 125 -213c51 0 91 27 116 79zM330 657c0 -33 -26 -59 -58 -59
c-33 0 -59 26 -59 59c0 32 26 58 59 58c32 0 58 -26 58 -58z" />
    <glyph glyph-name="dcaron" unicode="&#x10f;" horiz-adv-x="647" 
d="M521 27l-19 -37c-71 0 -112 22 -124 63c-36 -43 -79 -63 -131 -63c-124 0 -196 96 -196 265c0 167 82 264 222 264c32 0 64 -7 95 -19v146c0 25 -8 33 -45 34l-21 1l5 45l160 14v-607c0 -65 13 -93 54 -106zM280 473c-83 0 -125 -74 -125 -219c0 -135 45 -212 117 -212
c39 0 70 16 97 49c-1 8 -1 17 -1 38v314c-28 20 -57 30 -88 30zM583 616c-5 -1 -11 -3 -15 -3c-25 0 -40 16 -40 44c0 29 21 51 52 51c33 0 52 -26 52 -67c0 -40 -21 -83 -57 -118h-32c24 32 37 61 40 93z" />
    <glyph glyph-name="dslash" unicode="&#x111;" horiz-adv-x="561" 
d="M467 580v-447c0 -65 13 -93 54 -106l-19 -37c-71 0 -112 22 -124 63c-36 -43 -79 -63 -131 -63c-124 0 -196 96 -196 265c0 167 82 264 222 264c32 0 64 -7 95 -19v80h-155v36h155v36c0 20 -9 27 -45 28l-21 1l5 45l160 14v-124h49v-36h-49zM280 473
c-83 0 -125 -74 -125 -219c0 -135 45 -212 117 -212c39 0 70 16 97 49c-1 8 -1 17 -1 38v314c-28 20 -57 30 -88 30z" />
    <glyph glyph-name="eacute" unicode="&#xe9;" horiz-adv-x="514" 
d="M419 119l30 -19c-33 -71 -96 -110 -172 -110c-149 0 -228 94 -228 269c0 80 20 143 61 190s93 70 158 70c123 0 196 -87 196 -227c0 -8 -1 -14 -2 -39h-310v-10c3 -136 50 -203 141 -203c49 0 97 28 126 79zM266 474c-68 0 -108 -64 -113 -183h212
c-3 117 -38 183 -99 183zM324 738l59 -57c-48 -40 -104 -75 -165 -106l-22 24c51 48 96 96 128 139z" />
    <glyph glyph-name="ecircumflex" unicode="&#xea;" horiz-adv-x="514" 
d="M419 119l30 -19c-33 -71 -96 -110 -172 -110c-149 0 -228 94 -228 269c0 80 20 143 61 190s93 70 158 70c123 0 196 -87 196 -227c0 -8 -1 -14 -2 -39h-310v-10c3 -136 50 -203 141 -203c49 0 97 28 126 79zM266 474c-68 0 -108 -64 -113 -183h212
c-3 117 -38 183 -99 183zM146 575l-22 24c57 56 92 95 124 138h44c29 -40 61 -77 124 -138l-22 -24c-36 21 -71 42 -124 81c-37 -27 -76 -52 -124 -81z" />
    <glyph glyph-name="edieresis" unicode="&#xeb;" horiz-adv-x="514" 
d="M419 119l30 -19c-33 -71 -96 -110 -172 -110c-149 0 -228 94 -228 269c0 80 20 143 61 190s93 70 158 70c123 0 196 -87 196 -227c0 -8 -1 -14 -2 -39h-310v-10c3 -136 50 -203 141 -203c49 0 97 28 126 79zM266 474c-68 0 -108 -64 -113 -183h212
c-3 117 -38 183 -99 183zM232 657c0 -32 -26 -58 -57 -58c-32 0 -58 26 -58 58c0 31 26 57 58 57c31 0 57 -26 57 -57zM412 657c0 -32 -26 -58 -58 -58c-31 0 -57 26 -57 58c0 31 26 57 57 57c32 0 58 -26 58 -57z" />
    <glyph glyph-name="egrave" unicode="&#xe8;" horiz-adv-x="514" 
d="M419 119l30 -19c-33 -71 -96 -110 -172 -110c-149 0 -228 94 -228 269c0 80 20 143 61 190s93 70 158 70c123 0 196 -87 196 -227c0 -8 -1 -14 -2 -39h-310v-10c3 -136 50 -203 141 -203c49 0 97 28 126 79zM266 474c-68 0 -108 -64 -113 -183h212
c-3 117 -38 183 -99 183zM340 599l-22 -24c-61 31 -117 66 -165 106l59 57c32 -43 77 -91 128 -139z" />
    <glyph glyph-name="ebreve" unicode="&#x115;" horiz-adv-x="514" 
d="M419 119l30 -19c-33 -71 -96 -110 -172 -110c-149 0 -228 94 -228 269c0 80 20 143 61 190s93 70 158 70c123 0 196 -87 196 -227c0 -8 -1 -14 -2 -39h-310v-10c3 -136 50 -203 141 -203c49 0 97 28 126 79zM266 474c-68 0 -108 -64 -113 -183h212
c-3 117 -38 183 -99 183zM135 705h74c0 -61 18 -92 54 -92c35 0 53 31 53 92h74c0 -81 -47 -132 -127 -132s-128 51 -128 132z" />
    <glyph glyph-name="ecaron" unicode="&#x11b;" horiz-adv-x="514" 
d="M419 119l30 -19c-33 -71 -96 -110 -172 -110c-149 0 -228 94 -228 269c0 80 20 143 61 190s93 70 158 70c123 0 196 -87 196 -227c0 -8 -1 -14 -2 -39h-310v-10c3 -136 50 -203 141 -203c49 0 97 28 126 79zM266 474c-68 0 -108 -64 -113 -183h212
c-3 117 -38 183 -99 183zM121 712l22 25c45 -28 83 -53 124 -82c41 29 79 54 124 82l22 -25c-55 -52 -91 -93 -124 -137h-44c-31 43 -65 81 -124 137z" />
    <glyph glyph-name="edotaccent" unicode="&#x117;" horiz-adv-x="514" 
d="M419 119l30 -19c-33 -71 -96 -110 -172 -110c-149 0 -228 94 -228 269c0 80 20 143 61 190s93 70 158 70c123 0 196 -87 196 -227c0 -8 -1 -14 -2 -39h-310v-10c3 -136 50 -203 141 -203c49 0 97 28 126 79zM266 474c-68 0 -108 -64 -113 -183h212
c-3 117 -38 183 -99 183zM320 657c0 -33 -26 -59 -58 -59c-33 0 -59 26 -59 59c0 32 26 58 59 58c32 0 58 -26 58 -58z" />
    <glyph glyph-name="emacron" unicode="&#x113;" horiz-adv-x="514" 
d="M419 119l30 -19c-33 -71 -96 -110 -172 -110c-149 0 -228 94 -228 269c0 80 20 143 61 190s93 70 158 70c123 0 196 -87 196 -227c0 -8 -1 -14 -2 -39h-310v-10c3 -136 50 -203 141 -203c49 0 97 28 126 79zM266 474c-68 0 -108 -64 -113 -183h212
c-3 117 -38 183 -99 183zM396 672v-56h-265v56h265z" />
    <glyph glyph-name="eogonek" unicode="&#x119;" horiz-adv-x="514" 
d="M375 -146l28 -17c-24 -49 -58 -72 -107 -72c-63 0 -104 38 -104 97c0 52 37 99 102 131c-7 -1 -17 -2 -24 -2c-141 0 -221 99 -221 268c0 79 21 143 62 190s93 70 157 70c123 0 196 -87 196 -227c0 -19 -1 -27 -2 -39h-310v-10c3 -135 50 -203 141 -203
c49 0 97 30 126 79l30 -19c-9 -28 -38 -60 -73 -83c-75 -52 -104 -96 -104 -147c0 -37 19 -61 48 -61c24 0 42 14 55 45zM266 474c-68 0 -108 -64 -113 -183h212c-3 117 -38 183 -99 183z" />
    <glyph glyph-name="gbreve" unicode="&#x11f;" horiz-adv-x="498" 
d="M236 474c-52 0 -85 -47 -85 -123c0 -80 31 -126 84 -126s84 43 84 120c0 83 -31 129 -83 129zM237 519c29 0 54 -5 77 -13c45 1 87 8 138 21l9 -52c-24 -7 -52 -9 -95 -6c32 -29 49 -70 49 -121c0 -104 -72 -168 -181 -168c-21 0 -41 3 -58 7c-21 -13 -32 -31 -32 -50
c0 -29 22 -44 65 -44h94c117 0 175 -41 175 -128c0 -56 -24 -101 -72 -135c-49 -33 -112 -50 -190 -50c-113 0 -181 46 -181 125c0 49 35 95 94 120c-32 13 -51 42 -51 77c0 36 22 68 66 95c-57 25 -89 78 -89 150c0 105 74 172 182 172zM167 11c-43 -24 -62 -53 -62 -88
c0 -61 45 -97 124 -97c51 0 94 11 129 33c34 22 51 50 51 84c0 47 -32 67 -101 67h-112c-16 0 -22 0 -29 1zM121 705h74c0 -61 18 -92 54 -92c35 0 53 31 53 92h74c0 -81 -47 -132 -127 -132s-128 51 -128 132z" />
    <glyph glyph-name="gcircumflex" unicode="&#x11d;" horiz-adv-x="498" 
d="M236 474c-52 0 -85 -47 -85 -123c0 -80 31 -126 84 -126s84 43 84 120c0 83 -31 129 -83 129zM237 519c29 0 54 -5 77 -13c45 1 87 8 138 21l9 -52c-24 -7 -52 -9 -95 -6c32 -29 49 -70 49 -121c0 -104 -72 -168 -181 -168c-21 0 -41 3 -58 7c-21 -13 -32 -31 -32 -50
c0 -29 22 -44 65 -44h94c117 0 175 -41 175 -128c0 -56 -24 -101 -72 -135c-49 -33 -112 -50 -190 -50c-113 0 -181 46 -181 125c0 49 35 95 94 120c-32 13 -51 42 -51 77c0 36 22 68 66 95c-57 25 -89 78 -89 150c0 105 74 172 182 172zM167 11c-43 -24 -62 -53 -62 -88
c0 -61 45 -97 124 -97c51 0 94 11 129 33c34 22 51 50 51 84c0 47 -32 67 -101 67h-112c-16 0 -22 0 -29 1zM121 575l-22 24c57 56 92 95 124 138h44c29 -40 61 -77 124 -138l-22 -24c-36 21 -71 42 -124 81c-37 -27 -76 -52 -124 -81z" />
    <glyph glyph-name="gcommaaccent" unicode="&#x123;" horiz-adv-x="498" 
d="M236 474c-52 0 -85 -47 -85 -123c0 -80 31 -126 84 -126s84 43 84 120c0 83 -31 129 -83 129zM237 519c29 0 54 -5 77 -13c45 1 87 8 138 21l9 -52c-24 -7 -52 -9 -95 -6c32 -29 49 -70 49 -121c0 -104 -72 -168 -181 -168c-21 0 -41 3 -58 7c-21 -13 -32 -31 -32 -50
c0 -29 22 -44 65 -44h94c117 0 175 -41 175 -128c0 -56 -24 -101 -72 -135c-49 -33 -112 -50 -190 -50c-113 0 -181 46 -181 125c0 49 35 95 94 120c-32 13 -51 42 -51 77c0 36 22 68 66 95c-57 25 -89 78 -89 150c0 105 74 172 182 172zM167 11c-43 -24 -62 -53 -62 -88
c0 -61 45 -97 124 -97c51 0 94 11 129 33c34 22 51 50 51 84c0 47 -32 67 -101 67h-112c-16 0 -22 0 -29 1zM235 569c-32 0 -51 26 -51 67s20 83 56 119h33c-25 -32 -38 -61 -41 -94c3 1 10 3 15 3c27 0 41 -16 41 -44c0 -29 -22 -51 -53 -51z" />
    <glyph glyph-name="gdotaccent" unicode="&#x121;" horiz-adv-x="498" 
d="M236 474c-52 0 -85 -47 -85 -123c0 -80 31 -126 84 -126s84 43 84 120c0 83 -31 129 -83 129zM237 519c29 0 54 -5 77 -13c45 1 87 8 138 21l9 -52c-24 -7 -52 -9 -95 -6c32 -29 49 -70 49 -121c0 -104 -72 -168 -181 -168c-21 0 -41 3 -58 7c-21 -13 -32 -31 -32 -50
c0 -29 22 -44 65 -44h94c117 0 175 -41 175 -128c0 -56 -24 -101 -72 -135c-49 -33 -112 -50 -190 -50c-113 0 -181 46 -181 125c0 49 35 95 94 120c-32 13 -51 42 -51 77c0 36 22 68 66 95c-57 25 -89 78 -89 150c0 105 74 172 182 172zM167 11c-43 -24 -62 -53 -62 -88
c0 -61 45 -97 124 -97c51 0 94 11 129 33c34 22 51 50 51 84c0 47 -32 67 -101 67h-112c-16 0 -22 0 -29 1zM303 657c0 -33 -26 -59 -58 -59c-33 0 -59 26 -59 59c0 32 26 58 59 58c32 0 58 -26 58 -58z" />
    <glyph glyph-name="hbar" unicode="&#x127;" horiz-adv-x="605" 
d="M200 405v-359l60 -6v-40h-225v40l29 3c28 4 36 13 36 44v491h-65v37h65v33c0 24 -6 30 -45 33l-20 2v43l165 14v-125h136v-37h-136v-124c32 40 86 65 142 65c105 0 165 -62 165 -173v-300l66 -6v-40h-226v40l30 3c23 3 31 13 31 44v262c0 76 -33 116 -97 116
c-43 0 -83 -21 -111 -60z" />
    <glyph glyph-name="hcircumflex" unicode="&#x125;" horiz-adv-x="605" 
d="M55 681l-20 2v43l165 14v-286c32 40 86 65 142 65c105 0 165 -62 165 -173v-300l66 -6v-40h-226v40l30 3c23 3 31 13 31 44v262c0 76 -33 116 -97 116c-43 0 -83 -21 -111 -60v-359l60 -6v-40h-225v40l29 3c28 4 36 13 36 44v556c0 28 -8 35 -45 38zM116 760l-22 24
c57 56 92 95 124 138h44c29 -40 61 -77 124 -138l-22 -24c-36 21 -71 42 -124 81c-37 -27 -76 -52 -124 -81z" />
    <glyph glyph-name="iacute" unicode="&#xed;" horiz-adv-x="300" 
d="M202 509v-463l65 -5v-41h-231v40l30 3c28 4 36 13 36 44v346c0 24 -9 32 -36 33l-30 3v40h166zM192 738l59 -57c-48 -40 -104 -75 -165 -106l-22 24c51 48 96 96 128 139z" />
    <glyph glyph-name="icircumflex" unicode="&#xee;" horiz-adv-x="300" 
d="M202 509v-463l65 -5v-41h-231v40l30 3c28 4 36 13 36 44v346c0 24 -9 32 -36 33l-30 3v40h166zM15 575l-22 24c57 56 92 95 124 138h44c29 -40 61 -77 124 -138l-22 -24c-36 21 -71 42 -124 81c-37 -27 -76 -52 -124 -81z" />
    <glyph glyph-name="idieresis" unicode="&#xef;" horiz-adv-x="300" 
d="M202 509v-463l65 -5v-41h-231v40l30 3c28 4 36 13 36 44v346c0 24 -9 32 -36 33l-30 3v40h166zM108 655c0 -32 -26 -58 -57 -58c-32 0 -58 26 -58 58c0 31 26 57 58 57c31 0 57 -26 57 -57zM288 655c0 -32 -26 -58 -58 -58c-31 0 -57 26 -57 58c0 31 26 57 57 57
c32 0 58 -26 58 -57z" />
    <glyph glyph-name="igrave" unicode="&#xec;" horiz-adv-x="300" 
d="M202 509v-463l65 -5v-41h-231v40l30 3c28 4 36 13 36 44v346c0 24 -9 32 -36 33l-30 3v40h166zM219 599l-22 -24c-61 31 -117 66 -165 106l59 57c32 -43 77 -91 128 -139z" />
    <glyph glyph-name="ibreve" unicode="&#x12d;" horiz-adv-x="300" 
d="M202 509v-463l65 -5v-41h-231v40l30 3c28 4 36 13 36 44v346c0 24 -9 32 -36 33l-30 3v40h166zM10 705h74c0 -61 18 -92 54 -92c35 0 53 31 53 92h74c0 -81 -47 -132 -127 -132s-128 51 -128 132z" />
    <glyph glyph-name="i.dot" unicode="&#xe166;" horiz-adv-x="300" 
d="M207 657c0 -32 -26 -58 -58 -58s-58 26 -58 58s26 57 58 57s58 -25 58 -57zM202 509v-463l66 -5v-41h-231v40l30 3c27 4 36 15 36 44v346c0 23 -9 32 -36 33l-30 3v40h165z" />
    <glyph glyph-name="imacron" unicode="&#x12b;" horiz-adv-x="300" 
d="M202 509v-463l65 -5v-41h-231v40l30 3c28 4 36 13 36 44v346c0 24 -9 32 -36 33l-30 3v40h166zM267 672v-56h-265v56h265z" />
    <glyph glyph-name="iogonek" unicode="&#x12f;" horiz-adv-x="300" 
d="M207 657c0 -32 -26 -58 -58 -58s-58 26 -58 58s26 57 58 57s58 -25 58 -57zM224 -146l29 -17c-24 -49 -59 -72 -108 -72c-63 0 -103 37 -103 96c0 57 46 110 115 139h-120v40l30 3c27 4 36 15 36 44v346c0 23 -9 32 -36 33l-30 3v40h165v-463l66 -5v-41h-20
c-33 0 -62 -13 -88 -40s-39 -57 -39 -91c0 -37 17 -60 48 -60c25 0 42 13 55 45z" />
    <glyph glyph-name="itilde" unicode="&#x129;" horiz-adv-x="300" 
d="M202 509v-463l65 -5v-41h-231v40l30 3c28 4 36 13 36 44v346c0 24 -9 32 -36 33l-30 3v40h166zM76 627c-24 0 -46 -10 -63 -29l-28 18c25 56 56 81 97 81c19 0 33 -3 64 -18s43 -18 62 -18c23 0 41 12 53 33l29 -16c-21 -61 -50 -89 -89 -89c-20 0 -36 4 -67 20
c-28 15 -41 18 -58 18z" />
    <glyph glyph-name="jcircumflex" unicode="&#x135;" horiz-adv-x="280" 
d="M60 466l-29 3v40h165v-510c0 -104 -44 -178 -132 -219l-42 28c53 35 74 85 74 185v440c0 24 -9 32 -36 33zM7 575l-22 24c57 56 92 95 124 138h44c29 -40 61 -77 124 -138l-22 -24c-36 21 -71 42 -124 81c-37 -27 -76 -52 -124 -81z" />
    <glyph glyph-name="ij" unicode="&#x133;" horiz-adv-x="556" 
d="M207 657c0 -32 -26 -58 -58 -58s-58 26 -58 58s26 57 58 57s58 -25 58 -57zM202 509v-463l66 -5v-41h-231v40l30 3c27 4 36 15 36 44v346c0 23 -9 32 -36 33l-30 3v40h165zM415 714c32 0 58 -26 58 -57c0 -32 -26 -58 -58 -58c-31 0 -57 26 -57 58c0 31 26 57 57 57z
M305 469v40h165v-510c0 -104 -44 -178 -131 -219l-43 28c53 35 75 86 75 185v440c0 23 -9 32 -36 33z" />
    <glyph glyph-name="kcommaaccent" unicode="&#x137;" horiz-adv-x="542" 
d="M55 680l-20 1v45l165 14v-438h61l117 161l-62 5v41h186v-40l-28 -3c-20 -3 -27 -8 -46 -33l-104 -138l89 -147c30 -50 51 -81 64 -92s28 -19 46 -24l-22 -42c-81 3 -123 31 -170 112l-86 148h-45v-204l65 -5v-41h-230v40l29 3c28 4 36 13 36 44v556c0 28 -8 36 -45 37z
M292 -135c-5 -1 -11 -3 -15 -3c-27 0 -41 16 -41 44c0 29 22 51 53 51c33 0 51 -24 51 -67c0 -41 -20 -83 -56 -118h-33c25 32 38 61 41 93z" />
    <glyph glyph-name="lacute" unicode="&#x13a;" horiz-adv-x="289" 
d="M200 740v-694l64 -6v-40h-229v40l29 3c28 4 36 13 36 44v559c0 25 -8 33 -45 34l-20 1v45zM211 925l59 -57c-48 -40 -104 -75 -165 -106l-22 24c51 48 96 96 128 139z" />
    <glyph glyph-name="lcaron" unicode="&#x13e;" horiz-adv-x="369" 
d="M200 740v-694l64 -6v-40h-229v40l29 3c28 4 36 13 36 44v559c0 25 -8 33 -45 34l-20 1v45zM305 616c-5 -1 -11 -3 -15 -3c-25 0 -40 16 -40 44c0 29 21 51 52 51c33 0 52 -26 52 -67c0 -40 -21 -83 -57 -118h-32c24 32 37 61 40 93z" />
    <glyph glyph-name="lcommaaccent" unicode="&#x13c;" horiz-adv-x="296" 
d="M200 740v-694l64 -6v-40h-229v40l29 3c28 4 36 13 36 44v559c0 25 -8 33 -45 34l-20 1v45zM143 -135c-5 -1 -11 -3 -15 -3c-27 0 -41 16 -41 44c0 29 22 51 53 51c33 0 51 -24 51 -67c0 -41 -20 -83 -56 -118h-33c25 32 38 61 41 93z" />
    <glyph glyph-name="ldot" unicode="&#x140;" horiz-adv-x="354" 
d="M200 740v-694l64 -6v-40h-229v40l29 3c28 4 36 13 36 44v559c0 25 -8 33 -45 34l-20 1v45zM378 364c0 -32 -25 -57 -57 -57s-57 25 -57 57s25 57 57 57s57 -25 57 -57z" />
    <glyph glyph-name="ntilde" unicode="&#xf1;" horiz-adv-x="608" 
d="M202 405v-359l60 -6v-40h-225v40l30 3c27 4 36 15 36 44v328c0 28 -6 35 -45 38l-21 1v44l136 11l23 -63c32 44 90 73 147 73c107 0 167 -62 167 -173v-300l65 -6v-40h-225v40l30 3c23 3 30 12 30 44v262c0 76 -33 116 -96 116c-44 0 -84 -21 -112 -60zM239 627
c-24 0 -46 -10 -63 -29l-28 18c25 56 56 81 97 81c19 0 33 -3 64 -18s43 -18 62 -18c23 0 41 12 53 33l29 -16c-21 -61 -50 -89 -89 -89c-20 0 -36 4 -67 20c-28 15 -41 18 -58 18z" />
    <glyph glyph-name="nacute" unicode="&#x144;" horiz-adv-x="608" 
d="M202 405v-359l60 -6v-40h-225v40l30 3c27 4 36 15 36 44v328c0 28 -6 35 -45 38l-21 1v44l136 11l23 -63c32 44 90 73 147 73c107 0 167 -62 167 -173v-300l65 -6v-40h-225v40l30 3c23 3 30 12 30 44v262c0 76 -33 116 -96 116c-44 0 -84 -21 -112 -60zM345 738l59 -57
c-48 -40 -104 -75 -165 -106l-22 24c51 48 96 96 128 139z" />
    <glyph glyph-name="ncaron" unicode="&#x148;" horiz-adv-x="608" 
d="M202 405v-359l60 -6v-40h-225v40l30 3c27 4 36 15 36 44v328c0 28 -6 35 -45 38l-21 1v44l136 11l23 -63c32 44 90 73 147 73c107 0 167 -62 167 -173v-300l65 -6v-40h-225v40l30 3c23 3 30 12 30 44v262c0 76 -33 116 -96 116c-44 0 -84 -21 -112 -60zM151 712l22 25
c45 -28 83 -53 124 -82c41 29 79 54 124 82l22 -25c-55 -52 -91 -93 -124 -137h-44c-31 43 -65 81 -124 137z" />
    <glyph glyph-name="ncommaaccent" unicode="&#x146;" horiz-adv-x="608" 
d="M202 405v-359l60 -6v-40h-225v40l30 3c27 4 36 15 36 44v328c0 28 -6 35 -45 38l-21 1v44l136 11l23 -63c32 44 90 73 147 73c107 0 167 -62 167 -173v-300l65 -6v-40h-225v40l30 3c23 3 30 12 30 44v262c0 76 -33 116 -96 116c-44 0 -84 -21 -112 -60zM307 -135
c-5 -1 -11 -3 -15 -3c-27 0 -41 16 -41 44c0 29 22 51 53 51c33 0 51 -24 51 -67c0 -41 -20 -83 -56 -118h-33c25 32 38 61 41 93z" />
    <glyph glyph-name="oacute" unicode="&#xf3;" horiz-adv-x="534" 
d="M483 249c0 -79 -20 -142 -60 -189c-41 -47 -93 -70 -158 -70c-136 0 -214 98 -214 269c0 80 20 143 60 190c39 47 92 70 157 70c137 0 215 -99 215 -270zM155 256c0 -139 42 -221 111 -221c75 0 112 73 112 217s-39 222 -111 222c-75 0 -112 -74 -112 -218zM327 738
l59 -57c-48 -40 -104 -75 -165 -106l-22 24c51 48 96 96 128 139z" />
    <glyph glyph-name="ocircumflex" unicode="&#xf4;" horiz-adv-x="534" 
d="M483 249c0 -79 -20 -142 -60 -189c-41 -47 -93 -70 -158 -70c-136 0 -214 98 -214 269c0 80 20 143 60 190c39 47 92 70 157 70c137 0 215 -99 215 -270zM155 256c0 -139 42 -221 111 -221c75 0 112 73 112 217s-39 222 -111 222c-75 0 -112 -74 -112 -218zM151 575
l-22 24c57 56 92 95 124 138h44c29 -40 61 -77 124 -138l-22 -24c-36 21 -71 42 -124 81c-37 -27 -76 -52 -124 -81z" />
    <glyph glyph-name="odieresis" unicode="&#xf6;" horiz-adv-x="534" 
d="M483 249c0 -79 -20 -142 -60 -189c-41 -47 -93 -70 -158 -70c-136 0 -214 98 -214 269c0 80 20 143 60 190c39 47 92 70 157 70c137 0 215 -99 215 -270zM155 256c0 -139 42 -221 111 -221c75 0 112 73 112 217s-39 222 -111 222c-75 0 -112 -74 -112 -218zM237 657
c0 -32 -26 -58 -57 -58c-32 0 -58 26 -58 58c0 31 26 57 58 57c31 0 57 -26 57 -57zM417 657c0 -32 -26 -58 -58 -58c-31 0 -57 26 -57 58c0 31 26 57 57 57c32 0 58 -26 58 -57z" />
    <glyph glyph-name="ograve" unicode="&#xf2;" horiz-adv-x="534" 
d="M483 249c0 -79 -20 -142 -60 -189c-41 -47 -93 -70 -158 -70c-136 0 -214 98 -214 269c0 80 20 143 60 190c39 47 92 70 157 70c137 0 215 -99 215 -270zM155 256c0 -139 42 -221 111 -221c75 0 112 73 112 217s-39 222 -111 222c-75 0 -112 -74 -112 -218zM339 599
l-22 -24c-61 31 -117 66 -165 106l59 57c32 -43 77 -91 128 -139z" />
    <glyph glyph-name="otilde" unicode="&#xf5;" horiz-adv-x="534" 
d="M483 249c0 -79 -20 -142 -60 -189c-41 -47 -93 -70 -158 -70c-136 0 -214 98 -214 269c0 80 20 143 60 190c39 47 92 70 157 70c137 0 215 -99 215 -270zM155 256c0 -139 42 -221 111 -221c75 0 112 73 112 217s-39 222 -111 222c-75 0 -112 -74 -112 -218zM206 627
c-24 0 -46 -10 -63 -29l-28 18c25 56 56 81 97 81c19 0 33 -3 64 -18s43 -18 62 -18c23 0 41 12 53 33l29 -16c-21 -61 -50 -89 -89 -89c-20 0 -36 4 -67 20c-28 15 -41 18 -58 18z" />
    <glyph glyph-name="obreve" unicode="&#x14f;" horiz-adv-x="534" 
d="M483 249c0 -79 -20 -142 -60 -189c-41 -47 -93 -70 -158 -70c-136 0 -214 98 -214 269c0 80 20 143 60 190c39 47 92 70 157 70c137 0 215 -99 215 -270zM155 256c0 -139 42 -221 111 -221c75 0 112 73 112 217s-39 222 -111 222c-75 0 -112 -74 -112 -218zM148 705h74
c0 -61 18 -92 54 -92c35 0 53 31 53 92h74c0 -81 -47 -132 -127 -132s-128 51 -128 132z" />
    <glyph glyph-name="ohungarumlaut" unicode="&#x151;" horiz-adv-x="534" 
d="M483 249c0 -79 -20 -142 -60 -189c-41 -47 -93 -70 -158 -70c-136 0 -214 98 -214 269c0 80 20 143 60 190c39 47 92 70 157 70c137 0 215 -99 215 -270zM155 256c0 -139 42 -221 111 -221c75 0 112 73 112 217s-39 222 -111 222c-75 0 -112 -74 -112 -218zM255 738
l58 -57c-47 -39 -101 -75 -164 -106l-22 24c47 44 93 94 128 139zM421 738l59 -57c-45 -39 -101 -74 -165 -106l-21 24c48 45 94 95 127 139z" />
    <glyph glyph-name="omacron" unicode="&#x14d;" horiz-adv-x="534" 
d="M483 249c0 -79 -20 -142 -60 -189c-41 -47 -93 -70 -158 -70c-136 0 -214 98 -214 269c0 80 20 143 60 190c39 47 92 70 157 70c137 0 215 -99 215 -270zM155 256c0 -139 42 -221 111 -221c75 0 112 73 112 217s-39 222 -111 222c-75 0 -112 -74 -112 -218zM401 672v-56
h-265v56h265z" />
    <glyph glyph-name="racute" unicode="&#x155;" horiz-adv-x="415" 
d="M202 409v-363l71 -6v-40h-236v40l30 3c27 4 36 15 36 44v329c0 27 -6 34 -45 37l-21 1v44l136 11l23 -65c35 45 88 74 141 75c17 1 34 -3 47 -10l-22 -130l-48 5v72c-45 -1 -81 -16 -112 -47zM278 738l59 -57c-48 -40 -104 -75 -165 -106l-22 24c51 48 96 96 128 139z
" />
    <glyph glyph-name="rcaron" unicode="&#x159;" horiz-adv-x="415" 
d="M202 409v-363l71 -6v-40h-236v40l30 3c27 4 36 15 36 44v329c0 27 -6 34 -45 37l-21 1v44l136 11l23 -65c35 45 88 74 141 75c17 1 34 -3 47 -10l-22 -130l-48 5v72c-45 -1 -81 -16 -112 -47zM68 712l22 25c45 -28 83 -53 124 -82c41 29 79 54 124 82l22 -25
c-55 -52 -91 -93 -124 -137h-44c-31 43 -65 81 -124 137z" />
    <glyph glyph-name="rcommaaccent" unicode="&#x157;" horiz-adv-x="415" 
d="M202 409v-363l71 -6v-40h-236v40l30 3c27 4 36 15 36 44v329c0 27 -6 34 -45 37l-21 1v44l136 11l23 -65c35 45 88 74 141 75c17 1 34 -3 47 -10l-22 -130l-48 5v72c-45 -1 -81 -16 -112 -47zM159 -135c-5 -1 -11 -3 -15 -3c-27 0 -41 16 -41 44c0 29 22 51 53 51
c33 0 51 -24 51 -67c0 -41 -20 -83 -56 -118h-33c25 32 38 61 41 93z" />
    <glyph glyph-name="scaron" unicode="&#x161;" horiz-adv-x="427" 
d="M387 143c0 -92 -71 -153 -188 -153c-57 0 -122 14 -153 34l3 119h47l14 -88c24 -12 53 -19 81 -19c68 0 103 29 103 82c0 21 -7 39 -20 54s-44 33 -93 56c-54 25 -89 49 -106 71c-17 21 -26 47 -26 78c0 85 73 142 185 142c51 0 103 -11 132 -28l-13 -117h-47l-3 85
c-23 9 -45 14 -69 14c-61 0 -95 -26 -95 -74c0 -28 11 -46 42 -65c9 -5 34 -17 75 -36c93 -44 131 -90 131 -155zM80 712l22 25c45 -28 83 -53 124 -82c41 29 79 54 124 82l22 -25c-55 -52 -91 -93 -124 -137h-44c-31 43 -65 81 -124 137z" />
    <glyph glyph-name="sacute" unicode="&#x15b;" horiz-adv-x="427" 
d="M387 143c0 -92 -71 -153 -188 -153c-57 0 -122 14 -153 34l3 119h47l14 -88c24 -12 53 -19 81 -19c68 0 103 29 103 82c0 21 -7 39 -20 54s-44 33 -93 56c-54 25 -89 49 -106 71c-17 21 -26 47 -26 78c0 85 73 142 185 142c51 0 103 -11 132 -28l-13 -117h-47l-3 85
c-23 9 -45 14 -69 14c-61 0 -95 -26 -95 -74c0 -28 11 -46 42 -65c9 -5 34 -17 75 -36c93 -44 131 -90 131 -155zM291 738l59 -57c-48 -40 -104 -75 -165 -106l-22 24c51 48 96 96 128 139z" />
    <glyph glyph-name="scedilla" unicode="&#x15f;" horiz-adv-x="427" 
d="M236 -52c53 0 87 -30 87 -78c0 -65 -48 -105 -121 -105c-43 0 -79 15 -107 44l24 25c20 -20 43 -30 67 -30c36 0 57 21 57 60c0 35 -18 52 -57 52c-9 0 -20 0 -33 -3l16 79c-52 4 -99 16 -123 32l3 119h47l14 -88c24 -12 53 -19 81 -19c68 0 103 29 103 82
c0 21 -7 39 -20 54s-44 33 -93 56c-54 25 -89 49 -106 71c-17 21 -26 47 -26 78c0 85 73 142 185 142c51 0 103 -11 132 -28l-13 -117h-47l-3 85c-23 9 -45 14 -69 14c-61 0 -95 -26 -95 -74c0 -28 11 -46 42 -65c9 -5 34 -17 75 -36c93 -44 131 -90 131 -155
c0 -87 -63 -145 -168 -152l-8 -45c12 1 17 2 25 2z" />
    <glyph glyph-name="scircumflex" unicode="&#x15d;" horiz-adv-x="427" 
d="M387 143c0 -92 -71 -153 -188 -153c-57 0 -122 14 -153 34l3 119h47l14 -88c24 -12 53 -19 81 -19c68 0 103 29 103 82c0 21 -7 39 -20 54s-44 33 -93 56c-54 25 -89 49 -106 71c-17 21 -26 47 -26 78c0 85 73 142 185 142c51 0 103 -11 132 -28l-13 -117h-47l-3 85
c-23 9 -45 14 -69 14c-61 0 -95 -26 -95 -74c0 -28 11 -46 42 -65c9 -5 34 -17 75 -36c93 -44 131 -90 131 -155zM106 575l-22 24c57 56 92 95 124 138h44c29 -40 61 -77 124 -138l-22 -24c-36 21 -71 42 -124 81c-37 -27 -76 -52 -124 -81z" />
    <glyph glyph-name="uni0219" unicode="&#x219;" horiz-adv-x="427" 
d="M387 143c0 -92 -71 -153 -188 -153c-57 0 -122 14 -153 34l3 119h47l14 -88c24 -12 53 -19 81 -19c68 0 103 29 103 82c0 21 -7 39 -20 54s-44 33 -93 56c-54 25 -89 49 -106 71c-17 21 -26 47 -26 78c0 85 73 142 185 142c51 0 103 -11 132 -28l-13 -117h-47l-3 85
c-23 9 -45 14 -69 14c-61 0 -95 -26 -95 -74c0 -28 11 -46 42 -65c9 -5 34 -17 75 -36c93 -44 131 -90 131 -155zM209 -135c-5 -1 -11 -3 -15 -3c-27 0 -41 16 -41 44c0 29 22 51 53 51c33 0 51 -24 51 -67c0 -41 -20 -83 -56 -118h-33c25 32 38 61 41 93z" />
    <glyph glyph-name="tbar" unicode="&#x167;" horiz-adv-x="355" 
d="M28 466v43h70v105l99 34v-139h120v-43h-120v-116h120v-44h-120v-108c0 -104 34 -148 130 -168l-35 -40c-129 3 -194 66 -194 191v125h-70v44h70v116h-70z" />
    <glyph glyph-name="tcaron" unicode="&#x165;" horiz-adv-x="370" 
d="M28 466v43h70v105l99 34v-139h120v-43h-120v-268c0 -104 34 -148 130 -168l-35 -40c-129 3 -194 66 -194 191v285h-70zM309 660c-5 -1 -11 -3 -15 -3c-25 0 -40 16 -40 44c0 29 21 51 52 51c33 0 52 -26 52 -67c0 -40 -21 -83 -57 -118h-32c24 32 37 61 40 93z" />
    <glyph glyph-name="uni0163" unicode="&#x163;" horiz-adv-x="355" 
d="M28 466v43h70v105l99 34v-139h120v-43h-120v-268c0 -104 34 -148 130 -168l-35 -40c-129 3 -194 66 -194 191v285h-70zM209 -135c-5 -1 -11 -3 -15 -3c-27 0 -41 16 -41 44c0 29 22 51 53 51c33 0 51 -24 51 -67c0 -41 -20 -83 -56 -118h-33c25 32 38 61 41 93z" />
    <glyph glyph-name="uni021B" unicode="&#x21b;" horiz-adv-x="355" 
d="M28 466v43h70v105l99 34v-139h120v-43h-120v-268c0 -104 34 -148 130 -168l-35 -40c-129 3 -194 66 -194 191v285h-70zM209 -135c-5 -1 -11 -3 -15 -3c-27 0 -41 16 -41 44c0 29 22 51 53 51c33 0 51 -24 51 -67c0 -41 -20 -83 -56 -118h-33c25 32 38 61 41 93z" />
    <glyph glyph-name="uacute" unicode="&#xfa;" horiz-adv-x="579" 
d="M345 466l-30 3v40h165v-387c0 -56 14 -82 54 -94l-19 -38c-76 0 -114 20 -127 69c-33 -47 -80 -69 -143 -69c-96 0 -154 65 -154 173v264c0 25 -9 35 -36 39l-30 3v40h165v-349c0 -76 34 -116 94 -116c37 0 68 19 97 59v324c0 25 -9 35 -36 39zM350 738l59 -57
c-48 -40 -104 -75 -165 -106l-22 24c51 48 96 96 128 139z" />
    <glyph glyph-name="ucircumflex" unicode="&#xfb;" horiz-adv-x="579" 
d="M345 466l-30 3v40h165v-387c0 -56 14 -82 54 -94l-19 -38c-76 0 -114 20 -127 69c-33 -47 -80 -69 -143 -69c-96 0 -154 65 -154 173v264c0 25 -9 35 -36 39l-30 3v40h165v-349c0 -76 34 -116 94 -116c37 0 68 19 97 59v324c0 25 -9 35 -36 39zM155 573l-22 24
c57 56 92 95 124 138h44c29 -40 61 -77 124 -138l-22 -24c-36 21 -71 42 -124 81c-37 -27 -76 -52 -124 -81z" />
    <glyph glyph-name="udieresis" unicode="&#xfc;" horiz-adv-x="579" 
d="M345 466l-30 3v40h165v-387c0 -56 14 -82 54 -94l-19 -38c-76 0 -114 20 -127 69c-33 -47 -80 -69 -143 -69c-96 0 -154 65 -154 173v264c0 25 -9 35 -36 39l-30 3v40h165v-349c0 -76 34 -116 94 -116c37 0 68 19 97 59v324c0 25 -9 35 -36 39zM245 657
c0 -32 -26 -58 -57 -58c-32 0 -58 26 -58 58c0 31 26 57 58 57c31 0 57 -26 57 -57zM425 657c0 -32 -26 -58 -58 -58c-31 0 -57 26 -57 58c0 31 26 57 57 57c32 0 58 -26 58 -57z" />
    <glyph glyph-name="ugrave" unicode="&#xf9;" horiz-adv-x="579" 
d="M345 466l-30 3v40h165v-387c0 -56 14 -82 54 -94l-19 -38c-76 0 -114 20 -127 69c-33 -47 -80 -69 -143 -69c-96 0 -154 65 -154 173v264c0 25 -9 35 -36 39l-30 3v40h165v-349c0 -76 34 -116 94 -116c37 0 68 19 97 59v324c0 25 -9 35 -36 39zM340 599l-22 -24
c-61 31 -117 66 -165 106l59 57c32 -43 77 -91 128 -139z" />
    <glyph glyph-name="ubreve" unicode="&#x16d;" horiz-adv-x="579" 
d="M345 466l-30 3v40h165v-387c0 -56 14 -82 54 -94l-19 -38c-76 0 -114 20 -127 69c-33 -47 -80 -69 -143 -69c-96 0 -154 65 -154 173v264c0 25 -9 35 -36 39l-30 3v40h165v-349c0 -76 34 -116 94 -116c37 0 68 19 97 59v324c0 25 -9 35 -36 39zM145 705h74
c0 -61 18 -92 54 -92c35 0 53 31 53 92h74c0 -81 -47 -132 -127 -132s-128 51 -128 132z" />
    <glyph glyph-name="uhungarumlaut" unicode="&#x171;" horiz-adv-x="579" 
d="M345 466l-30 3v40h165v-387c0 -56 14 -82 54 -94l-19 -38c-76 0 -114 20 -127 69c-33 -47 -80 -69 -143 -69c-96 0 -154 65 -154 173v264c0 25 -9 35 -36 39l-30 3v40h165v-349c0 -76 34 -116 94 -116c37 0 68 19 97 59v324c0 25 -9 35 -36 39zM266 738l58 -57
c-47 -39 -101 -75 -164 -106l-22 24c47 44 93 94 128 139zM432 738l59 -57c-45 -39 -101 -74 -165 -106l-21 24c48 45 94 95 127 139z" />
    <glyph glyph-name="umacron" unicode="&#x16b;" horiz-adv-x="579" 
d="M345 466l-30 3v40h165v-387c0 -56 14 -82 54 -94l-19 -38c-76 0 -114 20 -127 69c-33 -47 -80 -69 -143 -69c-96 0 -154 65 -154 173v264c0 25 -9 35 -36 39l-30 3v40h165v-349c0 -76 34 -116 94 -116c37 0 68 19 97 59v324c0 25 -9 35 -36 39zM405 672v-56h-265v56h265z
" />
    <glyph glyph-name="uogonek" unicode="&#x173;" horiz-adv-x="579" 
d="M420 -191c25 0 42 13 55 45l29 -17c-24 -49 -58 -72 -107 -72c-63 0 -104 37 -104 96c0 63 47 114 135 146c-20 11 -37 31 -41 52c-33 -47 -81 -69 -142 -69c-97 0 -155 65 -155 173v264c0 27 -8 35 -36 39l-29 3v40h165v-349c0 -75 33 -116 93 -116c37 0 68 18 97 59
v324c0 27 -8 35 -36 39l-29 3v40h165v-387c0 -57 13 -82 54 -94l-19 -38c-40 0 -59 -4 -78 -13c-37 -15 -65 -58 -65 -107c0 -37 19 -61 48 -61z" />
    <glyph glyph-name="uring" unicode="&#x16f;" horiz-adv-x="579" 
d="M345 466l-30 3v40h165v-387c0 -56 14 -82 54 -94l-19 -38c-76 0 -114 20 -127 69c-33 -47 -80 -69 -143 -69c-96 0 -154 65 -154 173v264c0 25 -9 35 -36 39l-30 3v40h165v-349c0 -76 34 -116 94 -116c37 0 68 19 97 59v324c0 25 -9 35 -36 39zM388 666
c0 -61 -50 -112 -113 -112c-61 0 -112 51 -112 112s51 112 112 112c31 0 57 -11 80 -33c22 -22 33 -48 33 -79zM227 666c0 -44 19 -72 48 -72s48 28 48 72c0 43 -19 71 -48 71c-28 0 -48 -28 -48 -71z" />
    <glyph glyph-name="utilde" unicode="&#x169;" horiz-adv-x="579" 
d="M345 466l-30 3v40h165v-387c0 -56 14 -82 54 -94l-19 -38c-76 0 -114 20 -127 69c-33 -47 -80 -69 -143 -69c-96 0 -154 65 -154 173v264c0 25 -9 35 -36 39l-30 3v40h165v-349c0 -76 34 -116 94 -116c37 0 68 19 97 59v324c0 25 -9 35 -36 39zM218 627
c-24 0 -46 -10 -63 -29l-28 18c25 56 56 81 97 81c19 0 33 -3 64 -18s43 -18 62 -18c23 0 41 12 53 33l29 -16c-21 -61 -50 -89 -89 -89c-20 0 -36 4 -67 20c-28 15 -41 18 -58 18z" />
    <glyph glyph-name="wacute" unicode="&#x1e83;" horiz-adv-x="779" 
d="M706 426l-122 -426h-79l-105 404c-27 -103 -64 -229 -123 -404h-78l-138 464l-54 4v41h148l105 -427c41 138 69 236 84 295c15 58 23 102 25 132h90l106 -425l95 377v1l-62 6v41h169v-41l-24 -2c-23 -3 -29 -8 -37 -40zM481 738l59 -57c-48 -40 -104 -75 -165 -106
l-22 24c51 48 96 96 128 139z" />
    <glyph glyph-name="wcircumflex" unicode="&#x175;" horiz-adv-x="779" 
d="M706 426l-122 -426h-79l-105 404c-27 -103 -64 -229 -123 -404h-78l-138 464l-54 4v41h148l105 -427c41 138 69 236 84 295c15 58 23 102 25 132h90l106 -425l95 377v1l-62 6v41h169v-41l-24 -2c-23 -3 -29 -8 -37 -40zM281 575l-22 24c57 56 92 95 124 138h44
c29 -40 61 -77 124 -138l-22 -24c-36 21 -71 42 -124 81c-37 -27 -76 -52 -124 -81z" />
    <glyph glyph-name="wdieresis" unicode="&#x1e85;" horiz-adv-x="779" 
d="M706 426l-122 -426h-79l-105 404c-27 -103 -64 -229 -123 -404h-78l-138 464l-54 4v41h148l105 -427c41 138 69 236 84 295c15 58 23 102 25 132h90l106 -425l95 377v1l-62 6v41h169v-41l-24 -2c-23 -3 -29 -8 -37 -40zM370 657c0 -32 -26 -58 -57 -58
c-32 0 -58 26 -58 58c0 31 26 57 58 57c31 0 57 -26 57 -57zM550 657c0 -32 -26 -58 -58 -58c-31 0 -57 26 -57 58c0 31 26 57 57 57c32 0 58 -26 58 -57z" />
    <glyph glyph-name="wgrave" unicode="&#x1e81;" horiz-adv-x="779" 
d="M706 426l-122 -426h-79l-105 404c-27 -103 -64 -229 -123 -404h-78l-138 464l-54 4v41h148l105 -427c41 138 69 236 84 295c15 58 23 102 25 132h90l106 -425l95 377v1l-62 6v41h169v-41l-24 -2c-23 -3 -29 -8 -37 -40zM465 599l-22 -24c-61 31 -117 66 -165 106l59 57
c32 -43 77 -91 128 -139z" />
    <glyph glyph-name="yacute" unicode="&#xfd;" horiz-adv-x="505" 
d="M432 429l-154 -450c-39 -115 -80 -176 -133 -199l-31 34c55 33 86 77 119 169l-170 481l-56 4v41h148l122 -403l111 356l-62 6v41h166v-41l-24 -3c-20 -3 -27 -9 -36 -36zM340 738l59 -57c-48 -40 -104 -75 -165 -106l-22 24c51 48 96 96 128 139z" />
    <glyph glyph-name="ydieresis" unicode="&#xff;" horiz-adv-x="505" 
d="M432 429l-154 -450c-39 -115 -80 -176 -133 -199l-31 34c55 33 86 77 119 169l-170 481l-56 4v41h148l122 -403l111 356l-62 6v41h166v-41l-24 -3c-20 -3 -27 -9 -36 -36zM237 657c0 -32 -26 -58 -57 -58c-32 0 -58 26 -58 58c0 31 26 57 58 57c31 0 57 -26 57 -57z
M417 657c0 -32 -26 -58 -58 -58c-31 0 -57 26 -57 58c0 31 26 57 57 57c32 0 58 -26 58 -57z" />
    <glyph glyph-name="ycircumflex" unicode="&#x177;" horiz-adv-x="505" 
d="M432 429l-154 -450c-39 -115 -80 -176 -133 -199l-31 34c55 33 86 77 119 169l-170 481l-56 4v41h148l122 -403l111 356l-62 6v41h166v-41l-24 -3c-20 -3 -27 -9 -36 -36zM143 575l-22 24c57 56 92 95 124 138h44c29 -40 61 -77 124 -138l-22 -24c-36 21 -71 42 -124 81
c-37 -27 -76 -52 -124 -81z" />
    <glyph glyph-name="ygrave" unicode="&#x1ef3;" horiz-adv-x="505" 
d="M432 429l-154 -450c-39 -115 -80 -176 -133 -199l-31 34c55 33 86 77 119 169l-170 481l-56 4v41h148l122 -403l111 356l-62 6v41h166v-41l-24 -3c-20 -3 -27 -9 -36 -36zM329 599l-22 -24c-61 31 -117 66 -165 106l59 57c32 -43 77 -91 128 -139z" />
    <glyph glyph-name="zcaron" unicode="&#x17e;" horiz-adv-x="433" 
d="M387 475l-238 -432h181l14 97h48v-140h-351v34l238 432h-163l-14 -97h-48v140h333v-34zM68 712l22 25c45 -28 83 -53 124 -82c41 29 79 54 124 82l22 -25c-55 -52 -91 -93 -124 -137h-44c-31 43 -65 81 -124 137z" />
    <glyph glyph-name="zacute" unicode="&#x17a;" horiz-adv-x="433" 
d="M387 475l-238 -432h181l14 97h48v-140h-351v34l238 432h-163l-14 -97h-48v140h333v-34zM289 738l59 -57c-48 -40 -104 -75 -165 -106l-22 24c51 48 96 96 128 139z" />
    <glyph glyph-name="zdotaccent" unicode="&#x17c;" horiz-adv-x="433" 
d="M387 475l-238 -432h181l14 97h48v-140h-351v34l238 432h-163l-14 -97h-48v140h333v-34zM282 657c0 -33 -26 -59 -58 -59c-33 0 -59 26 -59 59c0 32 26 58 59 58c32 0 58 -26 58 -58z" />
    <glyph glyph-name="acute" unicode="&#xb4;" horiz-adv-x="500" 
d="M278 738l59 -57c-48 -40 -104 -75 -165 -106l-22 24c51 48 96 96 128 139z" />
    <glyph glyph-name="grave" unicode="`" horiz-adv-x="500" 
d="M349 599l-22 -24c-61 31 -117 66 -165 106l59 57c32 -43 77 -91 128 -139z" />
    <glyph glyph-name="circumflex" unicode="&#x2c6;" horiz-adv-x="500" 
d="M126 575l-22 24c57 56 92 95 124 138h44c29 -40 61 -77 124 -138l-22 -24c-36 21 -71 42 -124 81c-37 -27 -76 -52 -124 -81z" />
    <glyph glyph-name="caron" unicode="&#x2c7;" horiz-adv-x="500" 
d="M103 712l22 25c45 -28 83 -53 124 -82c41 29 79 54 124 82l22 -25c-55 -52 -91 -93 -124 -137h-44c-31 43 -65 81 -124 137z" />
    <glyph glyph-name="tilde" unicode="&#x2dc;" horiz-adv-x="500" 
d="M187 627c-24 0 -46 -10 -63 -29l-28 18c25 56 56 81 97 81c19 0 33 -3 64 -18s43 -18 62 -18c23 0 41 12 53 33l29 -16c-21 -61 -50 -89 -89 -89c-20 0 -36 4 -67 20c-28 15 -41 18 -58 18z" />
    <glyph glyph-name="dieresis" unicode="&#xa8;" horiz-adv-x="500" 
d="M217 657c0 -32 -26 -58 -57 -58c-32 0 -58 26 -58 58c0 31 26 57 58 57c31 0 57 -26 57 -57zM397 657c0 -32 -26 -58 -58 -58c-31 0 -57 26 -57 58c0 31 26 57 57 57c32 0 58 -26 58 -57z" />
    <glyph glyph-name="ring" unicode="&#x2da;" horiz-adv-x="500" 
d="M361 666c0 -61 -50 -112 -113 -112c-61 0 -112 51 -112 112s51 112 112 112c31 0 57 -11 80 -33c22 -22 33 -48 33 -79zM200 666c0 -44 19 -72 48 -72s48 28 48 72c0 43 -19 71 -48 71c-28 0 -48 -28 -48 -71z" />
    <glyph glyph-name="cedilla" unicode="&#xb8;" horiz-adv-x="500" 
d="M260 -84c-9 0 -20 0 -32 -3l21 101h49l-12 -68c9 1 16 2 24 2c53 0 87 -30 87 -78c0 -65 -47 -105 -120 -105c-43 0 -79 15 -107 44l24 25c20 -20 43 -30 67 -30c36 0 57 21 57 60c0 35 -19 52 -58 52z" />
    <glyph glyph-name="hungarumlaut" unicode="&#x2dd;" horiz-adv-x="500" 
d="M206 738l58 -57c-47 -39 -101 -75 -164 -106l-22 24c47 44 93 94 128 139zM372 738l59 -57c-45 -39 -101 -74 -165 -106l-21 24c48 45 94 95 127 139z" />
    <glyph glyph-name="breve" unicode="&#x2d8;" horiz-adv-x="500" 
d="M121 705h74c0 -61 18 -92 54 -92c35 0 53 31 53 92h74c0 -81 -47 -132 -127 -132s-128 51 -128 132z" />
    <glyph glyph-name="overscore" unicode="&#xaf;" horiz-adv-x="500" 
d="M382 672v-56h-265v56h265z" />
    <glyph glyph-name="dotaccent" unicode="&#x2d9;" horiz-adv-x="500" 
d="M308 657c0 -33 -26 -59 -58 -59c-33 0 -59 26 -59 59c0 32 26 58 59 58c32 0 58 -26 58 -58z" />
    <glyph glyph-name="middot" unicode="&#xb7;" horiz-adv-x="500" 
d="M188 354c0 -32 -25 -57 -57 -57s-57 25 -57 57s25 57 57 57s57 -25 57 -57z" />
    <glyph glyph-name="ogonek" unicode="&#x2db;" horiz-adv-x="500" 
d="M278 -146l28 -17c-24 -49 -58 -72 -107 -72c-63 0 -103 37 -103 96c0 43 20 78 63 110c17 13 41 26 70 41s44 23 46 24l6 -18c-2 -2 -12 -10 -29 -24s-31 -27 -41 -39c-24 -28 -36 -56 -36 -85c0 -37 19 -61 48 -61c24 0 42 14 55 45z" />
    <glyph glyph-name="commaaccent" unicode="&#xf6c3;" horiz-adv-x="500" 
d="M249 -135c-5 -1 -11 -3 -15 -3c-27 0 -41 16 -41 44c0 29 22 51 53 51c33 0 51 -24 51 -67c0 -41 -20 -83 -56 -118h-33c25 32 38 61 41 93z" />
    <glyph glyph-name="caron.alt" unicode="&#xe189;" horiz-adv-x="500" 
d="M162 616c-5 -1 -11 -3 -15 -3c-25 0 -40 16 -40 44c0 29 21 51 52 51c33 0 52 -26 52 -67c0 -40 -21 -83 -57 -118h-32c24 32 37 61 40 93z" />
    <glyph glyph-name="revcommaaccent" unicode="&#xe18a;" horiz-adv-x="500" 
d="M246 569c-32 0 -51 26 -51 67s20 83 56 119h33c-25 -32 -38 -61 -41 -94c3 1 10 3 15 3c27 0 41 -16 41 -44c0 -29 -22 -51 -53 -51z" />
    <glyph glyph-name="period" unicode="." horiz-adv-x="260" 
d="M191 57c0 -33 -28 -61 -61 -61s-61 28 -61 61s28 61 61 61s61 -28 61 -61z" />
    <glyph glyph-name="comma" unicode="," horiz-adv-x="260" 
d="M131 1c-4 -1 -13 -2 -18 -2c-28 0 -44 20 -44 53c0 37 26 66 61 66c39 0 61 -32 61 -87c0 -44 -22 -95 -69 -158h-44c25 43 46 93 53 128z" />
    <glyph glyph-name="colon" unicode=":" horiz-adv-x="260" 
d="M191 454c0 -33 -28 -62 -61 -62s-61 27 -61 62c0 33 28 61 61 61s61 -28 61 -61zM191 57c0 -33 -28 -61 -61 -61s-61 28 -61 61s28 61 61 61s61 -28 61 -61z" />
    <glyph glyph-name="semicolon" unicode=";" horiz-adv-x="260" 
d="M191 454c0 -33 -28 -62 -61 -62s-61 27 -61 62c0 33 28 61 61 61s61 -28 61 -61zM133 1c-4 -1 -13 -2 -18 -2c-28 0 -44 20 -44 53c0 37 26 66 61 66c39 0 61 -32 61 -87c0 -44 -22 -95 -69 -158h-44c25 43 46 93 53 128z" />
    <glyph glyph-name="ellipsis" unicode="&#x2026;" horiz-adv-x="811" 
d="M467 57c0 -33 -28 -61 -61 -61c-35 0 -62 28 -62 61s29 61 62 61s61 -28 61 -61zM191 57c0 -33 -28 -61 -61 -61s-61 28 -61 61s28 61 61 61s61 -28 61 -61zM742 57c0 -33 -28 -61 -61 -61c-35 0 -62 28 -62 61s29 61 62 61s61 -28 61 -61z" />
    <glyph glyph-name="question" unicode="?" horiz-adv-x="517" 
d="M146 606v-111l-47 -5l-24 127c47 45 115 73 184 73c120 0 192 -57 192 -152c0 -28 -6 -54 -17 -77c-12 -23 -37 -52 -75 -87c-37 -35 -62 -63 -73 -86c-12 -23 -18 -47 -18 -74v-25h-52v35c0 29 4 56 13 80s27 53 55 87c26 31 43 57 51 78c7 20 11 42 11 67
c0 69 -36 107 -104 107c-35 0 -71 -14 -96 -37zM246 -4c-35 0 -62 28 -62 61s29 61 62 61s61 -28 61 -61s-28 -61 -61 -61z" />
    <glyph glyph-name="exclam" unicode="!" horiz-adv-x="312" 
d="M133 199l-37 481h119l-37 -481h-45zM95 57c0 33 28 61 61 61s61 -28 61 -61s-28 -61 -61 -61s-61 28 -61 61z" />
    <glyph glyph-name="questiondown" unicode="&#xbf;" horiz-adv-x="508" 
d="M273 520c33 0 61 -28 61 -61s-28 -62 -61 -62s-62 29 -62 62s29 61 62 61zM372 -89v109l47 6l24 -127c-45 -44 -114 -72 -183 -72c-121 0 -193 57 -193 152c0 27 6 53 18 76c11 23 36 52 74 87c37 34 62 62 74 85c11 23 17 47 17 74v25h52v-35c0 -29 -4 -56 -13 -79
c-9 -24 -27 -53 -55 -87c-51 -63 -62 -96 -62 -145c0 -69 36 -107 104 -107c33 0 71 15 96 38z" />
    <glyph glyph-name="exclamdown" unicode="&#xa1;" horiz-adv-x="312" 
d="M217 453c0 -33 -28 -61 -61 -61s-61 28 -61 61s28 61 61 61s61 -28 61 -61zM179 310l37 -479h-119l37 479h45z" />
    <glyph glyph-name="parenleft" unicode="(" horiz-adv-x="374" 
d="M352 -146l-28 -40c-168 144 -249 299 -249 476c0 176 81 333 249 476l28 -40c-123 -144 -177 -279 -177 -436c0 -159 56 -293 177 -436z" />
    <glyph glyph-name="parenright" unicode=")" horiz-adv-x="374" 
d="M49 -186l-27 40c121 143 177 277 177 436c0 157 -54 292 -177 436l27 40c169 -145 250 -299 250 -476s-79 -329 -250 -476z" />
    <glyph glyph-name="braceleft" unicode="{" horiz-adv-x="387" 
d="M125 402v181c0 113 65 177 180 177h57v-45h-38c-65 0 -100 -44 -100 -121v-199c0 -56 -26 -94 -70 -105c43 -11 70 -49 70 -106v-203c0 -76 35 -116 100 -116h38v-45h-57c-115 0 -180 64 -180 177v180c0 60 -21 90 -64 90h-16v45h16c43 0 64 30 64 90z" />
    <glyph glyph-name="braceright" unicode="}" horiz-adv-x="387" 
d="M63 715h-38v45h57c115 0 180 -64 180 -177v-181c0 -60 21 -90 64 -90h16v-45h-16c-43 0 -64 -30 -64 -90v-180c0 -113 -65 -177 -180 -177h-57v45h38c65 0 100 40 100 116v203c0 57 27 95 70 106c-44 11 -70 49 -70 105v199c0 77 -35 121 -100 121z" />
    <glyph glyph-name="bracketleft" unicode="[" horiz-adv-x="377" 
d="M352 -135v-45h-227v940h227v-45h-128v-850h128z" />
    <glyph glyph-name="bracketright" unicode="]" horiz-adv-x="377" 
d="M153 -135v850h-128v45h227v-940h-227v45h128z" />
    <glyph glyph-name="slash" unicode="/" horiz-adv-x="422" 
d="M404 680l-300 -680h-87l300 680h87z" />
    <glyph glyph-name="backslash" unicode="\" horiz-adv-x="423" 
d="M105 680l300 -680h-88l-300 680h88z" />
    <glyph glyph-name="underscore" unicode="_" horiz-adv-x="463" 
d="M30 -49v49h403v-49h-403z" />
    <glyph glyph-name="hyphen" unicode="-" horiz-adv-x="437" 
d="M352 300v-49h-267v49h267z" />
    <glyph glyph-name="uni00AD" unicode="&#xad;" horiz-adv-x="437" 
 />
    <glyph glyph-name="endash" unicode="&#x2013;" horiz-adv-x="500" 
d="M420 300v-49h-340v49h340z" />
    <glyph glyph-name="emdash" unicode="&#x2014;" horiz-adv-x="1000" 
d="M920 300v-49h-840v49h840z" />
    <glyph glyph-name="brokenbar" unicode="&#xa6;" horiz-adv-x="304" 
d="M199 730v-415h-94v415h94zM199 204v-414h-94v414h94z" />
    <glyph glyph-name="bar" unicode="|" horiz-adv-x="304" 
d="M199 730v-940h-94v940h94z" />
    <glyph glyph-name="guillemotleft" unicode="&#xab;" horiz-adv-x="578" 
d="M276 96v-50l-226 188v50l226 188v-50l-132 -163zM503 96v-50l-227 188v50l227 188v-50l-133 -163z" />
    <glyph glyph-name="guillemotright" unicode="&#xbb;" horiz-adv-x="578" 
d="M50 46v50l132 163l-132 163v50l226 -188v-50zM276 46v50l132 163l-132 163v50l227 -188v-50z" />
    <glyph glyph-name="guilsinglleft" unicode="&#x2039;" horiz-adv-x="352" 
d="M276 96v-50l-226 188v50l226 188v-50l-132 -163z" />
    <glyph glyph-name="guilsinglright" unicode="&#x203a;" horiz-adv-x="352" 
d="M75 46v50l133 163l-133 163v50l227 -188v-50z" />
    <glyph glyph-name="quotesinglbase" unicode="&#x201a;" horiz-adv-x="235" 
d="M123 1c-4 -1 -10 -2 -17 -2c-29 0 -46 20 -46 53c0 37 26 64 61 64c40 0 62 -29 62 -80c0 -60 -41 -124 -101 -157l-15 17c32 28 52 66 56 105z" />
    <glyph glyph-name="quotedblbase" unicode="&#x201e;" horiz-adv-x="406" 
d="M123 1c-4 -1 -10 -2 -17 -2c-29 0 -46 20 -46 53c0 37 26 64 61 64c40 0 62 -29 62 -80c0 -60 -41 -124 -101 -157l-15 17c32 28 52 66 56 105zM294 1c-4 -1 -10 -2 -17 -2c-29 0 -46 20 -46 53c0 36 26 64 61 64c40 0 62 -29 62 -80c0 -60 -41 -124 -101 -157l-14 17
c32 28 51 66 55 105z" />
    <glyph glyph-name="quoteleft" unicode="&#x2018;" horiz-adv-x="235" 
d="M179 596c0 -37 -26 -64 -61 -64c-40 0 -62 29 -62 78c0 65 38 125 101 160l15 -17c-33 -28 -52 -67 -56 -107c3 1 9 3 17 3c29 0 46 -20 46 -53z" />
    <glyph glyph-name="quotedblleft" unicode="&#x201c;" horiz-adv-x="406" 
d="M179 596c0 -37 -26 -64 -61 -64c-40 0 -62 29 -62 78c0 65 38 125 101 160l15 -17c-33 -28 -52 -67 -56 -107c3 1 9 3 17 3c29 0 46 -20 46 -53zM350 596c0 -37 -26 -64 -61 -64c-39 0 -62 30 -62 78c0 64 38 125 101 160l15 -17c-33 -28 -52 -67 -56 -107c3 1 9 3 17 3
c29 0 46 -20 46 -53z" />
    <glyph glyph-name="quoteright" unicode="&#x2019;" horiz-adv-x="235" 
d="M123 643c-5 -1 -12 -3 -17 -3c-29 0 -46 21 -46 53c0 37 26 65 61 65c40 0 62 -30 62 -81c0 -61 -41 -125 -101 -158l-15 18c33 28 52 66 56 106z" />
    <glyph glyph-name="quotedblright" unicode="&#x201d;" horiz-adv-x="406" 
d="M123 643c-5 -1 -12 -3 -17 -3c-29 0 -46 21 -46 53c0 37 26 65 61 65c40 0 62 -30 62 -81c0 -61 -41 -125 -101 -158l-15 18c33 28 52 66 56 106zM294 643c-5 -1 -12 -3 -17 -3c-29 0 -46 21 -46 53c0 37 26 65 61 65c40 0 62 -30 62 -81c0 -61 -41 -125 -101 -158
l-14 18c32 29 51 66 55 106z" />
    <glyph glyph-name="quotesingle" unicode="'" horiz-adv-x="266" 
d="M183 680l-19 -223h-63l-19 223h101z" />
    <glyph glyph-name="quotedbl" unicode="&#x22;" horiz-adv-x="433" 
d="M183 680l-19 -223h-63l-19 223h101zM350 680l-19 -223h-63l-19 223h101z" />
    <glyph glyph-name="bullet" unicode="&#x2022;" horiz-adv-x="408" 
d="M298 374c0 -57 -47 -105 -104 -105s-104 46 -104 105c0 57 47 104 104 104c56 0 104 -48 104 -104z" />
    <glyph glyph-name="ampersand" unicode="&#x26;" horiz-adv-x="700" 
d="M520 143l37 -38c35 -39 72 -62 109 -70l-19 -45c-60 0 -100 12 -137 43l-45 38c-53 -53 -120 -81 -195 -81c-123 0 -203 67 -203 172c0 69 33 120 134 185c-72 76 -96 126 -96 183c0 47 17 86 52 116c35 29 79 44 134 44c99 0 166 -60 166 -143c0 -43 -15 -77 -47 -109
c-9 -9 -20 -18 -33 -27s-35 -24 -67 -44l178 -188c20 37 34 82 39 131c0 7 0 10 1 13l-59 6v43h164v-43l-25 -3c-23 -3 -31 -9 -36 -29c-11 -61 -28 -113 -52 -154zM204 547c0 -44 20 -86 76 -147c71 52 96 93 96 148c0 56 -34 94 -85 94s-87 -39 -87 -95zM170 168
c0 -83 45 -131 124 -131c52 0 100 22 140 63l-195 207c-48 -43 -69 -87 -69 -139z" />
    <glyph glyph-name="paragraph" unicode="&#xb6;" horiz-adv-x="565" 
d="M229 390h-9c-105 0 -163 50 -163 145s58 145 163 145h292v-46h-75v-634h-47v634h-69v-634h-92v390z" />
    <glyph glyph-name="dagger" unicode="&#x2020;" horiz-adv-x="469" 
d="M60 406v46h125v252h99v-252h125v-46h-125v-616h-99v616h-125z" />
    <glyph glyph-name="daggerdbl" unicode="&#x2021;" horiz-adv-x="469" 
d="M60 406v46h125v252h99v-252h125v-46h-125v-318h125v-46h-125v-252h-99v252h-125v46h125v318h-125z" />
    <glyph glyph-name="section" unicode="&#xa7;" horiz-adv-x="449" 
d="M214 390l-30 15c-35 -17 -55 -49 -55 -86c0 -23 8 -43 24 -58c15 -16 45 -35 90 -58l30 -16c35 19 56 51 56 87c0 47 -26 73 -115 116zM316 162c48 -32 68 -66 68 -111c0 -81 -70 -137 -177 -137c-49 0 -115 12 -146 28l14 126h45l2 -90c31 -11 57 -16 84 -16
c55 0 87 28 87 72c0 27 -11 45 -40 64c-8 4 -32 17 -71 36c-93 45 -132 92 -132 156c0 57 34 109 91 141c-45 29 -67 65 -67 110c0 84 69 139 177 139c47 0 106 -12 134 -27l-14 -135h-45l-1 99c-28 9 -55 15 -75 15c-53 0 -86 -28 -86 -73c0 -27 11 -45 40 -64
c9 -5 33 -17 72 -36c92 -45 131 -91 131 -156c0 -57 -34 -108 -91 -141z" />
    <glyph glyph-name="asterisk" unicode="*" horiz-adv-x="385" 
d="M35 588l23 72l118 -64l-21 134h75l-25 -133l121 63l23 -72l-135 -18l98 -96l-61 -44l-59 122l-60 -122l-61 45l98 93z" />
    <glyph glyph-name="trademark" unicode="&#x2122;" horiz-adv-x="811" 
d="M55 643l-12 -70h-28v107h304v-107h-29l-12 70h-68v-301l45 -6v-30h-176v30l18 2c21 3 27 7 27 30v275h-69zM334 680h114l123 -230l115 230h109v-32l-18 -3c-21 -4 -27 -8 -27 -29v-274l45 -6v-30h-168v30l18 2c21 3 27 7 27 30v185l-97 -192h-46l-102 188v-207l44 -6v-30
h-137v30l18 2c21 3 27 7 27 30v274l-45 6v32z" />
    <glyph glyph-name="registered" unicode="&#xae;" horiz-adv-x="437" 
d="M399 497c0 -58 -17 -105 -51 -140s-77 -53 -130 -53s-96 18 -130 53s-51 82 -51 140s17 105 51 140c33 35 77 53 130 53s97 -18 131 -53c33 -35 50 -82 50 -140zM364 497c0 99 -58 161 -146 161s-146 -61 -146 -161s58 -162 146 -162c87 0 146 62 146 162zM131 605h77
c53 0 83 -23 83 -63c0 -28 -15 -48 -43 -59l13 -25c15 -28 30 -42 50 -46l-9 -22c-29 0 -53 15 -68 44l-21 42h-16v-62l21 -3v-18h-86v18l10 2c11 1 14 6 14 18v153l-25 3v18zM203 584h-6v-89h8c25 0 42 18 42 45c0 24 -19 44 -44 44z" />
    <glyph glyph-name="copyright" unicode="&#xa9;" horiz-adv-x="744" 
d="M371 690c98 0 178 -32 240 -97s93 -149 93 -253s-31 -188 -93 -253s-142 -97 -240 -97c-97 0 -177 32 -239 97s-93 149 -93 253s31 188 93 253s142 97 239 97zM371 642c-81 0 -148 -28 -200 -84c-53 -56 -79 -129 -79 -218s26 -162 79 -218c53 -57 119 -85 200 -85
s148 28 201 85c53 56 79 129 79 218s-26 162 -79 218s-120 84 -201 84zM489 221l27 -20c-35 -48 -82 -72 -141 -72c-116 0 -183 77 -183 212c0 131 73 209 189 209c51 0 100 -17 137 -45l-21 -105l-35 4v90c-20 11 -51 19 -75 19c-67 0 -109 -70 -109 -171
c0 -104 44 -176 113 -176c39 0 74 20 98 55z" />
    <glyph glyph-name="at" unicode="@" horiz-adv-x="835" 
d="M598 -110l13 -48c-47 -23 -118 -36 -198 -36c-107 0 -194 36 -259 107c-66 71 -99 166 -99 285s34 215 101 288s157 109 268 109c107 0 194 -32 259 -97s97 -149 97 -253c0 -157 -65 -255 -173 -255c-57 0 -104 31 -117 79c-47 -57 -84 -79 -133 -79
c-63 0 -106 40 -106 100c0 69 42 112 138 137l88 23v40c0 55 -23 85 -64 85c-32 0 -57 -6 -77 -19v-88l-43 -6l-21 109c35 27 100 49 147 49c93 0 143 -47 143 -138v-157c0 -60 20 -89 63 -89c63 0 99 72 99 201c0 94 -27 169 -81 226s-127 85 -219 85
c-95 0 -171 -32 -228 -95s-86 -147 -86 -250c0 -109 28 -194 85 -257c56 -62 132 -93 227 -93c68 0 121 12 176 37zM341 105c0 -43 19 -69 50 -69c33 0 66 27 86 68v113l-43 -10c-60 -16 -93 -53 -93 -102z" />
    <glyph glyph-name="ordfeminine" unicode="&#xaa;" horiz-adv-x="411" 
d="M127 632v-74l-48 -6l-21 95c35 27 89 44 138 44c93 0 144 -47 144 -135v-133c0 -57 11 -79 44 -88l-16 -33c-69 0 -102 23 -113 76c-28 -48 -71 -76 -120 -76c-56 0 -94 36 -94 92c0 63 38 98 138 122l74 19v13c0 65 -22 102 -65 102c-25 0 -44 -6 -61 -18zM134 408
c0 -35 17 -56 44 -56c28 0 60 27 75 59v93l-40 -13c-55 -19 -79 -43 -79 -83z" />
    <glyph glyph-name="ordmasculine" unicode="&#xba;" horiz-adv-x="436" 
d="M383 493c0 -116 -68 -190 -167 -190c-104 0 -163 72 -163 197c0 117 67 191 166 191c105 0 164 -71 164 -198zM145 498c0 -99 27 -156 72 -156c49 0 74 50 74 153s-25 157 -73 157c-49 0 -73 -50 -73 -154z" />
    <glyph glyph-name="numbersign" unicode="#" horiz-adv-x="687" 
d="M454 454h-140l-82 -236h140zM393 680l-64 -182h140l64 182h80l-63 -182h101l-17 -44h-100l-82 -236h105l-17 -45h-104l-60 -173h-80l60 173h-140l-60 -173h-81l61 173h-101l17 45h99l82 236h-104l17 44h103l63 182h81z" />
    <glyph glyph-name="Euro" unicode="&#x20ac;" horiz-adv-x="652" 
d="M559 140l38 -20c-49 -88 -121 -130 -214 -130c-139 0 -232 89 -260 248h-83l9 45h68c-1 15 -2 25 -2 56c0 20 0 26 1 34h-71l9 45h65c23 173 126 272 283 272c69 0 140 -21 176 -50l-23 -133l-46 5v109c-23 13 -66 23 -103 23c-107 0 -164 -71 -180 -226h238l-9 -45h-231
c-1 -8 -1 -16 -1 -37c0 -29 1 -40 2 -53h234l-9 -45h-221c20 -129 82 -202 174 -202c64 0 116 35 156 104z" />
    <glyph glyph-name="dollar" unicode="$" horiz-adv-x="551" 
d="M490 187c0 -104 -61 -170 -170 -190v-112h-81v106c-71 3 -139 17 -168 37l2 140h46l14 -106c32 -16 74 -26 113 -26c93 0 145 44 145 123c0 61 -34 101 -121 140l-69 32c-89 40 -132 98 -132 179c0 93 62 161 170 176v109h81v-106c52 -4 99 -16 122 -31l-2 -141h-46
l-15 106c-25 12 -61 20 -88 20c-80 0 -126 -40 -126 -107c0 -53 32 -93 103 -125l70 -33c111 -51 152 -106 152 -191z" />
    <glyph glyph-name="yen" unicode="&#xa5;" horiz-adv-x="622" 
d="M495 153h-134v-105l66 -6v-42h-235v42l30 3c28 4 37 15 37 44v64h-134v45h134v65h-134v44h112l-163 324l-55 6v43h241v-43l-22 -3c-36 -5 -44 -18 -32 -42l135 -279l158 318l-61 6v43h171v-43l-25 -3c-25 -4 -40 -14 -52 -37l-149 -290h112v-44h-134v-65h134v-45z" />
    <glyph glyph-name="sterling" unicode="&#xa3;" horiz-adv-x="545" 
d="M116 509c0 108 76 175 196 175c52 0 111 -11 135 -26l-25 -137l-47 5v104c-13 4 -37 7 -58 7c-69 0 -105 -39 -105 -118c0 -29 6 -57 19 -93c6 -17 29 -71 36 -88h133v-44h-122c3 -15 4 -30 4 -47c0 -85 -54 -158 -150 -203h297l12 108h44v-152h-423v44
c84 56 119 116 119 193c0 13 -1 24 -8 57h-91v44h81c-1 3 -9 25 -24 65s-23 75 -23 106z" />
    <glyph glyph-name="cent" unicode="&#xa2;" horiz-adv-x="468" 
d="M280 37c52 0 91 26 118 79l31 -18c-25 -59 -68 -95 -124 -107v-100h-80v97c-112 13 -174 99 -174 242c0 129 63 216 174 239v101h80v-98c49 -4 88 -17 115 -37l-23 -122l-49 5v98c-17 7 -42 11 -63 11c-84 0 -129 -67 -129 -191c0 -135 40 -199 124 -199z" />
    <glyph glyph-name="florin" unicode="&#x192;" horiz-adv-x="610" 
d="M160 337l10 45h78l13 62c35 163 136 245 301 245l-11 -45c-92 0 -159 -68 -187 -192l-16 -70h118l-9 -45h-118l-47 -221c-22 -103 -54 -174 -97 -213s-106 -59 -189 -59l13 45c83 0 138 70 169 213l50 235h-78z" />
    <glyph glyph-name="currency" unicode="&#xa4;" horiz-adv-x="623" 
d="M162 610l57 -82c25 12 57 18 90 18c32 0 62 -7 90 -19l58 83l66 -45l-59 -85c35 -40 52 -98 52 -169c0 -73 -20 -133 -56 -174l63 -90l-66 -45l-65 92c-23 -12 -50 -17 -83 -17c-32 0 -61 5 -84 16l-63 -91l-66 45l62 89c-37 40 -56 100 -56 175c0 72 17 130 52 170
l-58 84zM205 311c0 -115 37 -180 104 -180c68 0 104 63 104 180c0 116 -37 181 -104 181s-104 -65 -104 -181z" />
    <glyph glyph-name="zero" unicode="0" horiz-adv-x="594" 
d="M539 335c0 -220 -89 -345 -244 -345c-156 0 -240 124 -240 355c0 221 88 345 243 345c156 0 241 -126 241 -355zM161 343c0 -203 44 -304 135 -304c96 0 137 87 137 298c0 203 -45 303 -136 303c-96 0 -136 -89 -136 -297z" />
    <glyph glyph-name="one" unicode="1" horiz-adv-x="455" 
d="M306 680v-634l118 -6v-40h-351v39l98 3c27 1 36 13 36 44v520l-132 -84l-27 43l174 115h84z" />
    <glyph glyph-name="two" unicode="2" horiz-adv-x="537" 
d="M133 609v-112h-49l-19 125c45 43 115 68 192 68c132 0 208 -68 208 -181c0 -42 -13 -86 -39 -133c-27 -47 -93 -133 -198 -258l-62 -74h263l11 108h45v-152h-445v39l107 126c95 111 154 188 178 230c23 42 35 83 35 123c0 80 -41 124 -118 124c-37 0 -77 -13 -109 -33z
" />
    <glyph glyph-name="three" unicode="3" horiz-adv-x="517" 
d="M121 607v-112h-49l-18 124c49 45 118 71 187 71c124 0 204 -67 204 -171c0 -80 -44 -141 -123 -170c96 -25 143 -79 143 -164c0 -59 -21 -106 -64 -141c-43 -36 -98 -54 -166 -54c-88 0 -154 32 -203 101l35 34c45 -60 91 -86 150 -86c85 0 142 56 142 141
c0 92 -62 141 -181 141v48c104 0 162 53 162 145c0 79 -44 128 -115 128c-37 0 -83 -16 -104 -35z" />
    <glyph glyph-name="four" unicode="4" horiz-adv-x="541" 
d="M248 40l35 3c27 3 36 13 36 44v82h-289v35l304 476h77v-467h93v-44h-93v-123l64 -6v-40h-227v40zM319 213v339l-214 -339h214z" />
    <glyph glyph-name="five" unicode="5" horiz-adv-x="498" 
d="M241 418c131 0 217 -79 217 -202c0 -137 -93 -226 -242 -226c-75 0 -142 26 -187 74l31 37c36 -40 84 -62 136 -62c96 0 156 69 156 174c0 100 -58 159 -154 159c-36 0 -66 -6 -91 -19l-28 14l29 313h313v-145h-48l-17 100h-160l-19 -225c17 5 40 8 64 8z" />
    <glyph glyph-name="six" unicode="6" horiz-adv-x="570" 
d="M520 226c0 -69 -20 -126 -61 -170s-95 -66 -161 -66c-155 0 -243 125 -243 337c0 97 20 179 60 242c48 77 125 121 208 121c67 0 125 -23 161 -63l-27 -43c-32 36 -79 56 -128 56c-100 0 -163 -97 -171 -268c43 39 97 60 156 60c128 0 206 -78 206 -206zM157 324
c1 -188 50 -285 139 -285c76 0 120 66 120 177s-44 167 -129 167c-48 0 -95 -22 -130 -59z" />
    <glyph glyph-name="seven" unicode="7" horiz-adv-x="476" 
d="M109 635l-19 -108h-47v153h400v-45l-279 -635h-98l279 635h-236z" />
    <glyph glyph-name="eight" unicode="8" horiz-adv-x="563" 
d="M50 156c0 80 59 146 160 186c-97 53 -132 105 -132 177c0 49 20 90 60 123c40 32 91 48 152 48c119 0 194 -62 194 -153c0 -67 -44 -123 -132 -168c63 -33 105 -63 128 -91c22 -29 33 -62 33 -99c0 -57 -22 -103 -65 -137c-44 -35 -102 -52 -175 -52
c-137 0 -223 63 -223 166zM184 537c0 -53 29 -93 125 -145c51 37 75 82 75 135c0 69 -38 113 -101 113c-59 0 -99 -44 -99 -103zM154 166c0 -77 49 -127 129 -127c73 0 125 48 125 115c0 40 -17 73 -53 104c-20 16 -41 30 -104 62c-63 -37 -97 -91 -97 -154z" />
    <glyph glyph-name="nine" unicode="9" horiz-adv-x="573" 
d="M153 457c0 -108 42 -161 129 -161c49 0 95 21 134 58c-3 189 -50 286 -141 286c-75 0 -122 -72 -122 -183zM416 305c-44 -37 -101 -58 -165 -58c-128 0 -201 75 -201 208c0 67 21 123 64 168s97 67 163 67c152 0 241 -128 241 -341c0 -113 -25 -201 -76 -264
s-119 -95 -204 -95c-65 0 -121 19 -162 56l30 43c37 -32 81 -50 128 -50c108 0 175 95 182 266z" />
    <glyph glyph-name="zeroslash" unicode="&#xe01a;" horiz-adv-x="594" 
d="M298 690c156 0 241 -126 241 -355c0 -220 -89 -345 -244 -345c-156 0 -240 124 -240 355c0 221 88 345 243 345zM297 640c-96 0 -136 -89 -136 -297c0 -104 11 -180 31 -221l173 491c-19 19 -41 27 -68 27zM402 557l-173 -493c19 -17 40 -25 67 -25c96 0 137 87 137 298
c0 97 -11 177 -31 220z" />
    <glyph glyph-name="numbersign.plf" unicode="&#xe020;" horiz-adv-x="687" 
d="M454 454h-140l-82 -236h140zM393 680l-64 -182h140l64 182h80l-63 -182h101l-17 -44h-100l-82 -236h105l-17 -45h-104l-60 -173h-80l60 173h-140l-60 -173h-81l61 173h-101l17 45h99l82 236h-104l17 44h103l63 182h81z" />
    <glyph glyph-name="Euro.plf" unicode="&#xe021;" horiz-adv-x="652" 
d="M559 140l38 -20c-49 -88 -121 -130 -214 -130c-139 0 -232 89 -260 248h-83l9 45h68c-1 15 -2 25 -2 56c0 20 0 26 1 34h-71l9 45h65c23 173 126 272 283 272c69 0 140 -21 176 -50l-23 -133l-46 5v109c-23 13 -66 23 -103 23c-107 0 -164 -71 -180 -226h238l-9 -45h-231
c-1 -8 -1 -16 -1 -37c0 -29 1 -40 2 -53h234l-9 -45h-221c20 -129 82 -202 174 -202c64 0 116 35 156 104z" />
    <glyph glyph-name="dollar.plf" unicode="&#xe022;" horiz-adv-x="551" 
d="M490 187c0 -104 -61 -170 -170 -190v-112h-81v106c-71 3 -139 17 -168 37l2 140h46l14 -106c32 -16 74 -26 113 -26c93 0 145 44 145 123c0 61 -34 101 -121 140l-69 32c-89 40 -132 98 -132 179c0 93 62 161 170 176v109h81v-106c52 -4 99 -16 122 -31l-2 -141h-46
l-15 106c-25 12 -61 20 -88 20c-80 0 -126 -40 -126 -107c0 -53 32 -93 103 -125l70 -33c111 -51 152 -106 152 -191z" />
    <glyph glyph-name="yen.plf" unicode="&#xe023;" horiz-adv-x="622" 
d="M495 153h-134v-105l66 -6v-42h-235v42l30 3c28 4 37 15 37 44v64h-134v45h134v65h-134v44h112l-163 324l-55 6v43h241v-43l-22 -3c-36 -5 -44 -18 -32 -42l135 -279l158 318l-61 6v43h171v-43l-25 -3c-25 -4 -40 -14 -52 -37l-149 -290h112v-44h-134v-65h134v-45z" />
    <glyph glyph-name="sterling.plf" unicode="&#xe024;" horiz-adv-x="545" 
d="M116 509c0 108 76 175 196 175c52 0 111 -11 135 -26l-25 -137l-47 5v104c-13 4 -37 7 -58 7c-69 0 -105 -39 -105 -118c0 -29 6 -57 19 -93c6 -17 29 -71 36 -88h133v-44h-122c3 -15 4 -30 4 -47c0 -85 -54 -158 -150 -203h297l12 108h44v-152h-423v44
c84 56 119 116 119 193c0 13 -1 24 -8 57h-91v44h81c-1 3 -9 25 -24 65s-23 75 -23 106z" />
    <glyph glyph-name="cent.plf" unicode="&#xe025;" horiz-adv-x="468" 
d="M280 37c52 0 91 26 118 79l31 -18c-25 -59 -68 -95 -124 -107v-100h-80v97c-112 13 -174 99 -174 242c0 129 63 216 174 239v101h80v-98c49 -4 88 -17 115 -37l-23 -122l-49 5v98c-17 7 -42 11 -63 11c-84 0 -129 -67 -129 -191c0 -135 40 -199 124 -199z" />
    <glyph glyph-name="zero.plf" unicode="&#xe027;" horiz-adv-x="594" 
d="M539 335c0 -220 -89 -345 -244 -345c-156 0 -240 124 -240 355c0 221 88 345 243 345c156 0 241 -126 241 -355zM161 343c0 -203 44 -304 135 -304c96 0 137 87 137 298c0 203 -45 303 -136 303c-96 0 -136 -89 -136 -297z" />
    <glyph glyph-name="one.plf" unicode="&#xe028;" horiz-adv-x="455" 
d="M306 680v-634l118 -6v-40h-351v39l98 3c27 1 36 13 36 44v520l-132 -84l-27 43l174 115h84z" />
    <glyph glyph-name="two.plf" unicode="&#xe029;" horiz-adv-x="537" 
d="M133 609v-112h-49l-19 125c45 43 115 68 192 68c132 0 208 -68 208 -181c0 -42 -13 -86 -39 -133c-27 -47 -93 -133 -198 -258l-62 -74h263l11 108h45v-152h-445v39l107 126c95 111 154 188 178 230c23 42 35 83 35 123c0 80 -41 124 -118 124c-37 0 -77 -13 -109 -33z
" />
    <glyph glyph-name="three.plf" unicode="&#xe02a;" horiz-adv-x="517" 
d="M121 607v-112h-49l-18 124c49 45 118 71 187 71c124 0 204 -67 204 -171c0 -80 -44 -141 -123 -170c96 -25 143 -79 143 -164c0 -59 -21 -106 -64 -141c-43 -36 -98 -54 -166 -54c-88 0 -154 32 -203 101l35 34c45 -60 91 -86 150 -86c85 0 142 56 142 141
c0 92 -62 141 -181 141v48c104 0 162 53 162 145c0 79 -44 128 -115 128c-37 0 -83 -16 -104 -35z" />
    <glyph glyph-name="four.plf" unicode="&#xe02b;" horiz-adv-x="541" 
d="M248 40l35 3c27 3 36 13 36 44v82h-289v35l304 476h77v-467h93v-44h-93v-123l64 -6v-40h-227v40zM319 213v339l-214 -339h214z" />
    <glyph glyph-name="five.plf" unicode="&#xe02c;" horiz-adv-x="498" 
d="M241 418c131 0 217 -79 217 -202c0 -137 -93 -226 -242 -226c-75 0 -142 26 -187 74l31 37c36 -40 84 -62 136 -62c96 0 156 69 156 174c0 100 -58 159 -154 159c-36 0 -66 -6 -91 -19l-28 14l29 313h313v-145h-48l-17 100h-160l-19 -225c17 5 40 8 64 8z" />
    <glyph glyph-name="six.plf" unicode="&#xe02d;" horiz-adv-x="570" 
d="M520 226c0 -69 -20 -126 -61 -170s-95 -66 -161 -66c-155 0 -243 125 -243 337c0 97 20 179 60 242c48 77 125 121 208 121c67 0 125 -23 161 -63l-27 -43c-32 36 -79 56 -128 56c-100 0 -163 -97 -171 -268c43 39 97 60 156 60c128 0 206 -78 206 -206zM157 324
c1 -188 50 -285 139 -285c76 0 120 66 120 177s-44 167 -129 167c-48 0 -95 -22 -130 -59z" />
    <glyph glyph-name="seven.plf" unicode="&#xe02e;" horiz-adv-x="476" 
d="M109 635l-19 -108h-47v153h400v-45l-279 -635h-98l279 635h-236z" />
    <glyph glyph-name="eight.plf" unicode="&#xe02f;" horiz-adv-x="563" 
d="M50 156c0 80 59 146 160 186c-97 53 -132 105 -132 177c0 49 20 90 60 123c40 32 91 48 152 48c119 0 194 -62 194 -153c0 -67 -44 -123 -132 -168c63 -33 105 -63 128 -91c22 -29 33 -62 33 -99c0 -57 -22 -103 -65 -137c-44 -35 -102 -52 -175 -52
c-137 0 -223 63 -223 166zM184 537c0 -53 29 -93 125 -145c51 37 75 82 75 135c0 69 -38 113 -101 113c-59 0 -99 -44 -99 -103zM154 166c0 -77 49 -127 129 -127c73 0 125 48 125 115c0 40 -17 73 -53 104c-20 16 -41 30 -104 62c-63 -37 -97 -91 -97 -154z" />
    <glyph glyph-name="nine.plf" unicode="&#xe030;" horiz-adv-x="573" 
d="M153 457c0 -108 42 -161 129 -161c49 0 95 21 134 58c-3 189 -50 286 -141 286c-75 0 -122 -72 -122 -183zM416 305c-44 -37 -101 -58 -165 -58c-128 0 -201 75 -201 208c0 67 21 123 64 168s97 67 163 67c152 0 241 -128 241 -341c0 -113 -25 -201 -76 -264
s-119 -95 -204 -95c-65 0 -121 19 -162 56l30 43c37 -32 81 -50 128 -50c108 0 175 95 182 266z" />
    <glyph glyph-name="zeroslash.plf" unicode="&#xe031;" horiz-adv-x="594" 
d="M298 690c156 0 241 -126 241 -355c0 -220 -89 -345 -244 -345c-156 0 -240 124 -240 355c0 221 88 345 243 345zM297 640c-96 0 -136 -89 -136 -297c0 -104 11 -180 31 -221l173 491c-19 19 -41 27 -68 27zM402 557l-173 -493c19 -17 40 -25 67 -25c96 0 137 87 137 298
c0 97 -11 177 -31 220z" />
    <glyph glyph-name="numbersign.tlf" unicode="&#xe032;" horiz-adv-x="630" 
d="M430 454h-140l-82 -236h140zM369 680l-64 -182h140l64 182h80l-63 -182h101l-17 -44h-100l-82 -236h105l-17 -45h-104l-60 -173h-80l60 173h-140l-60 -173h-81l61 173h-101l17 45h99l82 236h-104l17 44h103l63 182h81z" />
    <glyph glyph-name="Euro.tlf" unicode="&#xe033;" horiz-adv-x="630" 
d="M553 140l38 -20c-49 -88 -121 -130 -214 -130c-139 0 -232 89 -260 248h-83l9 45h68c-1 15 -2 25 -2 56c0 20 0 26 1 34h-71l9 45h65c23 173 126 272 283 272c69 0 140 -21 176 -50l-23 -133l-46 5v109c-23 13 -66 23 -103 23c-107 0 -164 -71 -180 -226h238l-9 -45h-231
c-1 -8 -1 -16 -1 -37c0 -29 1 -40 2 -53h234l-9 -45h-221c20 -129 82 -202 174 -202c64 0 116 35 156 104z" />
    <glyph glyph-name="dollar.tlf" unicode="&#xe034;" horiz-adv-x="630" 
d="M532 187c0 -104 -61 -170 -170 -190v-112h-81v106c-71 3 -139 17 -168 37l2 140h46l14 -106c32 -16 74 -26 113 -26c93 0 145 44 145 123c0 61 -34 101 -121 140l-69 32c-89 40 -132 98 -132 179c0 93 62 161 170 176v109h81v-106c52 -4 99 -16 122 -31l-2 -141h-46
l-15 106c-25 12 -61 20 -88 20c-80 0 -126 -40 -126 -107c0 -53 32 -93 103 -125l70 -33c111 -51 152 -106 152 -191z" />
    <glyph glyph-name="yen.tlf" unicode="&#xe035;" horiz-adv-x="630" 
d="M495 153h-134v-105l66 -6v-42h-235v42l30 3c28 4 37 15 37 44v64h-134v45h134v65h-134v44h112l-163 324l-55 6v43h241v-43l-22 -3c-36 -5 -44 -18 -32 -42l135 -279l158 318l-61 6v43h171v-43l-25 -3c-25 -4 -40 -14 -52 -37l-149 -290h112v-44h-134v-65h134v-45z" />
    <glyph glyph-name="sterling.tlf" unicode="&#xe036;" horiz-adv-x="630" 
d="M159 509c0 108 76 175 196 175c52 0 111 -11 135 -26l-25 -137l-47 5v104c-13 4 -37 7 -58 7c-69 0 -105 -39 -105 -118c0 -29 6 -57 19 -93c6 -17 29 -71 36 -88h133v-44h-122c3 -15 4 -30 4 -47c0 -85 -54 -158 -150 -203h297l12 108h44v-152h-423v44
c84 56 119 116 119 193c0 13 -1 24 -8 57h-91v44h81c-1 3 -9 25 -24 65s-23 75 -23 106z" />
    <glyph glyph-name="cent.tlf" unicode="&#xe037;" horiz-adv-x="630" 
d="M348 37c52 0 91 26 118 79l31 -18c-25 -59 -68 -95 -124 -107v-100h-80v97c-112 13 -174 99 -174 242c0 129 63 216 174 239v101h80v-98c49 -4 88 -17 115 -37l-23 -122l-49 5v98c-17 7 -42 11 -63 11c-84 0 -129 -67 -129 -191c0 -135 40 -199 124 -199z" />
    <glyph glyph-name="zero.tlf" unicode="&#xe039;" horiz-adv-x="630" 
d="M556 335c0 -220 -89 -345 -244 -345c-156 0 -240 124 -240 355c0 221 88 345 243 345c156 0 241 -126 241 -355zM178 343c0 -203 44 -304 135 -304c96 0 137 87 137 298c0 203 -45 303 -136 303c-96 0 -136 -89 -136 -297z" />
    <glyph glyph-name="one.tlf" unicode="&#xe03a;" horiz-adv-x="630" 
d="M382 680v-634l118 -6v-40h-351v39l98 3c27 1 36 13 36 44v520l-132 -84l-27 43l174 115h84z" />
    <glyph glyph-name="two.tlf" unicode="&#xe03b;" horiz-adv-x="630" 
d="M179 609v-112h-49l-19 125c45 43 115 68 192 68c132 0 208 -68 208 -181c0 -42 -13 -86 -39 -133c-27 -47 -93 -133 -198 -258l-62 -74h263l11 108h45v-152h-445v39l107 126c95 111 154 188 178 230c23 42 35 83 35 123c0 80 -41 124 -118 124c-37 0 -77 -13 -109 -33z
" />
    <glyph glyph-name="three.tlf" unicode="&#xe03c;" horiz-adv-x="630" 
d="M183 607v-112h-49l-18 124c49 45 118 71 187 71c124 0 204 -67 204 -171c0 -80 -44 -141 -123 -170c96 -25 143 -79 143 -164c0 -59 -21 -106 -64 -141c-43 -36 -98 -54 -166 -54c-88 0 -154 32 -203 101l35 34c45 -60 91 -86 150 -86c85 0 142 56 142 141
c0 92 -62 141 -181 141v48c104 0 162 53 162 145c0 79 -44 128 -115 128c-37 0 -83 -16 -104 -35z" />
    <glyph glyph-name="four.tlf" unicode="&#xe03d;" horiz-adv-x="630" 
d="M290 40l35 3c27 3 36 13 36 44v82h-289v35l304 476h77v-467h93v-44h-93v-123l64 -6v-40h-227v40zM361 213v339l-214 -339h214z" />
    <glyph glyph-name="five.tlf" unicode="&#xe03e;" horiz-adv-x="630" 
d="M309 418c131 0 217 -79 217 -202c0 -137 -93 -226 -242 -226c-75 0 -142 26 -187 74l31 37c36 -40 84 -62 136 -62c96 0 156 69 156 174c0 100 -58 159 -154 159c-36 0 -66 -6 -91 -19l-28 14l29 313h313v-145h-48l-17 100h-160l-19 -225c17 5 40 8 64 8z" />
    <glyph glyph-name="six.tlf" unicode="&#xe03f;" horiz-adv-x="630" 
d="M546 226c0 -69 -20 -126 -61 -170s-95 -66 -161 -66c-155 0 -243 125 -243 337c0 97 20 179 60 242c48 77 125 121 208 121c67 0 125 -23 161 -63l-27 -43c-32 36 -79 56 -128 56c-100 0 -163 -97 -171 -268c43 39 97 60 156 60c128 0 206 -78 206 -206zM183 324
c1 -188 50 -285 139 -285c76 0 120 66 120 177s-44 167 -129 167c-48 0 -95 -22 -130 -59z" />
    <glyph glyph-name="seven.tlf" unicode="&#xe040;" horiz-adv-x="630" 
d="M192 635l-19 -108h-47v153h400v-45l-279 -635h-98l279 635h-236z" />
    <glyph glyph-name="eight.tlf" unicode="&#xe041;" horiz-adv-x="630" 
d="M83 156c0 80 59 146 160 186c-97 53 -132 105 -132 177c0 49 20 90 60 123c40 32 91 48 152 48c119 0 194 -62 194 -153c0 -67 -44 -123 -132 -168c63 -33 105 -63 128 -91c22 -29 33 -62 33 -99c0 -57 -22 -103 -65 -137c-44 -35 -102 -52 -175 -52
c-137 0 -223 63 -223 166zM217 537c0 -53 29 -93 125 -145c51 37 75 82 75 135c0 69 -38 113 -101 113c-59 0 -99 -44 -99 -103zM187 166c0 -77 49 -127 129 -127c73 0 125 48 125 115c0 40 -17 73 -53 104c-20 16 -41 30 -104 62c-63 -37 -97 -91 -97 -154z" />
    <glyph glyph-name="nine.tlf" unicode="&#xe042;" horiz-adv-x="630" 
d="M183 457c0 -108 42 -161 129 -161c49 0 95 21 134 58c-3 189 -50 286 -141 286c-75 0 -122 -72 -122 -183zM446 305c-44 -37 -101 -58 -165 -58c-128 0 -201 75 -201 208c0 67 21 123 64 168s97 67 163 67c152 0 241 -128 241 -341c0 -113 -25 -201 -76 -264
s-119 -95 -204 -95c-65 0 -121 19 -162 56l30 43c37 -32 81 -50 128 -50c108 0 175 95 182 266z" />
    <glyph glyph-name="zeroslash.tlf" unicode="&#xe043;" horiz-adv-x="630" 
d="M315 690c156 0 241 -126 241 -355c0 -220 -89 -345 -244 -345c-156 0 -240 124 -240 355c0 221 88 345 243 345zM314 640c-96 0 -136 -89 -136 -297c0 -104 11 -180 31 -221l173 491c-19 19 -41 27 -68 27zM419 557l-173 -493c19 -17 40 -25 67 -25c96 0 137 87 137 298
c0 97 -11 177 -31 220z" />
    <glyph glyph-name="numbersign.tosf" unicode="&#xe044;" horiz-adv-x="630" 
d="M413 414h-125l-73 -211h125zM361 626l-58 -167h125l58 167h80l-58 -167h82l-19 -45h-78l-73 -211h85l-18 -45h-83l-54 -158h-80l54 158h-125l-54 -158h-80l54 158h-80l18 45h78l73 211h-84l17 45h82l58 167h80z" />
    <glyph glyph-name="Euro.tosf" unicode="&#xe045;" horiz-adv-x="630" 
d="M78 399h66c25 148 120 236 252 236c65 0 123 -18 163 -50l-22 -124l-45 4v102c-23 13 -55 20 -91 20c-88 0 -140 -63 -155 -188h195l-10 -45h-188c-1 -8 -1 -17 -1 -38c0 -25 0 -36 1 -45h192l-10 -45h-178c16 -121 70 -189 150 -189c55 0 100 32 129 88l37 -20
c-45 -79 -104 -115 -184 -115c-123 0 -210 88 -235 236h-82l9 45h68c-1 9 -2 20 -2 45c0 21 0 30 1 38h-69z" />
    <glyph glyph-name="dollar.tosf" unicode="&#xe046;" horiz-adv-x="630" 
d="M319 376l71 -32c88 -39 130 -92 130 -164c0 -101 -58 -167 -165 -184v-102h-79v97c-69 1 -133 14 -164 33l2 132h46l12 -99c32 -12 74 -20 113 -20c87 0 137 44 137 116c0 45 -31 80 -100 112l-70 32c-96 43 -131 87 -131 174c0 77 59 144 155 160v100h79v-96
c51 -3 101 -13 125 -26l-2 -143h-46l-12 108c-28 9 -62 14 -89 14c-76 0 -115 -33 -115 -94c0 -52 26 -83 103 -118z" />
    <glyph glyph-name="yen.tosf" unicode="&#xe047;" horiz-adv-x="630" 
d="M203 40l29 3c27 4 36 13 36 44v58h-128v42h128v70h-128v41h109l-146 277l-56 7v43h235v-43l-22 -3c-33 -5 -44 -14 -39 -27l124 -249l134 272l-62 7v43h171v-43l-25 -3c-23 -4 -39 -14 -50 -31l-125 -250h110v-41h-130v-70h130v-42h-130v-99l65 -5v-41h-230v40z" />
    <glyph glyph-name="sterling.tosf" unicode="&#xe048;" horiz-adv-x="630" 
d="M172 471c0 97 72 159 179 159c49 0 104 -11 131 -26l-23 -128l-46 4v95c-17 5 -39 8 -58 8c-55 0 -90 -39 -90 -106c0 -27 7 -60 22 -97c14 -37 22 -61 25 -71h119v-45h-113c3 -12 3 -23 3 -35c0 -73 -54 -145 -137 -185h270l11 108h45v-152h-390v45
c71 43 107 103 107 176c0 17 -1 30 -4 43h-85v45h79c-1 4 -9 25 -23 62c-15 37 -22 70 -22 100z" />
    <glyph glyph-name="cent.tosf" unicode="&#xe049;" horiz-adv-x="630" 
d="M352 37c43 0 76 25 100 73l32 -16c-23 -56 -65 -94 -117 -103v-90h-79v89c-96 16 -150 94 -150 218c0 119 55 198 150 221v95h79v-89c43 -3 87 -18 116 -38l-23 -119l-48 4v96c-19 7 -38 11 -58 11c-73 0 -110 -58 -110 -175c0 -120 35 -177 108 -177z" />
    <glyph glyph-name="zero.tosf" unicode="&#xe04b;" horiz-adv-x="630" 
d="M543 252c0 -163 -88 -262 -229 -262c-143 0 -227 100 -227 269c0 161 90 260 230 260c143 0 226 -99 226 -267zM191 257c0 -145 43 -222 124 -222c85 0 125 69 125 218c0 143 -44 221 -124 221c-85 0 -125 -70 -125 -217z" />
    <glyph glyph-name="one.tosf" unicode="&#xe04c;" horiz-adv-x="630" 
d="M388 44l107 -7v-37h-337v37l94 6c28 3 38 16 38 45v354l-132 -70l-23 44l169 93h84v-465z" />
    <glyph glyph-name="two.tosf" unicode="&#xe04d;" horiz-adv-x="629" 
d="M487 381c0 -34 -13 -71 -39 -110c-27 -39 -76 -94 -149 -165l-64 -62h219l12 108h44v-152h-391v42l76 74c81 78 134 135 160 171c25 35 38 69 38 100c0 52 -35 85 -92 85c-32 0 -72 -12 -87 -27v-105h-49l-15 120c37 37 99 59 171 59c101 0 166 -55 166 -138z" />
    <glyph glyph-name="three.tosf" unicode="&#xe04e;" horiz-adv-x="630" 
d="M199 439v-105h-49l-18 120c49 44 110 65 182 65c111 0 187 -61 187 -152c0 -75 -49 -133 -133 -157c100 -17 151 -68 151 -148c0 -51 -20 -94 -59 -127c-40 -33 -91 -49 -153 -49c-80 0 -146 30 -197 90l36 32c43 -51 89 -75 142 -75c76 0 128 51 128 128
c0 84 -52 124 -163 124v44c95 0 145 45 145 129c0 69 -41 114 -102 114c-31 0 -68 -13 -97 -33z" />
    <glyph glyph-name="four.tosf" unicode="&#xe04f;" horiz-adv-x="630" 
d="M373 0h-283v48l285 461h88v-465h77v-44h-77v-104h-90v104zM373 44v365l-220 -365h220z" />
    <glyph glyph-name="five.tosf" unicode="&#xe050;" horiz-adv-x="630" 
d="M315 275c129 0 207 -71 207 -188c0 -59 -21 -108 -62 -145s-97 -56 -167 -56c-72 0 -130 23 -185 72l37 40c40 -43 86 -64 137 -64c85 0 137 56 137 145c0 95 -50 147 -142 147c-33 0 -60 -5 -87 -18l-30 10l26 291h289v-140h-49l-16 96h-142l-16 -199c21 7 40 9 63 9z
" />
    <glyph glyph-name="six.tosf" unicode="&#xe051;" horiz-adv-x="630" 
d="M535 209c0 -63 -20 -116 -59 -157s-89 -62 -150 -62c-147 0 -232 118 -232 315c0 88 22 164 62 223c48 68 121 107 197 107c68 0 118 -25 165 -86l-45 -36c-27 48 -72 74 -124 74c-91 0 -149 -89 -154 -244c43 36 95 56 150 56c116 0 190 -73 190 -190zM194 300
c1 -176 46 -263 131 -263c68 0 109 60 109 156c0 103 -40 155 -119 155c-43 0 -84 -16 -121 -48z" />
    <glyph glyph-name="seven.tosf" unicode="&#xe052;" horiz-adv-x="630" 
d="M117 509h396v-58l-254 -555h-102l261 569h-236l-17 -110h-48v154z" />
    <glyph glyph-name="eight.tosf" unicode="&#xe053;" horiz-adv-x="630" 
d="M97 145c0 73 52 132 143 167c-88 45 -120 90 -120 155c0 50 19 91 58 122c38 31 86 46 145 46c113 0 187 -60 187 -145c0 -64 -37 -114 -120 -154c109 -55 142 -100 142 -167c0 -53 -21 -96 -62 -129c-42 -33 -97 -50 -164 -50c-128 0 -209 59 -209 155zM222 489
c0 -51 27 -85 120 -130c48 35 69 73 69 124c0 60 -38 104 -93 104c-57 0 -96 -41 -96 -98zM199 151c0 -71 45 -114 118 -114c67 0 113 45 113 108c0 37 -15 68 -50 93c-19 15 -36 25 -97 54c-53 -32 -84 -85 -84 -141z" />
    <glyph glyph-name="nine.tosf" unicode="&#xe054;" horiz-adv-x="630" 
d="M196 306c0 -95 39 -143 118 -143c41 0 84 18 117 49c-1 169 -44 260 -121 260c-71 0 -114 -63 -114 -166zM429 170c-41 -35 -93 -54 -146 -54c-119 0 -187 67 -187 187c0 61 20 113 61 154c40 41 90 62 151 62c140 0 223 -115 223 -307c0 -102 -24 -182 -73 -240
c-49 -57 -114 -86 -197 -86c-60 0 -113 17 -157 50l28 44c35 -27 76 -41 121 -41c108 0 169 79 176 231z" />
    <glyph glyph-name="zeroslash.tosf" unicode="&#xe055;" horiz-adv-x="630" 
d="M317 519c143 0 226 -99 226 -267c0 -163 -88 -262 -229 -262c-143 0 -227 100 -227 269c0 161 90 260 230 260zM316 474c-84 0 -125 -70 -125 -217c0 -79 12 -137 35 -170l143 372c-16 9 -34 15 -53 15zM404 424l-145 -373c17 -11 36 -16 56 -16c85 0 125 70 125 218
c0 76 -12 131 -36 171z" />
    <glyph glyph-name="numbersign.posf" unicode="&#xe056;" horiz-adv-x="616" 
d="M407 414h-125l-73 -211h125zM355 626l-58 -167h125l58 167h80l-58 -167h82l-19 -45h-78l-73 -211h85l-18 -45h-83l-54 -158h-80l54 158h-125l-54 -158h-80l54 158h-80l18 45h78l73 211h-84l17 45h82l58 167h80z" />
    <glyph glyph-name="Euro.posf" unicode="&#xe057;" horiz-adv-x="581" 
d="M49 399h66c25 148 120 236 252 236c65 0 123 -18 163 -50l-22 -124l-45 4v102c-23 13 -55 20 -91 20c-88 0 -140 -63 -155 -188h195l-10 -45h-188c-1 -8 -1 -17 -1 -38c0 -25 0 -36 1 -45h192l-10 -45h-178c16 -121 70 -189 150 -189c55 0 100 32 129 88l37 -20
c-45 -79 -104 -115 -184 -115c-123 0 -210 88 -235 236h-82l9 45h68c-1 9 -2 20 -2 45c0 21 0 30 1 38h-69z" />
    <glyph glyph-name="dollar.posf" unicode="&#xe058;" horiz-adv-x="517" 
d="M263 376l71 -32c88 -39 130 -92 130 -164c0 -101 -58 -167 -165 -184v-102h-79v97c-69 1 -133 14 -164 33l2 132h46l12 -99c32 -12 74 -20 113 -20c87 0 137 44 137 116c0 45 -31 80 -100 112l-70 32c-96 43 -131 87 -131 174c0 77 59 144 155 160v100h79v-96
c51 -3 101 -13 125 -26l-2 -143h-46l-12 108c-28 9 -62 14 -89 14c-76 0 -115 -33 -115 -94c0 -52 26 -83 103 -118z" />
    <glyph glyph-name="yen.posf" unicode="&#xe059;" horiz-adv-x="584" 
d="M178 40l29 3c27 4 36 13 36 44v58h-128v42h128v70h-128v41h109l-146 277l-56 7v43h235v-43l-22 -3c-33 -5 -44 -14 -39 -27l124 -249l134 272l-62 7v43h171v-43l-25 -3c-23 -4 -39 -14 -50 -31l-125 -250h110v-41h-130v-70h130v-42h-130v-99l65 -5v-41h-230v40z" />
    <glyph glyph-name="sterling.posf" unicode="&#xe05a;" horiz-adv-x="489" 
d="M110 471c0 97 72 159 179 159c49 0 104 -11 131 -26l-23 -128l-46 4v95c-17 5 -39 8 -58 8c-55 0 -90 -39 -90 -106c0 -27 7 -60 22 -97c14 -37 22 -61 25 -71h119v-45h-113c3 -12 3 -23 3 -35c0 -73 -54 -145 -137 -185h270l11 108h45v-152h-390v45
c71 43 107 103 107 176c0 17 -1 30 -4 43h-85v45h79c-1 4 -9 25 -23 62c-15 37 -22 70 -22 100z" />
    <glyph glyph-name="cent.posf" unicode="&#xe05b;" horiz-adv-x="443" 
d="M267 37c43 0 76 25 100 73l32 -16c-23 -56 -65 -94 -117 -103v-90h-79v89c-96 16 -150 94 -150 218c0 119 55 198 150 221v95h79v-89c43 -3 87 -18 116 -38l-23 -119l-48 4v96c-19 7 -38 11 -58 11c-73 0 -110 -58 -110 -175c0 -120 35 -177 108 -177z" />
    <glyph glyph-name="zero.posf" unicode="&#xe05d;" horiz-adv-x="566" 
d="M512 252c0 -163 -88 -262 -229 -262c-143 0 -227 100 -227 269c0 161 90 260 230 260c143 0 226 -99 226 -267zM160 257c0 -145 43 -222 124 -222c85 0 125 69 125 218c0 143 -44 221 -124 221c-85 0 -125 -70 -125 -217z" />
    <glyph glyph-name="one.posf" unicode="&#xe05e;" horiz-adv-x="418" 
d="M280 44l107 -7v-37h-337v37l94 6c28 3 38 16 38 45v354l-132 -70l-23 44l169 93h84v-465z" />
    <glyph glyph-name="two.posf" unicode="&#xe05f;" horiz-adv-x="479" 
d="M409 381c0 -34 -13 -71 -39 -110c-27 -39 -76 -94 -149 -165l-64 -62h219l12 108h44v-152h-391v42l76 74c81 78 134 135 160 171c25 35 38 69 38 100c0 52 -35 85 -92 85c-32 0 -72 -12 -87 -27v-105h-49l-15 120c37 37 99 59 171 59c101 0 166 -55 166 -138z" />
    <glyph glyph-name="three.posf" unicode="&#xe060;" horiz-adv-x="473" 
d="M107 439v-105h-49l-18 120c49 44 110 65 182 65c111 0 187 -61 187 -152c0 -75 -49 -133 -133 -157c100 -17 151 -68 151 -148c0 -51 -20 -94 -59 -127c-40 -33 -91 -49 -153 -49c-80 0 -146 30 -197 90l36 32c43 -51 89 -75 142 -75c76 0 128 51 128 128
c0 84 -52 124 -163 124v44c95 0 145 45 145 129c0 69 -41 114 -102 114c-31 0 -68 -13 -97 -33z" />
    <glyph glyph-name="four.posf" unicode="&#xe061;" horiz-adv-x="496" 
d="M306 0h-283v48l285 461h88v-465h77v-44h-77v-104h-90v104zM306 44v365l-220 -365h220z" />
    <glyph glyph-name="five.posf" unicode="&#xe062;" horiz-adv-x="471" 
d="M228 275c129 0 207 -71 207 -188c0 -59 -21 -108 -62 -145s-97 -56 -167 -56c-72 0 -130 23 -185 72l37 40c40 -43 86 -64 137 -64c85 0 137 56 137 145c0 95 -50 147 -142 147c-33 0 -60 -5 -87 -18l-30 10l26 291h289v-140h-49l-16 96h-142l-16 -199c21 7 40 9 63 9z
" />
    <glyph glyph-name="six.posf" unicode="&#xe063;" horiz-adv-x="538" 
d="M496 209c0 -63 -20 -116 -59 -157s-89 -62 -150 -62c-147 0 -232 118 -232 315c0 88 22 164 62 223c48 68 121 107 197 107c68 0 118 -25 165 -86l-45 -36c-27 48 -72 74 -124 74c-91 0 -149 -89 -154 -244c43 36 95 56 150 56c116 0 190 -73 190 -190zM155 300
c1 -176 46 -263 131 -263c68 0 109 60 109 156c0 103 -40 155 -119 155c-43 0 -84 -16 -121 -48z" />
    <glyph glyph-name="seven.posf" unicode="&#xe064;" horiz-adv-x="458" 
d="M35 509h396v-58l-254 -555h-102l261 569h-236l-17 -110h-48v154z" />
    <glyph glyph-name="eight.posf" unicode="&#xe065;" horiz-adv-x="529" 
d="M47 145c0 73 52 132 143 167c-88 45 -120 90 -120 155c0 50 19 91 58 122c38 31 86 46 145 46c113 0 187 -60 187 -145c0 -64 -37 -114 -120 -154c109 -55 142 -100 142 -167c0 -53 -21 -96 -62 -129c-42 -33 -97 -50 -164 -50c-128 0 -209 59 -209 155zM172 489
c0 -51 27 -85 120 -130c48 35 69 73 69 124c0 60 -38 104 -93 104c-57 0 -96 -41 -96 -98zM149 151c0 -71 45 -114 118 -114c67 0 113 45 113 108c0 37 -15 68 -50 93c-19 15 -36 25 -97 54c-53 -32 -84 -85 -84 -141z" />
    <glyph glyph-name="nine.posf" unicode="&#xe066;" horiz-adv-x="542" 
d="M147 306c0 -95 39 -143 118 -143c41 0 84 18 117 49c-1 169 -44 260 -121 260c-71 0 -114 -63 -114 -166zM380 170c-41 -35 -93 -54 -146 -54c-119 0 -187 67 -187 187c0 61 20 113 61 154c40 41 90 62 151 62c140 0 223 -115 223 -307c0 -102 -24 -182 -73 -240
c-49 -57 -114 -86 -197 -86c-60 0 -113 17 -157 50l28 44c35 -27 76 -41 121 -41c108 0 169 79 176 231z" />
    <glyph glyph-name="zeroslash.posf" unicode="&#xe067;" horiz-adv-x="566" 
d="M286 519c143 0 226 -99 226 -267c0 -163 -88 -262 -229 -262c-143 0 -227 100 -227 269c0 161 90 260 230 260zM285 474c-84 0 -125 -70 -125 -217c0 -79 12 -137 35 -170l143 372c-16 9 -34 15 -53 15zM373 424l-145 -373c17 -11 36 -16 56 -16c85 0 125 70 125 218
c0 76 -12 131 -36 171z" />
    <glyph glyph-name="degree" unicode="&#xb0;" horiz-adv-x="323" 
d="M299 543c0 -43 -13 -78 -40 -105s-60 -41 -98 -41s-70 14 -97 41s-40 62 -40 105s13 79 40 106s59 41 97 41s71 -14 98 -41s40 -63 40 -106zM96 543c0 -63 25 -99 65 -99s66 38 66 99c0 63 -26 100 -66 100c-39 0 -65 -39 -65 -100z" />
    <glyph glyph-name="percent" unicode="%" horiz-adv-x="775" 
d="M319 520c0 -99 -60 -165 -145 -165c-87 0 -142 66 -142 170c0 99 60 165 144 165c88 0 143 -66 143 -170zM593 666l53 -40l-479 -628l-53 40zM116 523c0 -83 19 -124 59 -124s60 40 60 121c0 84 -20 125 -60 125s-59 -41 -59 -122zM742 154c0 -99 -60 -164 -144 -164
c-87 0 -143 66 -143 169c0 100 60 165 145 165c87 0 142 -65 142 -170zM539 158c0 -83 20 -124 60 -124s59 40 59 121c0 83 -20 125 -59 125c-40 0 -60 -39 -60 -122z" />
    <glyph glyph-name="perthousand" unicode="&#x2030;" horiz-adv-x="1131" 
d="M319 520c0 -99 -60 -165 -145 -165c-87 0 -142 66 -142 170c0 99 60 165 144 165c88 0 143 -66 143 -170zM593 666l53 -40l-479 -628l-53 40zM116 523c0 -83 19 -124 59 -124s60 40 60 121c0 84 -20 125 -60 125s-59 -41 -59 -122zM1098 154c0 -99 -60 -164 -144 -164
c-87 0 -142 66 -142 169c0 100 60 165 144 165c88 0 142 -65 142 -170zM742 154c0 -99 -60 -164 -144 -164c-87 0 -143 66 -143 169c0 100 60 165 145 165c87 0 142 -65 142 -170zM895 158c0 -83 20 -124 60 -124s60 40 60 121c0 84 -20 125 -60 125s-60 -39 -60 -122z
M539 158c0 -83 20 -124 60 -124s59 40 59 121c0 83 -20 125 -59 125c-40 0 -60 -39 -60 -122z" />
    <glyph glyph-name="fraction" unicode="&#x2044;" horiz-adv-x="133" 
d="M215 659l58 -33l-355 -631l-57 33z" />
    <glyph glyph-name="uni2215" unicode="&#x2215;" horiz-adv-x="133" 
d="M215 659l58 -33l-355 -631l-57 33z" />
    <glyph glyph-name="zerosuperior" unicode="&#x2070;" 
d="M342 494c0 -119 -58 -190 -151 -190c-96 0 -149 69 -149 196c0 120 57 190 150 190c97 0 150 -69 150 -196zM126 499c0 -107 21 -157 65 -157c47 0 66 42 66 153c0 107 -20 156 -65 156c-47 0 -66 -43 -66 -152z" />
    <glyph glyph-name="onesuperior" unicode="&#xb9;" 
d="M91 343l54 3c27 1 36 13 36 45v241l-97 -61l-22 34l119 77h79v-338h67v-34h-236v33z" />
    <glyph glyph-name="twosuperior" unicode="&#xb2;" 
d="M109 632v-71h-33l-11 82c32 29 77 47 124 47c80 0 131 -41 131 -102c0 -23 -8 -48 -24 -74s-55 -73 -117 -140l-27 -30h139l8 71h34v-105h-279v28l63 68c51 55 83 94 96 116s20 43 20 64c0 41 -23 65 -62 65c-20 0 -49 -8 -62 -19z" />
    <glyph glyph-name="threesuperior" unicode="&#xb3;" 
d="M228 592c0 40 -21 61 -61 61c-21 0 -43 -7 -58 -18v-67h-31l-11 79c31 28 71 43 116 43c77 0 129 -39 129 -98c0 -40 -23 -72 -66 -89c51 -15 77 -45 77 -88c0 -67 -58 -111 -142 -111c-56 0 -96 17 -125 54l27 27c27 -31 50 -43 82 -43c44 0 74 28 74 69
c0 47 -31 69 -95 69v38c56 0 84 25 84 74z" />
    <glyph glyph-name="foursuperior" unicode="&#x2074;" 
d="M215 394h-165v34l175 256h64v-256h48v-34h-48v-84h-74v84zM215 428v173l-117 -173h117z" />
    <glyph glyph-name="fivesuperior" unicode="&#x2075;" 
d="M314 428c0 -79 -57 -125 -150 -125c-47 0 -88 15 -117 43l24 28c20 -21 46 -32 75 -32c52 0 84 33 84 85c0 51 -36 83 -93 83c-16 0 -28 -1 -45 -8l-12 8l17 172h193v-89h-31l-9 55h-93l-10 -111c24 3 38 4 39 4c77 0 128 -45 128 -113z" />
    <glyph glyph-name="sixsuperior" unicode="&#x2076;" 
d="M335 437c0 -79 -56 -133 -140 -133c-95 0 -149 69 -149 188c0 60 16 108 48 144s71 54 117 54c49 0 87 -18 115 -57l-36 -27c-20 31 -43 45 -74 45c-49 0 -82 -47 -87 -128c23 19 52 28 84 28c75 0 122 -43 122 -114zM127 489c1 -100 23 -147 68 -147c37 0 58 32 58 92
c0 53 -20 79 -64 79c-21 0 -46 -9 -62 -24z" />
    <glyph glyph-name="sevensuperior" unicode="&#x2077;" 
d="M63 682h251v-35l-158 -337h-78l158 337h-133l-9 -60h-31v95z" />
    <glyph glyph-name="eightsuperior" unicode="&#x2078;" 
d="M46 398c0 43 31 78 86 99c-51 27 -70 54 -70 94c0 57 56 99 135 99c75 0 123 -36 123 -85c0 -36 -23 -66 -71 -89c65 -31 87 -60 87 -100c0 -69 -59 -112 -151 -112c-84 0 -139 37 -139 94zM146 605c0 -28 16 -47 65 -71c23 17 34 38 34 63c0 33 -19 54 -51 54
c-28 0 -48 -21 -48 -46zM128 408c0 -40 24 -66 64 -66c36 0 60 23 60 55c0 31 -15 50 -82 82c-28 -20 -42 -44 -42 -71z" />
    <glyph glyph-name="ninesuperior" unicode="&#x2079;" 
d="M125 560c0 -55 20 -80 63 -80c25 0 51 8 67 21c-1 101 -25 150 -72 150c-36 0 -58 -36 -58 -91zM254 470c-24 -19 -54 -28 -90 -28c-76 0 -121 42 -121 115c0 76 59 133 140 133c96 0 152 -69 152 -188c0 -125 -68 -198 -176 -198c-40 0 -74 10 -102 33l23 33
c25 -19 51 -28 76 -28c57 0 94 45 98 128z" />
    <glyph glyph-name="onehalf" unicode="&#xbd;" horiz-adv-x="900" 
d="M91 343l54 3c27 1 36 13 36 45v241l-97 -61l-22 34l119 77h79v-338h67v-34h-236v33zM603 659l58 -33l-355 -631l-57 33zM611 321v-71h-33l-11 82c32 29 77 47 124 47c80 0 131 -41 131 -102c0 -23 -8 -48 -24 -74s-55 -73 -117 -140l-27 -30h139l8 71h34v-105h-279v28
l63 68c51 55 83 94 96 116s20 43 20 64c0 41 -23 65 -62 65c-20 0 -49 -8 -62 -19z" />
    <glyph glyph-name="onequarter" unicode="&#xbc;" horiz-adv-x="900" 
d="M91 343l54 3c27 1 36 13 36 45v241l-97 -61l-22 34l119 77h79v-338h67v-34h-236v33zM629 659l58 -33l-355 -631l-57 33zM732 82h-165v34l175 256h64v-256h48v-34h-48v-84h-74v84zM732 116v173l-117 -173h117z" />
    <glyph glyph-name="threequarters" unicode="&#xbe;" horiz-adv-x="900" 
d="M228 592c0 40 -21 61 -61 61c-21 0 -43 -7 -58 -18v-67h-31l-11 79c31 28 71 43 116 43c77 0 129 -39 129 -98c0 -40 -23 -72 -66 -89c51 -15 77 -45 77 -88c0 -67 -58 -111 -142 -111c-56 0 -96 17 -125 54l27 27c27 -31 50 -43 82 -43c44 0 74 28 74 69
c0 47 -31 69 -95 69v38c56 0 84 25 84 74zM621 659l58 -33l-355 -631l-57 33zM732 85h-165v34l175 256h64v-256h48v-34h-48v-84h-74v84zM732 119v173l-117 -173h117z" />
    <glyph glyph-name="onethird" unicode="&#x2153;" horiz-adv-x="901" 
d="M91 343l54 3c27 1 36 13 36 45v241l-97 -61l-22 34l119 77h79v-338h67v-34h-236v33zM609 659l58 -33l-355 -631l-57 33zM745 284c0 40 -21 61 -61 61c-21 0 -43 -7 -58 -18v-67h-31l-11 79c31 28 71 43 116 43c77 0 129 -39 129 -98c0 -40 -23 -72 -66 -89
c51 -15 77 -45 77 -88c0 -67 -58 -111 -142 -111c-56 0 -96 17 -125 54l27 27c27 -31 50 -43 82 -43c44 0 74 28 74 69c0 47 -31 69 -95 69v38c56 0 84 25 84 74z" />
    <glyph glyph-name="twothirds" unicode="&#x2154;" horiz-adv-x="900" 
d="M109 632v-71h-33l-11 82c32 29 77 47 124 47c80 0 131 -41 131 -102c0 -23 -8 -48 -24 -74s-55 -73 -117 -140l-27 -30h139l8 71h34v-105h-279v28l63 68c51 55 83 94 96 116s20 43 20 64c0 41 -23 65 -62 65c-20 0 -49 -8 -62 -19zM606 659l58 -33l-355 -631l-57 33z
M744 284c0 40 -21 61 -61 61c-21 0 -43 -7 -58 -18v-67h-31l-11 79c31 28 71 43 116 43c77 0 129 -39 129 -98c0 -40 -23 -72 -66 -89c51 -15 77 -45 77 -88c0 -67 -58 -111 -142 -111c-56 0 -96 17 -125 54l27 27c27 -31 50 -43 82 -43c44 0 74 28 74 69
c0 47 -31 69 -95 69v38c56 0 84 25 84 74z" />
    <glyph glyph-name="oneeighth" unicode="&#x215b;" horiz-adv-x="901" 
d="M91 343l54 3c27 1 36 13 36 45v241l-97 -61l-22 34l119 77h79v-338h67v-34h-236v33zM608 659l58 -33l-355 -631l-57 33zM563 91c0 43 31 78 86 99c-51 27 -70 54 -70 94c0 57 56 99 135 99c75 0 123 -36 123 -85c0 -36 -23 -66 -71 -89c65 -31 87 -60 87 -100
c0 -69 -59 -112 -151 -112c-84 0 -139 37 -139 94zM663 298c0 -28 16 -47 65 -71c23 17 34 38 34 63c0 33 -19 54 -51 54c-28 0 -48 -21 -48 -46zM645 101c0 -40 24 -66 64 -66c36 0 60 23 60 55c0 31 -15 50 -82 82c-28 -20 -42 -44 -42 -71z" />
    <glyph glyph-name="threeeighths" unicode="&#x215c;" horiz-adv-x="901" 
d="M228 592c0 40 -21 61 -61 61c-21 0 -43 -7 -58 -18v-67h-31l-11 79c31 28 71 43 116 43c77 0 129 -39 129 -98c0 -40 -23 -72 -66 -89c51 -15 77 -45 77 -88c0 -67 -58 -111 -142 -111c-56 0 -96 17 -125 54l27 27c27 -31 50 -43 82 -43c44 0 74 28 74 69
c0 47 -31 69 -95 69v38c56 0 84 25 84 74zM598 659l58 -33l-355 -631l-57 33zM563 91c0 43 31 78 86 99c-51 27 -70 54 -70 94c0 57 56 99 135 99c75 0 123 -36 123 -85c0 -36 -23 -66 -71 -89c65 -31 87 -60 87 -100c0 -69 -59 -112 -151 -112c-84 0 -139 37 -139 94z
M663 298c0 -28 16 -47 65 -71c23 17 34 38 34 63c0 33 -19 54 -51 54c-28 0 -48 -21 -48 -46zM645 101c0 -40 24 -66 64 -66c36 0 60 23 60 55c0 31 -15 50 -82 82c-28 -20 -42 -44 -42 -71z" />
    <glyph glyph-name="fiveeighths" unicode="&#x215d;" horiz-adv-x="901" 
d="M314 428c0 -79 -57 -125 -150 -125c-47 0 -88 15 -117 43l24 28c20 -21 46 -32 75 -32c52 0 84 33 84 85c0 51 -36 83 -93 83c-16 0 -28 -1 -45 -8l-12 8l17 172h193v-89h-31l-9 55h-93l-10 -111c24 3 38 4 39 4c77 0 128 -45 128 -113zM598 659l58 -33l-355 -631l-57 33
zM570 92c0 43 31 78 86 99c-51 27 -70 54 -70 94c0 57 56 99 135 99c75 0 123 -36 123 -85c0 -36 -23 -66 -71 -89c65 -31 87 -60 87 -100c0 -69 -59 -112 -151 -112c-84 0 -139 37 -139 94zM670 299c0 -28 16 -47 65 -71c23 17 34 38 34 63c0 33 -19 54 -51 54
c-28 0 -48 -21 -48 -46zM652 102c0 -40 24 -66 64 -66c36 0 60 23 60 55c0 31 -15 50 -82 82c-28 -20 -42 -44 -42 -71z" />
    <glyph glyph-name="seveneighths" unicode="&#x215e;" horiz-adv-x="901" 
d="M98 682h251v-35l-158 -337h-78l158 337h-133l-9 -60h-31v95zM582 659l58 -33l-355 -631l-57 33zM563 92c0 43 31 78 86 99c-51 27 -70 54 -70 94c0 57 56 99 135 99c75 0 123 -36 123 -85c0 -36 -23 -66 -71 -89c65 -31 87 -60 87 -100c0 -69 -59 -112 -151 -112
c-84 0 -139 37 -139 94zM663 299c0 -28 16 -47 65 -71c23 17 34 38 34 63c0 33 -19 54 -51 54c-28 0 -48 -21 -48 -46zM645 102c0 -40 24 -66 64 -66c36 0 60 23 60 55c0 31 -15 50 -82 82c-28 -20 -42 -44 -42 -71z" />
    <glyph glyph-name="onefifth" unicode="&#xe07c;" horiz-adv-x="901" 
d="M91 343l54 3c27 1 36 13 36 45v241l-97 -61l-22 34l119 77h79v-338h67v-34h-236v33zM608 659l58 -33l-355 -631l-57 33zM831 121c0 -79 -57 -125 -150 -125c-47 0 -88 15 -117 43l24 28c20 -21 46 -32 75 -32c52 0 84 33 84 85c0 51 -36 83 -93 83c-16 0 -28 -1 -45 -8
l-12 8l17 172h193v-89h-31l-9 55h-93l-10 -111c24 3 38 4 39 4c77 0 128 -45 128 -113z" />
    <glyph glyph-name="twofifths" unicode="&#xe07d;" horiz-adv-x="900" 
d="M109 632v-71h-33l-11 82c32 29 77 47 124 47c80 0 131 -41 131 -102c0 -23 -8 -48 -24 -74s-55 -73 -117 -140l-27 -30h139l8 71h34v-105h-279v28l63 68c51 55 83 94 96 116s20 43 20 64c0 41 -23 65 -62 65c-20 0 -49 -8 -62 -19zM607 659l58 -33l-355 -631l-57 33z
M830 122c0 -79 -57 -125 -150 -125c-47 0 -88 15 -117 43l24 28c20 -21 46 -32 75 -32c52 0 84 33 84 85c0 51 -36 83 -93 83c-16 0 -28 -1 -45 -8l-12 8l17 172h193v-89h-31l-9 55h-93l-10 -111c24 3 38 4 39 4c77 0 128 -45 128 -113z" />
    <glyph glyph-name="threefifths" unicode="&#xe07e;" horiz-adv-x="901" 
d="M228 592c0 40 -21 61 -61 61c-21 0 -43 -7 -58 -18v-67h-31l-11 79c31 28 71 43 116 43c77 0 129 -39 129 -98c0 -40 -23 -72 -66 -89c51 -15 77 -45 77 -88c0 -67 -58 -111 -142 -111c-56 0 -96 17 -125 54l27 27c27 -31 50 -43 82 -43c44 0 74 28 74 69
c0 47 -31 69 -95 69v38c56 0 84 25 84 74zM597 659l58 -33l-355 -631l-57 33zM831 123c0 -79 -57 -125 -150 -125c-47 0 -88 15 -117 43l24 28c20 -21 46 -32 75 -32c52 0 84 33 84 85c0 51 -36 83 -93 83c-16 0 -28 -1 -45 -8l-12 8l17 172h193v-89h-31l-9 55h-93l-10 -111
c24 3 38 4 39 4c77 0 128 -45 128 -113z" />
    <glyph glyph-name="fourfifths" unicode="&#xe07f;" horiz-adv-x="900" 
d="M215 394h-165v34l175 256h64v-256h48v-34h-48v-84h-74v84zM215 428v173l-117 -173h117zM598 659l58 -33l-355 -631l-57 33zM830 122c0 -79 -57 -125 -150 -125c-47 0 -88 15 -117 43l24 28c20 -21 46 -32 75 -32c52 0 84 33 84 85c0 51 -36 83 -93 83
c-16 0 -28 -1 -45 -8l-12 8l17 172h193v-89h-31l-9 55h-93l-10 -111c24 3 38 4 39 4c77 0 128 -45 128 -113z" />
    <glyph glyph-name="onesixth" unicode="&#xe080;" horiz-adv-x="901" 
d="M91 343l54 3c27 1 36 13 36 45v241l-97 -61l-22 34l119 77h79v-338h67v-34h-236v33zM605 659l58 -33l-355 -631l-57 33zM852 130c0 -79 -56 -133 -140 -133c-95 0 -149 69 -149 188c0 60 16 108 48 144s71 54 117 54c49 0 87 -18 115 -57l-36 -27c-20 31 -43 45 -74 45
c-49 0 -82 -47 -87 -128c23 19 52 28 84 28c75 0 122 -43 122 -114zM644 182c1 -100 23 -147 68 -147c37 0 58 32 58 92c0 53 -20 79 -64 79c-21 0 -46 -9 -62 -24z" />
    <glyph glyph-name="fivesixths" unicode="&#xe081;" horiz-adv-x="901" 
d="M314 428c0 -79 -57 -125 -150 -125c-47 0 -88 15 -117 43l24 28c20 -21 46 -32 75 -32c52 0 84 33 84 85c0 51 -36 83 -93 83c-16 0 -28 -1 -45 -8l-12 8l17 172h193v-89h-31l-9 55h-93l-10 -111c24 3 38 4 39 4c77 0 128 -45 128 -113zM598 659l58 -33l-355 -631l-57 33
zM852 130c0 -79 -56 -133 -140 -133c-95 0 -149 69 -149 188c0 60 16 108 48 144s71 54 117 54c49 0 87 -18 115 -57l-36 -27c-20 31 -43 45 -74 45c-49 0 -82 -47 -87 -128c23 19 52 28 84 28c75 0 122 -43 122 -114zM644 182c1 -100 23 -147 68 -147c37 0 58 32 58 92
c0 53 -20 79 -64 79c-21 0 -46 -9 -62 -24z" />
    <glyph glyph-name="oneseventh" unicode="&#xe082;" horiz-adv-x="901" 
d="M91 343l54 3c27 1 36 13 36 45v241l-97 -61l-22 34l119 77h79v-338h67v-34h-236v33zM598 659l58 -33l-355 -631l-57 33zM580 373h251v-35l-158 -337h-78l158 337h-133l-9 -60h-31v95z" />
    <glyph glyph-name="twosevenths" unicode="&#xe083;" horiz-adv-x="900" 
d="M109 632v-71h-33l-11 82c32 29 77 47 124 47c80 0 131 -41 131 -102c0 -23 -8 -48 -24 -74s-55 -73 -117 -140l-27 -30h139l8 71h34v-105h-279v28l63 68c51 55 83 94 96 116s20 43 20 64c0 41 -23 65 -62 65c-20 0 -49 -8 -62 -19zM598 659l58 -33l-355 -631l-57 33z
M579 372h251v-35l-158 -337h-78l158 337h-133l-9 -60h-31v95z" />
    <glyph glyph-name="threesevenths" unicode="&#xe084;" horiz-adv-x="901" 
d="M228 592c0 40 -21 61 -61 61c-21 0 -43 -7 -58 -18v-67h-31l-11 79c31 28 71 43 116 43c77 0 129 -39 129 -98c0 -40 -23 -72 -66 -89c51 -15 77 -45 77 -88c0 -67 -58 -111 -142 -111c-56 0 -96 17 -125 54l27 27c27 -31 50 -43 82 -43c44 0 74 28 74 69
c0 47 -31 69 -95 69v38c56 0 84 25 84 74zM591 659l58 -33l-355 -631l-57 33zM580 372h251v-35l-158 -337h-78l158 337h-133l-9 -60h-31v95z" />
    <glyph glyph-name="foursevenths" unicode="&#xe085;" horiz-adv-x="900" 
d="M215 394h-165v34l175 256h64v-256h48v-34h-48v-84h-74v84zM215 428v173l-117 -173h117zM593 659l58 -33l-355 -631l-57 33zM579 372h251v-35l-158 -337h-78l158 337h-133l-9 -60h-31v95z" />
    <glyph glyph-name="fivesevenths" unicode="&#xe086;" horiz-adv-x="901" 
d="M314 428c0 -79 -57 -125 -150 -125c-47 0 -88 15 -117 43l24 28c20 -21 46 -32 75 -32c52 0 84 33 84 85c0 51 -36 83 -93 83c-16 0 -28 -1 -45 -8l-12 8l17 172h193v-89h-31l-9 55h-93l-10 -111c24 3 38 4 39 4c77 0 128 -45 128 -113zM586 659l58 -33l-355 -631l-57 33
zM580 372h251v-35l-158 -337h-78l158 337h-133l-9 -60h-31v95z" />
    <glyph glyph-name="sixsevenths" unicode="&#xe087;" horiz-adv-x="901" 
d="M335 437c0 -79 -56 -133 -140 -133c-95 0 -149 69 -149 188c0 60 16 108 48 144s71 54 117 54c49 0 87 -18 115 -57l-36 -27c-20 31 -43 45 -74 45c-49 0 -82 -47 -87 -128c23 19 52 28 84 28c75 0 122 -43 122 -114zM127 489c1 -100 23 -147 68 -147c37 0 58 32 58 92
c0 53 -20 79 -64 79c-21 0 -46 -9 -62 -24zM593 659l58 -33l-355 -631l-57 33zM580 372h251v-35l-158 -337h-78l158 337h-133l-9 -60h-31v95z" />
    <glyph glyph-name="oneninth" unicode="&#xe088;" horiz-adv-x="901" 
d="M91 343l54 3c27 1 36 13 36 45v241l-97 -61l-22 34l119 77h79v-338h67v-34h-236v33zM605 659l58 -33l-355 -631l-57 33zM642 254c0 -55 20 -80 63 -80c25 0 51 8 67 21c-1 101 -25 150 -72 150c-36 0 -58 -36 -58 -91zM771 164c-24 -19 -54 -28 -90 -28
c-76 0 -121 42 -121 115c0 76 59 133 140 133c96 0 152 -69 152 -188c0 -125 -68 -198 -176 -198c-40 0 -74 10 -102 33l23 33c25 -19 51 -28 76 -28c57 0 94 45 98 128z" />
    <glyph glyph-name="twoninths" unicode="&#xe089;" horiz-adv-x="900" 
d="M109 632v-71h-33l-11 82c32 29 77 47 124 47c80 0 131 -41 131 -102c0 -23 -8 -48 -24 -74s-55 -73 -117 -140l-27 -30h139l8 71h34v-105h-279v28l63 68c51 55 83 94 96 116s20 43 20 64c0 41 -23 65 -62 65c-20 0 -49 -8 -62 -19zM609 659l58 -33l-355 -631l-57 33z
M641 254c0 -55 20 -80 63 -80c25 0 51 8 67 21c-1 101 -25 150 -72 150c-36 0 -58 -36 -58 -91zM770 164c-24 -19 -54 -28 -90 -28c-76 0 -121 42 -121 115c0 76 59 133 140 133c96 0 152 -69 152 -188c0 -125 -68 -198 -176 -198c-40 0 -74 10 -102 33l23 33
c25 -19 51 -28 76 -28c57 0 94 45 98 128z" />
    <glyph glyph-name="fourninths" unicode="&#xe08a;" horiz-adv-x="900" 
d="M215 394h-165v34l175 256h64v-256h48v-34h-48v-84h-74v84zM215 428v173l-117 -173h117zM601 659l58 -33l-355 -631l-57 33zM641 254c0 -55 20 -80 63 -80c25 0 51 8 67 21c-1 101 -25 150 -72 150c-36 0 -58 -36 -58 -91zM770 164c-24 -19 -54 -28 -90 -28
c-76 0 -121 42 -121 115c0 76 59 133 140 133c96 0 152 -69 152 -188c0 -125 -68 -198 -176 -198c-40 0 -74 10 -102 33l23 33c25 -19 51 -28 76 -28c57 0 94 45 98 128z" />
    <glyph glyph-name="fiveninths" unicode="&#xe08b;" horiz-adv-x="901" 
d="M314 428c0 -79 -57 -125 -150 -125c-47 0 -88 15 -117 43l24 28c20 -21 46 -32 75 -32c52 0 84 33 84 85c0 51 -36 83 -93 83c-16 0 -28 -1 -45 -8l-12 8l17 172h193v-89h-31l-9 55h-93l-10 -111c24 3 38 4 39 4c77 0 128 -45 128 -113zM598 659l58 -33l-355 -631l-57 33
zM642 254c0 -55 20 -80 63 -80c25 0 51 8 67 21c-1 101 -25 150 -72 150c-36 0 -58 -36 -58 -91zM771 164c-24 -19 -54 -28 -90 -28c-76 0 -121 42 -121 115c0 76 59 133 140 133c96 0 152 -69 152 -188c0 -125 -68 -198 -176 -198c-40 0 -74 10 -102 33l23 33
c25 -19 51 -28 76 -28c57 0 94 45 98 128z" />
    <glyph glyph-name="sevenninths" unicode="&#xe08c;" horiz-adv-x="901" 
d="M63 682h251v-35l-158 -337h-78l158 337h-133l-9 -60h-31v95zM567 659l58 -33l-355 -631l-57 33zM642 254c0 -55 20 -80 63 -80c25 0 51 8 67 21c-1 101 -25 150 -72 150c-36 0 -58 -36 -58 -91zM771 164c-24 -19 -54 -28 -90 -28c-76 0 -121 42 -121 115
c0 76 59 133 140 133c96 0 152 -69 152 -188c0 -125 -68 -198 -176 -198c-40 0 -74 10 -102 33l23 33c25 -19 51 -28 76 -28c57 0 94 45 98 128z" />
    <glyph glyph-name="eightninths" unicode="&#xe08d;" horiz-adv-x="901" 
d="M46 398c0 43 31 78 86 99c-51 27 -70 54 -70 94c0 57 56 99 135 99c75 0 123 -36 123 -85c0 -36 -23 -66 -71 -89c65 -31 87 -60 87 -100c0 -69 -59 -112 -151 -112c-84 0 -139 37 -139 94zM146 605c0 -28 16 -47 65 -71c23 17 34 38 34 63c0 33 -19 54 -51 54
c-28 0 -48 -21 -48 -46zM128 408c0 -40 24 -66 64 -66c36 0 60 23 60 55c0 31 -15 50 -82 82c-28 -20 -42 -44 -42 -71zM598 659l58 -33l-355 -631l-57 33zM642 254c0 -55 20 -80 63 -80c25 0 51 8 67 21c-1 101 -25 150 -72 150c-36 0 -58 -36 -58 -91zM771 164
c-24 -19 -54 -28 -90 -28c-76 0 -121 42 -121 115c0 76 59 133 140 133c96 0 152 -69 152 -188c0 -125 -68 -198 -176 -198c-40 0 -74 10 -102 33l23 33c25 -19 51 -28 76 -28c57 0 94 45 98 128z" />
    <glyph glyph-name="zeroinferior" unicode="&#x2080;" 
d="M342 184c0 -119 -58 -190 -151 -190c-96 0 -149 69 -149 196c0 120 57 190 150 190c97 0 150 -69 150 -196zM126 189c0 -107 21 -157 65 -157c47 0 66 42 66 153c0 107 -20 156 -65 156c-47 0 -66 -43 -66 -152z" />
    <glyph glyph-name="oneinferior" unicode="&#x2081;" 
d="M91 33l54 3c27 1 36 13 36 45v241l-97 -61l-22 34l119 77h79v-338h67v-34h-236v33z" />
    <glyph glyph-name="twoinferior" unicode="&#x2082;" 
d="M109 322v-71h-33l-11 82c32 29 77 47 124 47c80 0 131 -41 131 -102c0 -23 -8 -48 -24 -74s-55 -73 -117 -140l-27 -30h139l8 71h34v-105h-279v28l63 68c51 55 83 94 96 116s20 43 20 64c0 41 -23 65 -62 65c-20 0 -49 -8 -62 -19z" />
    <glyph glyph-name="threeinferior" unicode="&#x2083;" 
d="M228 282c0 40 -21 61 -61 61c-21 0 -43 -7 -58 -18v-67h-31l-11 79c31 28 71 43 116 43c77 0 129 -39 129 -98c0 -40 -23 -72 -66 -89c51 -15 77 -45 77 -88c0 -67 -58 -111 -142 -111c-56 0 -96 17 -125 54l27 27c27 -31 50 -43 82 -43c44 0 74 28 74 69
c0 47 -31 69 -95 69v38c56 0 84 25 84 74z" />
    <glyph glyph-name="fourinferior" unicode="&#x2084;" 
d="M215 84h-165v34l175 256h64v-256h48v-34h-48v-84h-74v84zM215 118v173l-117 -173h117z" />
    <glyph glyph-name="fiveinferior" unicode="&#x2085;" 
d="M314 118c0 -79 -57 -125 -150 -125c-47 0 -88 15 -117 43l24 28c20 -21 46 -32 75 -32c52 0 84 33 84 85c0 51 -36 83 -93 83c-16 0 -28 -1 -45 -8l-12 8l17 172h193v-89h-31l-9 55h-93l-10 -111c24 3 38 4 39 4c77 0 128 -45 128 -113z" />
    <glyph glyph-name="sixinferior" unicode="&#x2086;" 
d="M335 127c0 -79 -56 -133 -140 -133c-95 0 -149 69 -149 188c0 60 16 108 48 144s71 54 117 54c49 0 87 -18 115 -57l-36 -27c-20 31 -43 45 -74 45c-49 0 -82 -47 -87 -128c23 19 52 28 84 28c75 0 122 -43 122 -114zM127 179c1 -100 23 -147 68 -147c37 0 58 32 58 92
c0 53 -20 79 -64 79c-21 0 -46 -9 -62 -24z" />
    <glyph glyph-name="seveninferior" unicode="&#x2087;" 
d="M63 372h251v-35l-158 -337h-78l158 337h-133l-9 -60h-31v95z" />
    <glyph glyph-name="eightinferior" unicode="&#x2088;" 
d="M46 88c0 43 31 78 86 99c-51 27 -70 54 -70 94c0 57 56 99 135 99c75 0 123 -36 123 -85c0 -36 -23 -66 -71 -89c65 -31 87 -60 87 -100c0 -69 -59 -112 -151 -112c-84 0 -139 37 -139 94zM146 295c0 -28 16 -47 65 -71c23 17 34 38 34 63c0 33 -19 54 -51 54
c-28 0 -48 -21 -48 -46zM128 98c0 -40 24 -66 64 -66c36 0 60 23 60 55c0 31 -15 50 -82 82c-28 -20 -42 -44 -42 -71z" />
    <glyph glyph-name="nineinferior" unicode="&#x2089;" 
d="M125 250c0 -55 20 -80 63 -80c25 0 51 8 67 21c-1 101 -25 150 -72 150c-36 0 -58 -36 -58 -91zM254 160c-24 -19 -54 -28 -90 -28c-76 0 -121 42 -121 115c0 76 59 133 140 133c96 0 152 -69 152 -188c0 -125 -68 -198 -176 -198c-40 0 -74 10 -102 33l23 33
c25 -19 51 -28 76 -28c57 0 94 45 98 128z" />
    <glyph glyph-name="zero.numerator" unicode="&#xe08e;" 
d="M342 69c0 -119 -58 -190 -151 -190c-96 0 -149 69 -149 196c0 120 57 190 150 190c97 0 150 -69 150 -196zM126 74c0 -107 21 -157 65 -157c47 0 66 42 66 153c0 107 -20 156 -65 156c-47 0 -66 -43 -66 -152z" />
    <glyph glyph-name="one.numerator" unicode="&#xe08f;" 
d="M91 -82l54 3c27 1 36 13 36 45v241l-97 -61l-22 34l119 77h79v-338h67v-34h-236v33z" />
    <glyph glyph-name="two.numerator" unicode="&#xe090;" 
d="M109 207v-71h-33l-11 82c32 29 77 47 124 47c80 0 131 -41 131 -102c0 -23 -8 -48 -24 -74s-55 -73 -117 -140l-27 -30h139l8 71h34v-105h-279v28l63 68c51 55 83 94 96 116s20 43 20 64c0 41 -23 65 -62 65c-20 0 -49 -8 -62 -19z" />
    <glyph glyph-name="three.numerator" unicode="&#xe091;" 
d="M228 167c0 40 -21 61 -61 61c-21 0 -43 -7 -58 -18v-67h-31l-11 79c31 28 71 43 116 43c77 0 129 -39 129 -98c0 -40 -23 -72 -66 -89c51 -15 77 -45 77 -88c0 -67 -58 -111 -142 -111c-56 0 -96 17 -125 54l27 27c27 -31 50 -43 82 -43c44 0 74 28 74 69
c0 47 -31 69 -95 69v38c56 0 84 25 84 74z" />
    <glyph glyph-name="four.numerator" unicode="&#xe092;" 
d="M215 -31h-165v34l175 256h64v-256h48v-34h-48v-84h-74v84zM215 3v173l-117 -173h117z" />
    <glyph glyph-name="five.numerator" unicode="&#xe093;" 
d="M314 3c0 -79 -57 -125 -150 -125c-47 0 -88 15 -117 43l24 28c20 -21 46 -32 75 -32c52 0 84 33 84 85c0 51 -36 83 -93 83c-16 0 -28 -1 -45 -8l-12 8l17 172h193v-89h-31l-9 55h-93l-10 -111c24 3 38 4 39 4c77 0 128 -45 128 -113z" />
    <glyph glyph-name="six.numerator" unicode="&#xe094;" 
d="M335 12c0 -79 -56 -133 -140 -133c-95 0 -149 69 -149 188c0 60 16 108 48 144s71 54 117 54c49 0 87 -18 115 -57l-36 -27c-20 31 -43 45 -74 45c-49 0 -82 -47 -87 -128c23 19 52 28 84 28c75 0 122 -43 122 -114zM127 64c1 -100 23 -147 68 -147c37 0 58 32 58 92
c0 53 -20 79 -64 79c-21 0 -46 -9 -62 -24z" />
    <glyph glyph-name="seven.numerator" unicode="&#xe095;" 
d="M63 257h251v-35l-158 -337h-78l158 337h-133l-9 -60h-31v95z" />
    <glyph glyph-name="eight.numerator" unicode="&#xe096;" 
d="M46 -27c0 43 31 78 86 99c-51 27 -70 54 -70 94c0 57 56 99 135 99c75 0 123 -36 123 -85c0 -36 -23 -66 -71 -89c65 -31 87 -60 87 -100c0 -69 -59 -112 -151 -112c-84 0 -139 37 -139 94zM146 180c0 -28 16 -47 65 -71c23 17 34 38 34 63c0 33 -19 54 -51 54
c-28 0 -48 -21 -48 -46zM128 -17c0 -40 24 -66 64 -66c36 0 60 23 60 55c0 31 -15 50 -82 82c-28 -20 -42 -44 -42 -71z" />
    <glyph glyph-name="nine.numerator" unicode="&#xe097;" 
d="M125 135c0 -55 20 -80 63 -80c25 0 51 8 67 21c-1 101 -25 150 -72 150c-36 0 -58 -36 -58 -91zM254 45c-24 -19 -54 -28 -90 -28c-76 0 -121 42 -121 115c0 76 59 133 140 133c96 0 152 -69 152 -188c0 -125 -68 -198 -176 -198c-40 0 -74 10 -102 33l23 33
c25 -19 51 -28 76 -28c57 0 94 45 98 128z" />
    <glyph glyph-name="zero.denominator" unicode="&#xe098;" 
d="M342 609c0 -119 -58 -190 -151 -190c-96 0 -149 69 -149 196c0 120 57 190 150 190c97 0 150 -69 150 -196zM126 614c0 -107 21 -157 65 -157c47 0 66 42 66 153c0 107 -20 156 -65 156c-47 0 -66 -43 -66 -152z" />
    <glyph glyph-name="one.denominator" unicode="&#xe099;" 
d="M91 458l54 3c27 1 36 13 36 45v241l-97 -61l-22 34l119 77h79v-338h67v-34h-236v33z" />
    <glyph glyph-name="two.denominator" unicode="&#xe09a;" 
d="M109 747v-71h-33l-11 82c32 29 77 47 124 47c80 0 131 -41 131 -102c0 -23 -8 -48 -24 -74s-55 -73 -117 -140l-27 -30h139l8 71h34v-105h-279v28l63 68c51 55 83 94 96 116s20 43 20 64c0 41 -23 65 -62 65c-20 0 -49 -8 -62 -19z" />
    <glyph glyph-name="three.denominator" unicode="&#xe09b;" 
d="M228 707c0 40 -21 61 -61 61c-21 0 -43 -7 -58 -18v-67h-31l-11 79c31 28 71 43 116 43c77 0 129 -39 129 -98c0 -40 -23 -72 -66 -89c51 -15 77 -45 77 -88c0 -67 -58 -111 -142 -111c-56 0 -96 17 -125 54l27 27c27 -31 50 -43 82 -43c44 0 74 28 74 69
c0 47 -31 69 -95 69v38c56 0 84 25 84 74z" />
    <glyph glyph-name="four.denominator" unicode="&#xe09c;" 
d="M215 509h-165v34l175 256h64v-256h48v-34h-48v-84h-74v84zM215 543v173l-117 -173h117z" />
    <glyph glyph-name="five.denominator" unicode="&#xe09d;" 
d="M314 543c0 -79 -57 -125 -150 -125c-47 0 -88 15 -117 43l24 28c20 -21 46 -32 75 -32c52 0 84 33 84 85c0 51 -36 83 -93 83c-16 0 -28 -1 -45 -8l-12 8l17 172h193v-89h-31l-9 55h-93l-10 -111c24 3 38 4 39 4c77 0 128 -45 128 -113z" />
    <glyph glyph-name="six.denominator" unicode="&#xe09e;" 
d="M335 552c0 -79 -56 -133 -140 -133c-95 0 -149 69 -149 188c0 60 16 108 48 144s71 54 117 54c49 0 87 -18 115 -57l-36 -27c-20 31 -43 45 -74 45c-49 0 -82 -47 -87 -128c23 19 52 28 84 28c75 0 122 -43 122 -114zM127 604c1 -100 23 -147 68 -147c37 0 58 32 58 92
c0 53 -20 79 -64 79c-21 0 -46 -9 -62 -24z" />
    <glyph glyph-name="seven.denominator" unicode="&#xe09f;" 
d="M63 797h251v-35l-158 -337h-78l158 337h-133l-9 -60h-31v95z" />
    <glyph glyph-name="eight.denominator" unicode="&#xe0a0;" 
d="M46 513c0 43 31 78 86 99c-51 27 -70 54 -70 94c0 57 56 99 135 99c75 0 123 -36 123 -85c0 -36 -23 -66 -71 -89c65 -31 87 -60 87 -100c0 -69 -59 -112 -151 -112c-84 0 -139 37 -139 94zM146 720c0 -28 16 -47 65 -71c23 17 34 38 34 63c0 33 -19 54 -51 54
c-28 0 -48 -21 -48 -46zM128 523c0 -40 24 -66 64 -66c36 0 60 23 60 55c0 31 -15 50 -82 82c-28 -20 -42 -44 -42 -71z" />
    <glyph glyph-name="nine.denominator" unicode="&#xe0a1;" 
d="M125 675c0 -55 20 -80 63 -80c25 0 51 8 67 21c-1 101 -25 150 -72 150c-36 0 -58 -36 -58 -91zM254 585c-24 -19 -54 -28 -90 -28c-76 0 -121 42 -121 115c0 76 59 133 140 133c96 0 152 -69 152 -188c0 -125 -68 -198 -176 -198c-40 0 -74 10 -102 33l23 33
c25 -19 51 -28 76 -28c57 0 94 45 98 128z" />
    <glyph glyph-name="plus" unicode="+" horiz-adv-x="645" 
d="M125 307v45h175v182h47v-182h172v-45h-172v-187h-47v187h-175z" />
    <glyph glyph-name="minus" unicode="&#x2212;" horiz-adv-x="645" 
d="M519 352v-45h-394v45h394z" />
    <glyph glyph-name="multiply" unicode="&#xd7;" horiz-adv-x="645" 
d="M196 174l-32 31l124 124l-129 129l33 33l129 -129l123 122l31 -31l-122 -122l132 -133l-33 -33l-132 132z" />
    <glyph glyph-name="divide" unicode="&#xf7;" horiz-adv-x="645" 
d="M374 498c0 -28 -24 -52 -52 -52s-53 24 -53 52s25 52 53 52s52 -24 52 -52zM519 352v-45h-394v45h394zM374 161c0 -28 -24 -52 -52 -52s-53 24 -53 52s25 52 53 52s52 -24 52 -52z" />
    <glyph glyph-name="equal" unicode="=" horiz-adv-x="645" 
d="M519 445v-44h-394v44h394zM519 260v-44h-394v44h394z" />
    <glyph glyph-name="logicalnot" unicode="&#xac;" horiz-adv-x="645" 
d="M472 170v137h-347v45h394v-182h-47z" />
    <glyph glyph-name="asciitilde" unicode="~" horiz-adv-x="645" 
d="M218 333c-27 0 -52 -10 -76 -33l-23 35c35 31 67 45 102 45c23 0 43 -5 94 -26c48 -21 68 -26 89 -26c33 0 64 16 95 48l25 -33c-39 -41 -79 -61 -120 -61c-24 0 -46 4 -98 27c-49 20 -68 24 -88 24z" />
    <glyph glyph-name="less" unicode="&#x3c;" horiz-adv-x="645" 
d="M519 194l-9 -51l-385 178v51l385 177l9 -51l-336 -152z" />
    <glyph glyph-name="greater" unicode="&#x3e;" horiz-adv-x="645" 
d="M134 143l-9 51l336 152l-336 152l9 51l385 -177v-51z" />
    <glyph glyph-name="plusminus" unicode="&#xb1;" horiz-adv-x="645" 
d="M125 307v45h175v162h47v-162h172v-45h-172v-167h-47v167h-175zM519 75v-44h-394v44h394z" />
    <glyph glyph-name="asciicircum" unicode="^" horiz-adv-x="645" 
d="M340 635l-140 -275l-44 14l162 306h45l163 -306l-45 -14z" />
    <glyph glyph-name="notequal" unicode="&#x2260;" horiz-adv-x="645" 
d="M125 401v44h219l44 102h50l-44 -102h125v-44h-143l-60 -141h203v-44h-221l-43 -103h-50l43 103h-123v44h141l60 141h-201z" />
    <glyph glyph-name="approxequal" unicode="&#x2248;" horiz-adv-x="645" 
d="M218 420c-27 0 -52 -10 -76 -33l-23 35c35 31 67 45 102 45c23 0 43 -5 94 -26c48 -20 68 -25 89 -25c33 0 64 15 95 47l25 -33c-39 -40 -77 -60 -120 -60c-24 0 -46 5 -98 26c-49 20 -68 24 -88 24zM213 245c-27 0 -52 -10 -76 -33l-22 36c33 29 66 44 101 44
c24 0 44 -5 95 -26c48 -21 67 -25 88 -25c33 0 64 15 95 47l26 -33c-40 -41 -78 -60 -121 -60c-24 0 -46 5 -98 26c-49 20 -68 24 -88 24z" />
    <glyph glyph-name="lessequal" unicode="&#x2264;" horiz-adv-x="645" 
d="M519 194l-9 -51l-385 163v51l385 162l9 -51l-329 -137zM519 75v-44h-394v44h394z" />
    <glyph glyph-name="greaterequal" unicode="&#x2265;" horiz-adv-x="645" 
d="M134 143l-9 51l328 137l-328 137l9 51l385 -162v-51zM519 75v-44h-394v44h394z" />
    <glyph glyph-name="infinity" unicode="&#x221e;" horiz-adv-x="774" 
d="M580 530c100 0 160 -65 160 -177c0 -108 -66 -177 -159 -177c-32 0 -61 9 -88 26s-63 54 -106 111c-67 -96 -127 -137 -192 -137c-96 0 -162 69 -162 177c0 53 15 96 46 129c31 32 69 48 115 48c33 0 62 -8 87 -25s61 -55 106 -113c43 59 77 96 103 113
c25 17 55 25 90 25zM575 483c-27 0 -52 -9 -75 -27s-52 -52 -85 -101c63 -96 108 -132 163 -132c69 0 109 47 109 131c0 81 -43 129 -112 129zM198 483c-68 0 -112 -50 -112 -130s45 -130 112 -130c26 0 50 8 73 25c22 17 51 51 87 102c-34 50 -62 85 -85 104s-48 29 -75 29
z" />
    <glyph glyph-name="lozenge" unicode="&#x25ca;" horiz-adv-x="487" 
d="M268 0h-50l-191 341l191 339h50l192 -339zM242 624l-112 -282l113 -282l114 279z" />
    <glyph glyph-name="radical" unicode="&#x221a;" horiz-adv-x="526" 
d="M34 376l153 73l99 -328l149 633h49l-184 -754h-63l-119 363l-68 -31z" />
    <glyph glyph-name="integral" unicode="&#x222b;" horiz-adv-x="378" 
d="M141 93c0 25 0 53 -1 85c-1 31 -2 81 -5 148c-2 67 -3 116 -4 147s-1 59 -1 84c0 129 57 201 158 201c35 0 60 -8 93 -32l-20 -35c-17 12 -33 18 -50 18c-57 0 -82 -53 -82 -172c0 -24 0 -51 1 -82s2 -78 5 -142c2 -65 3 -112 4 -143s1 -58 1 -82
c0 -157 -47 -231 -151 -231c-32 0 -60 6 -87 18l14 40c16 -7 31 -9 47 -9c60 0 78 48 78 187z" />
    <glyph glyph-name="partialdiff" unicode="&#x2202;" horiz-adv-x="526" 
d="M220 641c-39 0 -74 -17 -106 -50l-31 31c37 43 91 68 146 68c77 0 137 -33 180 -100s65 -156 65 -267c0 -101 -21 -182 -63 -241c-42 -60 -99 -90 -171 -90c-121 0 -195 82 -195 218c0 81 22 146 65 195s97 74 162 74c40 0 70 -12 102 -41c-25 131 -79 203 -154 203z
M145 202c0 -99 35 -163 94 -163c42 0 75 22 100 65c24 43 36 99 36 167c0 104 -33 161 -92 161c-85 0 -138 -89 -138 -230z" />
    <glyph glyph-name="product" unicode="&#x220f;" horiz-adv-x="634" 
d="M342 -95l30 3c29 4 37 15 37 44v683h-183v-724l67 -6v-43h-235v43l29 3c29 4 37 13 37 44v683l-79 4v41h544v-41l-78 -4v-724l66 -6v-43h-235v43z" />
    <glyph glyph-name="pi" unicode="&#x3c0;" horiz-adv-x="559" 
d="M80 0l19 465h-72v44h485l-2 -44h-91v-255c0 -107 28 -156 103 -180l-34 -40c-115 9 -169 73 -169 197v278h-120l-19 -465h-100z" />
    <glyph glyph-name="mu" unicode="&#xb5;" horiz-adv-x="565" 
d="M275 44c43 0 81 21 110 60v405h99v-387c0 -56 14 -82 54 -94l-19 -38c-77 0 -115 21 -128 73c-24 -33 -67 -59 -108 -64c-40 -5 -73 0 -104 16v-225h-99v719h99v-349c0 -76 33 -116 96 -116z" />
    <glyph glyph-name="summation" unicode="&#x2211;" horiz-adv-x="490" 
d="M151 635l204 -364l-216 -364h252l12 102h47v-147h-425v40l220 369l-208 369v40h413v-140h-47l-12 95h-240z" />
    <glyph glyph-name="Omega" unicode="&#x2126;" horiz-adv-x="692" 
d="M304 44v-44h-273v142h47l11 -98h147c-103 67 -163 178 -163 303c0 107 25 191 75 252c49 61 116 91 201 91c173 0 273 -129 273 -344c0 -124 -63 -235 -167 -302h147l11 98h48v-142h-276v44c37 16 67 51 92 106s37 117 37 186c0 199 -59 306 -166 306
c-111 0 -167 -101 -167 -298c0 -137 46 -247 123 -300z" />
    <glyph glyph-name="uni03A9" unicode="&#x3a9;" horiz-adv-x="692" 
d="M304 44v-44h-273v142h47l11 -98h147c-103 67 -163 178 -163 303c0 107 25 191 75 252c49 61 116 91 201 91c173 0 273 -129 273 -344c0 -124 -63 -235 -167 -302h147l11 98h48v-142h-276v44c37 16 67 51 92 106s37 117 37 186c0 199 -59 306 -166 306
c-111 0 -167 -101 -167 -298c0 -137 46 -247 123 -300z" />
    <glyph glyph-name="increment" unicode="&#x2206;" horiz-adv-x="530" 
d="M490 0h-456v42l206 638h58l192 -638v-42zM396 44l-148 513l-161 -513h309z" />
    <glyph glyph-name="uni0394" unicode="&#x394;" horiz-adv-x="530" 
d="M490 0h-456v42l206 638h58l192 -638v-42zM396 44l-148 513l-161 -513h309z" />
    <glyph glyph-name="uni2113" unicode="&#x2113;" horiz-adv-x="511" 
d="M42 159l-19 41l79 46v10c0 93 21 187 61 266c52 104 127 168 200 168c61 0 100 -46 100 -114c0 -113 -87 -222 -266 -333v-14c3 -128 29 -188 80 -188c37 0 71 27 103 86l34 -22c-47 -79 -96 -112 -161 -112c-83 0 -136 73 -147 201zM242 495c-23 -59 -38 -124 -43 -185
c119 92 180 184 180 275c0 37 -9 57 -28 57c-32 0 -76 -59 -109 -147z" />
    <glyph glyph-name="estimated" unicode="&#x212e;" horiz-adv-x="701" 
d="M555 96h44c-57 -67 -147 -107 -242 -107c-85 0 -157 27 -216 81c-60 53 -90 118 -90 194c0 77 30 142 90 196c59 54 131 81 216 81s157 -27 217 -81c59 -54 89 -119 89 -196v-7h-496c-3 0 -4 -2 -4 -3v-150c0 -7 2 -13 7 -18c49 -51 117 -80 188 -80c76 0 146 33 197 90z
M551 276v151c0 8 -3 14 -8 19c-49 51 -114 78 -185 78s-139 -29 -187 -81c-5 -4 -8 -11 -8 -19v-148c0 -1 3 -4 4 -4h381c1 0 3 1 3 4z" />
    <glyph glyph-name="heart" unicode="&#x2665;" horiz-adv-x="602" 
d="M199 500c40 0 77 -25 98 -65h8c21 40 58 65 98 65c57 0 99 -44 99 -105c0 -44 -19 -91 -56 -140c-38 -50 -86 -90 -145 -120c-59 30 -107 70 -144 120c-38 49 -57 96 -57 140c0 61 42 105 99 105z" />
    </font>
</defs>
</svg>
