<?xml version="1.0" encoding="UTF-8" standalone="no"?>
<!-- Generator: Adobe Illustrator 21.0.0, SVG Export Plug-In . SVG Version: 6.00 Build 0)  -->

<svg
   xmlns:dc="http://purl.org/dc/elements/1.1/"
   xmlns:cc="http://creativecommons.org/ns#"
   xmlns:rdf="http://www.w3.org/1999/02/22-rdf-syntax-ns#"
   xmlns:svg="http://www.w3.org/2000/svg"
   xmlns="http://www.w3.org/2000/svg"
   xmlns:sodipodi="http://sodipodi.sourceforge.net/DTD/sodipodi-0.dtd"
   xmlns:inkscape="http://www.inkscape.org/namespaces/inkscape"
   version="1.1"
   id="Layer_1"
   x="0px"
   y="0px"
   width="210px"
   height="30px"
   viewBox="0 0 210 30"
   style="enable-background:new 0 0 210 30;"
   xml:space="preserve"
   sodipodi:docname="Untitled-5.svg"
   inkscape:version="0.92.4 (5da689c313, 2019-01-14)"><metadata
   id="metadata4957"><rdf:RDF><cc:Work
       rdf:about=""><dc:format>image/svg+xml</dc:format><dc:type
         rdf:resource="http://purl.org/dc/dcmitype/StillImage" /><dc:title></dc:title></cc:Work></rdf:RDF></metadata><defs
   id="defs4955" /><sodipodi:namedview
   pagecolor="#ffffff"
   bordercolor="#666666"
   borderopacity="1"
   objecttolerance="10"
   gridtolerance="10"
   guidetolerance="10"
   inkscape:pageopacity="0"
   inkscape:pageshadow="2"
   inkscape:window-width="1366"
   inkscape:window-height="705"
   id="namedview4953"
   showgrid="false"
   inkscape:zoom="1.352381"
   inkscape:cx="105"
   inkscape:cy="15"
   inkscape:window-x="-8"
   inkscape:window-y="-8"
   inkscape:window-maximized="1"
   inkscape:current-layer="Layer_1" />
<style
   type="text/css"
   id="style4946">
	.st0{fill:#1A181A;}
</style>
<g
   id="g4950">
	<path
   class="st0"
   d="M5.4,25.5c0.3-0.7,0.4-4.9,0.3-11.5L5.6,3.7L12,3.8c7.2,0.2,8.6,0.6,11.6,3.2c2.1,1.9,3.2,4,3.4,7   c0.3,3.5-0.6,6-3.2,8.5c-3.1,3-5.2,3.7-12.6,3.9L5,26.7L5.4,25.5z M16.6,24.6c6.9-1.5,8.6-11.8,2.8-16.9c-1.9-1.7-4-2.3-7.5-2.3   H9.7L9.5,15c-0.1,5.3,0,9.8,0.1,9.9C9.9,25.2,14.7,25,16.6,24.6L16.6,24.6z M33.6,26.3c0-0.1,0.5-1.2,1.1-2.4   c0.6-1.2,2.8-6.1,4.7-10.9c3.5-8.5,4.1-9.7,4.6-9.7c0.2,0,1.5,2.9,3,6.4l2.7,6.4l4.3,0c2.4,0,4.4,0.1,4.4,0.2c0,0.1-0.2,0.6-0.4,1   c-0.3,0.6-0.8,0.7-3.9,0.7c-1.9,0-3.5,0.1-3.5,0.2c0,0.6,3,6.6,3.6,7c1.2,1,0.7,1.2-1.7,1.1L50,26.3l-1.8-4l-1.8-4.1l-1.8-0.1   c-1.6-0.1-1.8-0.2-1.8-1.1c0-0.8,0.2-0.9,1.3-0.9c1.3,0,1.3,0,0.9-1.1c-0.2-0.6-0.8-2.1-1.4-3.3l-1.1-2.3l-3.2,7.5   c-1.7,4.1-3.3,8-3.6,8.6c-0.3,0.8-0.7,1.1-1.4,1.1C34,26.5,33.6,26.4,33.6,26.3L33.6,26.3z M68.8,24.9c-0.4-0.9-2.4-5.6-4.5-10.4   c-2-4.8-4.1-9.1-4.5-9.4C58.6,4,59,3.7,61.5,3.8l2.4,0.1l3.5,8.2c1.9,4.5,3.6,8.2,3.7,8.2c0.1,0,1.8-3.7,3.7-8.2   c3.2-7.6,3.6-8.2,4.5-8.3c0.6-0.1,1,0,1,0.1s-0.4,0.9-0.9,1.9c-0.5,0.9-2.7,6-4.9,11.3c-2.4,5.8-4.2,9.6-4.5,9.6   C69.7,26.5,69.2,25.8,68.8,24.9L68.8,24.9z M88.7,15.2V3.7h2.1h2.1v11.3v11.3l-2.1,0.1l-2.1,0.1V15.2z M104.5,15.1V3.7l6.4,0.2   c5.9,0.1,6.5,0.2,8.5,1.1c4.5,2.1,6.7,5.3,6.7,9.9c0,3.2-0.7,4.9-2.9,7.2c-3.1,3.3-6.6,4.4-14.2,4.4h-4.5V15.1z M117.9,23.8   c5.9-3.3,5.5-13.6-0.7-17.3c-1.5-0.8-2.3-1.1-5.2-1.2l-3.4-0.2v10v10l3.8-0.2C115.4,24.8,116.5,24.6,117.9,23.8L117.9,23.8z    M141.9,25.9c-5.2-1.9-7.9-5.4-7.9-10.6c0-4.5,3.3-9,7.9-10.7s11.2-0.3,14.2,3c4,4.5,3.6,10.9-0.7,15.3   C152.2,26.1,146.3,27.4,141.9,25.9L141.9,25.9z M150.8,23.7c4.9-2.7,5.6-10.4,1.4-15.1c-4.1-4.6-10.3-3.9-13.2,1.5   c-1.3,2.4-1.1,6.7,0.2,9.3c1.2,2.2,3.7,4.6,5.5,5.1C146.3,25.1,149,24.7,150.8,23.7L150.8,23.7z M168,26.3   c-0.1-0.2-0.1-0.6,0.1-0.9c0.5-0.7,0.5-19.4,0-20.6l-0.4-1l7.4,0.1l7.4,0.1l0.5,1.2c0.5,1.2,0.5,1.2-0.5,0.9   c-0.6-0.2-3.2-0.4-5.8-0.4h-4.8l0.1,3.8l0.1,3.8l4.2,0.1c3.7,0.1,4.2,0.2,4,0.8c-0.1,0.6-0.7,0.6-4.3,0.8l-4.2,0.1l0.1,5.1   c0.1,2.8,0.2,5.4,0.3,5.7c0.1,0.5-0.3,0.6-2,0.7C169.1,26.5,168,26.4,168,26.3L168,26.3z M190,26.3c-0.2-0.2-0.1-0.7,0.1-1.2   c0.5-1.2,0.5-18.5,0-20.1l-0.4-1.3l7.2,0.1l7.2,0.1l0.5,1.2c0.5,1.2,0.5,1.2-0.5,0.9c-0.6-0.2-3.1-0.4-5.6-0.4H194v3.9v3.9h4.3   c3.9,0,4.3,0.1,4.1,0.7c-0.1,0.6-0.7,0.7-4.3,0.8l-4.2,0.1l0.2,5.1c0.1,2.8,0.2,5.4,0.3,5.7c0.1,0.4-0.3,0.6-2,0.7   C191.2,26.5,190.2,26.5,190,26.3L190,26.3z"
   id="path4948" />
</g>
</svg>